<?xml version="1.0" encoding="UTF-8"?><svg id="Layer_1" xmlns="http://www.w3.org/2000/svg" height="40" viewBox="0 0 238.48 37.85"><defs><style>.cls-1{fill:#6a6a6a;}.cls-2{fill:#164e52;}.cls-3{fill:#797979;}.cls-4{fill:#013335;}.cls-5{fill:#ddd;}.cls-6{fill:#14494c;}.cls-7{fill:#6c6c6c;}.cls-8{fill:#024a4d;}.cls-9{fill:#fff;}.cls-10{fill:#1c6368;}.cls-11{fill:#278e95;}.cls-12{fill:#023d3f;}.cls-13{fill:#175256;}.cls-14{fill:#024a4c;}.cls-15{fill:#cbcbcb;}.cls-16{fill:#1b6065;}.cls-17{fill:#175458;}.cls-18{fill:#1d676c;}.cls-19{fill:#cacaca;}.cls-20{fill:#034e50;}.cls-21{fill:#f6f6f6;}.cls-22{fill:#bfbfbf;}.cls-23{fill:#025054;}.cls-24{fill:#aeaeae;}.cls-25{fill:#144a4d;}.cls-26{fill:#036569;}.cls-27{fill:#248389;}.cls-28{fill:#024143;}.cls-29{fill:#012a2b;}.cls-30{fill:#989898;}.cls-31{fill:#717171;}.cls-32{fill:#0f575a;}.cls-33{fill:#33b9c2;}.cls-34{fill:#5f5f5f;}.cls-35{fill:#023739;}.cls-36{fill:#9f9f9f;}.cls-37{fill:#2a979f;}.cls-38{fill:#023638;}.cls-39{fill:#012728;}.cls-40{fill:#237d83;}.cls-41{fill:#b2b2b2;}.cls-42{fill:#1c6369;}.cls-43{fill:#035658;}.cls-44{fill:#024345;}.cls-45{fill:#14474b;}.cls-46{fill:#012729;}.cls-47{fill:#d6d6d6;}.cls-48{fill:#1f7176;}.cls-49{fill:#14474a;}.cls-50{fill:#2da1a9;}.cls-51{fill:#25868d;}.cls-52{fill:#c9c9c9;}.cls-53{fill:#0a3a3d;}.cls-54{fill:#35bfc9;}.cls-55{fill:#18565b;}.cls-56{fill:#013436;}.cls-57{fill:#1a5e63;}.cls-58{fill:#14494d;}.cls-59{fill:#147b7f;}.cls-60{fill:#024446;}.cls-61{fill:#0a393b;}.cls-62{fill:#656565;}.cls-63{fill:#32b3bc;}.cls-64{fill:#dedede;}.cls-65{fill:#023e40;}.cls-66{fill:#6b6b6b;}.cls-67{fill:#696969;}.cls-68{fill:#cfcfcf;}.cls-69{fill:#d7d7d7;}.cls-70{fill:#bdbdbd;}.cls-71{fill:#237c83;}.cls-72{fill:#024648;}.cls-73{fill:#707070;}.cls-74{fill:#03686c;}.cls-75{fill:#278b92;}.cls-76{fill:#646464;}.cls-77{fill:#012a2c;}.cls-78{fill:#207378;}.cls-79{fill:#e6e6e6;}.cls-80{fill:#29939a;}.cls-81{fill:#969696;}.cls-82{fill:#01282a;}.cls-83{fill:#030303;}.cls-84{fill:#1e6a70;}.cls-85{fill:#626262;}.cls-86{fill:gray;}.cls-87{fill:#024043;}.cls-88{fill:#012b2d;}.cls-89{fill:#e2bf96;}.cls-90{fill:#035b5e;}.cls-91{fill:#2ea7af;}.cls-92{fill:#093739;}.cls-93{fill:#013133;}.cls-94{fill:#175357;}.cls-95{fill:#828282;}.cls-96{fill:#237f86;}.cls-97{fill:#8f8f8f;}.cls-98{fill:#012c2d;}.cls-99{fill:#013234;}.cls-100{fill:#8e8e8e;}.cls-101{fill:#6f6f6f;}.cls-102{fill:#012d2f;}.cls-103{fill:#024042;}.cls-104{fill:#025154;}.cls-105{fill:#7d7d7d;}.cls-106{fill:#013537;}.cls-107{fill:#1a5c60;}.cls-108{fill:#03787c;}.cls-109{fill:#012b2c;}.cls-110{fill:#747474;}.cls-111{fill:#676767;}.cls-112{fill:#2b9da4;}.cls-113{fill:#18585d;}.cls-114{fill:#106064;}.cls-115{fill:#023b3d;}.cls-116{fill:#036165;}.cls-117{fill:#fdfdfd;}.cls-118{fill:#207379;}.cls-119{fill:#09393b;}.cls-120{fill:#a3a3a3;}.cls-121{fill:#025659;}.cls-122{fill:#02484b;}.cls-123{fill:#30acb5;}.cls-124{fill:#013536;}.cls-125{fill:#09373a;}.cls-126{fill:#025053;}.cls-127{fill:#b6b6b6;}.cls-128{fill:#19969b;}.cls-129{fill:#137377;}.cls-130{fill:#0c4548;}.cls-131{fill:#616161;}.cls-132{fill:#afafaf;}.cls-133{fill:#14484c;}.cls-134{fill:#035255;}.cls-135{fill:#858585;}.cls-136{fill:#012a2d;}.cls-137{fill:#bebebe;}.cls-138{fill:#035558;}.cls-139{fill:#21797e;}.cls-140{fill:#1a9ba1;}.cls-141{fill:#1a5d62;}.cls-142{fill:#1e6c71;}.cls-143{fill:#036c70;}.cls-144{fill:#c1c1c1;}.cls-145{fill:#0c4a4c;}.cls-146{fill:#03585b;}.cls-147{fill:#9b9b9b;}.cls-148{fill:#01292b;}.cls-149{fill:#024c4f;}.cls-150{fill:#757575;}.cls-151{fill:#1b6267;}.cls-152{fill:#03494c;}.cls-153{fill:#178c91;}.cls-154{fill:#035b5f;}.cls-155{fill:#012e2f;}.cls-156{fill:#168388;}.cls-157{fill:#036468;}.cls-158{fill:#7e7e7e;}.cls-159{fill:#37c6d0;}.cls-160{fill:#023f41;}.cls-161{fill:#024245;}.cls-162{fill:#013638;}.cls-163{fill:#1e6d73;}.cls-164{fill:#01292a;}.cls-165{fill:#c2c2c2;}.cls-166{fill:#19595d;}.cls-167{fill:#288f96;}.cls-168{fill:#154c4f;}.cls-169{fill:#7a7a7a;}.cls-170{fill:#035053;}.cls-171{fill:#a8a8a8;}.cls-172{fill:#949494;}.cls-173{fill:#0e5356;}.cls-174{fill:#024649;}.cls-175{fill:#013032;}.cls-176{fill:#227b81;}.cls-177{fill:#165054;}.cls-178{fill:#acacac;}.cls-179{fill:#8a8a8a;}.cls-180{fill:#6d6d6d;}.cls-181{fill:#1f7177;}.cls-182{fill:#012c2e;}.cls-183{fill:#2da2aa;}.cls-184{fill:#6e6e6e;}.cls-185{fill:#012e30;}.cls-186{fill:#21787e;}.cls-187{fill:#023a3c;}.cls-188{fill:#eee;}.cls-189{fill:#036b6f;}.cls-190{fill:#838383;}.cls-191{fill:#686868;}.cls-192{fill:#919191;}.cls-193{fill:#154b4f;}.cls-194{fill:#02383a;}.cls-195{fill:#d0d0d0;}.cls-196{fill:#036164;}.cls-197{fill:#012f31;}.cls-198{fill:#ececec;}.cls-199{fill:#1d696e;}.cls-200{fill:#012829;}.cls-201{fill:#1f6f75;}.cls-202{fill:#035a5e;}.cls-203{fill:#03676b;}.cls-204{fill:#888;}.cls-205{fill:#5e5e5e;}.cls-206{fill:#237f85;}.cls-207{fill:#1d686d;}.cls-208{fill:#0a3d3f;}.cls-209{fill:#b9b9b9;}</style></defs><g><path d="M52.16,13.39h-6.7V30.94h-5.08V13.39h-6.73v-4.46h18.51v4.46Z"/><path d="M50.83,26.15c0-1.06,.3-1.99,.9-2.78,.6-.79,1.43-1.42,2.48-1.88s2.26-.69,3.63-.69c.66,0,1.31,.06,1.95,.17,.64,.11,1.2,.27,1.67,.48v-.71c0-.86-.27-1.52-.81-1.98s-1.35-.69-2.45-.69c-.91,0-1.76,.16-2.56,.47-.8,.31-1.64,.75-2.53,1.33l-1.49-3.16c1.07-.7,2.2-1.23,3.36-1.58,1.17-.35,2.4-.53,3.7-.53,2.44,0,4.33,.57,5.69,1.72,1.35,1.15,2.03,2.8,2.03,4.97v4.16c0,.49,.08,.83,.23,1.02,.16,.19,.43,.31,.82,.35v4.12c-.41,.08-.8,.14-1.16,.19-.36,.04-.68,.06-.95,.06-.93,0-1.64-.19-2.12-.56-.49-.37-.79-.88-.91-1.52l-.09-.71c-.72,.93-1.59,1.64-2.59,2.12s-2.05,.73-3.15,.73-2.04-.22-2.9-.67c-.86-.45-1.53-1.06-2.03-1.83-.5-.77-.74-1.64-.74-2.6Zm9.86,.58c.23-.18,.41-.38,.56-.6,.14-.22,.22-.43,.22-.63v-1.4c-.41-.16-.87-.28-1.38-.37-.51-.09-.98-.13-1.41-.13-.91,0-1.66,.19-2.26,.58-.6,.39-.9,.9-.9,1.54,0,.36,.1,.69,.31,.99s.49,.54,.85,.72c.36,.18,.79,.27,1.29,.27s.99-.09,1.49-.27c.5-.18,.91-.41,1.24-.69Z"/><path d="M85.7,30.94h-4.96v-8.96c0-1.03-.21-1.79-.64-2.28-.42-.49-.99-.73-1.69-.73-.37,0-.79,.11-1.26,.34s-.89,.55-1.29,.97-.69,.91-.9,1.46v9.19h-4.96V8.31h4.96v9.29c.6-.96,1.39-1.69,2.37-2.21,.98-.52,2.06-.78,3.24-.78,1.12,0,2.01,.18,2.68,.55,.67,.37,1.18,.85,1.53,1.45,.35,.6,.59,1.26,.71,1.97s.19,1.42,.19,2.11v10.26Z"/><path d="M96.74,31.25c-1.38,0-2.62-.22-3.7-.67-1.08-.45-2-1.06-2.74-1.83-.74-.77-1.31-1.66-1.69-2.66-.38-1-.57-2.05-.57-3.15s.19-2.18,.57-3.18c.38-1,.95-1.88,1.69-2.66,.74-.77,1.66-1.38,2.74-1.83,1.08-.45,2.32-.67,3.7-.67s2.61,.22,3.69,.67c1.07,.45,1.98,1.06,2.73,1.83,.74,.77,1.31,1.66,1.71,2.66,.39,1,.59,2.06,.59,3.18s-.2,2.15-.59,3.15c-.39,1-.96,1.88-1.71,2.66s-1.65,1.38-2.73,1.83c-1.07,.45-2.3,.67-3.69,.67Zm-3.63-8.31c0,.82,.16,1.55,.48,2.17,.32,.62,.75,1.1,1.29,1.44,.54,.34,1.16,.51,1.86,.51s1.3-.17,1.84-.53,.98-.84,1.29-1.46c.31-.62,.46-1.33,.46-2.14s-.16-1.54-.46-2.17c-.31-.62-.74-1.1-1.29-1.44-.55-.34-1.16-.51-1.84-.51s-1.32,.17-1.86,.51c-.54,.34-.97,.82-1.29,1.44-.32,.62-.48,1.34-.48,2.17Z"/><path d="M115.68,31.25c-1.38,0-2.61-.22-3.69-.66-1.07-.44-1.99-1.04-2.74-1.79-.75-.76-1.33-1.63-1.72-2.62-.39-.99-.59-2.03-.59-3.11,0-1.54,.35-2.95,1.04-4.22,.69-1.27,1.69-2.29,2.99-3.07,1.3-.78,2.87-1.17,4.71-1.17s3.4,.39,4.7,1.16c1.29,.77,2.28,1.79,2.96,3.04,.68,1.25,1.02,2.61,1.02,4.07,0,.29-.02,.57-.05,.84-.03,.27-.06,.51-.08,.72h-12.03c.06,.7,.26,1.3,.6,1.78,.34,.48,.78,.85,1.32,1.1,.54,.25,1.11,.38,1.71,.38,.74,0,1.44-.18,2.09-.53,.65-.35,1.1-.83,1.35-1.43l4.22,1.18c-.41,.85-1,1.6-1.75,2.25-.75,.65-1.64,1.16-2.67,1.53-1.02,.37-2.15,.56-3.39,.56Zm-3.6-9.86h7.07c-.08-.65-.28-1.22-.59-1.7-.31-.48-.72-.86-1.24-1.12-.52-.27-1.08-.4-1.71-.4s-1.21,.13-1.72,.4c-.51,.27-.92,.64-1.22,1.12-.31,.48-.51,1.05-.59,1.7Z"/><path d="M139.33,18.35v12.59h-5.08V8.93h4.03l10.2,12.96V8.93h5.08V30.94h-4.15l-10.07-12.59Z"/><path d="M157.37,12.8v-4.5h4.96v4.5h-4.96Zm0,18.13V14.66h4.96V30.94h-4.96Z"/><path d="M181.43,30.94h-4.96v-8.96c0-1.05-.2-1.82-.6-2.29-.4-.48-.93-.71-1.6-.71-.46,0-.92,.12-1.4,.36-.48,.24-.9,.57-1.29,.98-.38,.42-.68,.9-.88,1.43v9.19h-4.96V14.85h4.46v2.74c.41-.63,.93-1.17,1.55-1.62,.62-.45,1.33-.79,2.14-1.02,.81-.23,1.68-.35,2.63-.35,1.05,0,1.91,.19,2.56,.56,.65,.38,1.15,.87,1.49,1.48,.34,.61,.57,1.27,.68,1.97,.11,.7,.17,1.39,.17,2.06v10.26Z"/><path d="M183.85,37.2c-.81,0-1.59-.13-2.34-.39-.75-.26-1.43-.65-2.03-1.16l2.08-3.38c.21,.23,.46,.39,.76,.5s.6,.16,.91,.16,.59-.07,.84-.2,.44-.33,.59-.6c.14-.27,.22-.56,.22-.89V14.85h4.96V30.9c0,1.23-.26,2.32-.79,3.27-.53,.95-1.24,1.7-2.14,2.23-.9,.53-1.92,.8-3.05,.8Zm1.02-24.21v-4.49h4.96v4.49h-4.96Z"/><path d="M192.18,26.15c0-1.06,.3-1.99,.9-2.78,.6-.79,1.43-1.42,2.48-1.88,1.05-.46,2.26-.69,3.63-.69,.66,0,1.31,.06,1.95,.17,.64,.11,1.2,.27,1.67,.48v-.71c0-.86-.27-1.52-.81-1.98s-1.35-.69-2.45-.69c-.91,0-1.76,.16-2.56,.47-.8,.31-1.64,.75-2.53,1.33l-1.49-3.16c1.07-.7,2.2-1.23,3.36-1.58,1.17-.35,2.4-.53,3.7-.53,2.44,0,4.33,.57,5.69,1.72,1.35,1.15,2.03,2.8,2.03,4.97v4.16c0,.49,.08,.83,.23,1.02,.15,.19,.43,.31,.82,.35v4.12c-.41,.08-.8,.14-1.16,.19-.36,.04-.68,.06-.95,.06-.93,0-1.64-.19-2.12-.56-.49-.37-.79-.88-.92-1.52l-.09-.71c-.72,.93-1.59,1.64-2.59,2.12-1,.49-2.05,.73-3.15,.73s-2.04-.22-2.9-.67c-.86-.45-1.53-1.06-2.03-1.83-.5-.77-.74-1.64-.74-2.6Zm9.86,.58c.23-.18,.41-.38,.56-.6s.22-.43,.22-.63v-1.4c-.41-.16-.87-.28-1.38-.37-.51-.09-.98-.13-1.41-.13-.91,0-1.66,.19-2.26,.58-.6,.39-.9,.9-.9,1.54,0,.36,.1,.69,.31,.99,.21,.3,.49,.54,.85,.72,.36,.18,.79,.27,1.29,.27s.99-.09,1.49-.27c.5-.18,.91-.41,1.24-.69Z"/></g><g><path class="cls-83" d="M18.71,18.51s-.09,.08-.14,.12c-.23,.21-.43,.43-.69,.64-.07,.06-.15,.12-.22,.18-.18,.09-.37,.17-.54,.35,.66,.29,1.33,.17,1.97,.27,.05,0,.09,.01,.14,.01,.44,0,0,0,.72,0h.4c.1,.15,.14,.32,.12,.49-.02,.26-.04,.53,.04,.78,.09,.29,.05,.53-.19,.73h-.02s.08-.02-.17,.12c-.62,.35-1.24,.28-1.89,.15-.74-.14-.73-.12-.72,.62,0,.31-.03,.63-.05,.94-.02,.2,.04,.34,.24,.41,1.59,.57,2.68,1.79,3.78,2.97,.36,.39,.59,.89,.65,1.42,.06,.6,.43,1.12,.97,1.38,.13,.07,.26,.15,.38,.25,.17,.13,.35,.29,.3,.53-.06,.27-.32,.38-.55,.39-.96,.04-1.88-.05-2.62-.78-.35-.34-.43-.8-.55-1.22-.27-.94-.9-1.5-1.71-1.94-1.52-.82-3.13-1-4.81-.68-.39,.09-.77,.22-1.13,.41-.42,.2-.49,.89-.19,1.45,.27,.49,.7,.85,1.02,1.3,.04,.05,.09,.09,.13,.14,.15,.24,.38,.48,.22,.78-.16,.31-.45,.37-.78,.44-.64,.15-1.28,.04-1.91,.1-.36,.03-.7-.08-1.04-.15-.25-.03-.44-.23-.46-.48-.02-.26,.19-.39,.42-.47s.43-.14,.65-.19,.24-.15,.1-.32c-.54-.67-.67-1.5-.86-2.3-.08-.35,.03-.74,.19-1.06,.32-.64,.71-1.23,1.39-1.58,.74-.37,.93-.98,.6-1.73-.04-.09-.13-.15-.23-.15l-.64-.04c-.06-.06-.15-.07-.21-.01h0c-1.4-.08-2.6-.71-3.75-1.42-.33-.2-.68-.48-.75-.93,.27-.31,.4-.7,.49-1.09,.02-.15,.11-.28,.25-.34,.19,.21,.41,.39,.66,.53,.02,.08,.06,.13,.15,.12l.07,.04c0,.06,.06,.11,.12,.11,.01,0,.03,0,.04,0,.13,.06,.24,.16,.39,.15,.03,.06,.06,.1,.13,.08l.2,.06c.12,.13,.31,.18,.47,.12,.21,.03,.42,.03,.62,0,.14,.06,.31,0,.39-.13l.28-.15c.19,0,.29-.08,.11-.23-.08-.07-.12-.07-.33-.14-.1-.04-.19-.09-.28-.14-.07-.04-.06-.04-.17-.1-.07-.04-.14-.09-.2-.13-.17-.09-.33-.2-.48-.32-.11-.1-.2-.17-.3-.26-.21-.2-.2-.22-.36-.37-.15-.16-.29-.34-.42-.53-.07-.09-.04-.06-.11-.15s-.11-.16-.17-.23c-.09-.13-.1-.14-.2-.3-.3-.46-.52-.97-.66-1.5l-.03-.15c.01-.33,0-.46,.02-.69,.02-.32,.04-.12,.03-.22-.04-.26,.12-.5,.12-.76,.02-.1,.03-.13,.04-.22,.14-.96,.7-1.64,1.35-2.32,.81-.85,1.71-1.5,2.81-1.87,1.5-.51,3.04-.52,4.57-.18,1.41,.31,2.56,1.09,3.54,2.14,.25,.26,.36,.62,.62,.88,.18,.17,0,.35-.42,.4-.05-.02-.09-.03-.14-.04-1.22,.04-2.44,0-3.65-.12-1.07-.1-2.13,.02-3.19,.11-.45,.04-.89,.11-1.33,.23-1.47,.4-1.8,1.71-1.53,2.92,.13,.59,.47,1.05,1.08,1.25,.55,.19,1.13,.26,1.71,.22,1.48-.12,2.96-.02,4.45,0,.83,0,1.65,.11,2.45-.2,.35-.13,.5,.07,.4,.42-.08,.13-.17,.25-.27,.36"/><path class="cls-89" d="M19.48,16.9c-.81,.31-1.63,.21-2.45,.2-1.48-.02-2.96-.12-4.45,0-.58,.04-1.16-.03-1.71-.22-.61-.2-.95-.65-1.08-1.25-.27-1.21,.06-2.52,1.53-2.92,.43-.12,.88-.19,1.33-.23,1.06-.09,2.13-.21,3.19-.11,1.21,.12,2.43,.16,3.65,.12,.05,0,.1,.02,.14,.04-.01,.19,.01,.37,.07,.55,.32,.91,.39,1.83,.11,2.76-.05,.15-.06,.32-.11,.48m-6.98-2.68c-.01,.3,.12,.43,.35,.44,.26,.02,.52,.08,.76,.18,.25,.1,.5,.21,.76,.3,.13,.05,.28,.08,.36-.08s-.08-.21-.18-.27c-.54-.33-1.15-.5-1.7-.83-.26-.15-.34,.08-.36,.24Zm5.07,.73c.45-.03,.87-.21,1.31-.3,.16-.03,.31-.08,.34-.24,.04-.2-.09-.36-.23-.48s-.25,0-.37,.05c-.36,.18-.66,.51-1.09,.55-.16,.01-.34,.05-.33,.22,0,.22,.21,.2,.38,.2Zm.52,.42v-.03h-.71c-.2,0-.25,.1-.14,.26,.38,.56,1.29,.84,1.77,.15,.17-.25,.07-.35-.16-.38-.25-.02-.5-.02-.75,0h0Zm-4.39,.86c.33-.03,.56-.23,.79-.43,.07-.06,.14-.11,.1-.22-.04-.08-.12-.14-.21-.13-.41-.04-.83-.07-1.24-.1-.3-.02-.35,.15-.25,.38,.15,.35,.47,.46,.81,.5h0Z"/><path class="cls-89" d="M4.86,18.89c-.03-.05-.07-.11-.09-.16-.11-.23-.08-.51,.08-.71,.17-.22,.4-.14,.62-.05,.08,.03,.16,.07,.26,.11l.57,.11c.3,.23,.55,.52,.74,.84-.13,.06-.22,.19-.24,.33-.09,.39-.22,.77-.49,1.09-.42-.18-.67-.56-.97-.87l-.49-.68Z"/><path class="cls-89" d="M20.56,21.7c-.12-.67-.09-.86-.08-1.13,.02-.17-.02-.35-.12-.49,.7-.29,1.46-.11,2.19-.24,.28-.04,.56,0,.8,.15,.35,.2,.36,.47,.04,.7-.19,.12-.4,.2-.62,.26-.12,.04-.28,.01-.17,.28,.11,.29-.21,.37-.45,.39-.31,.02-.63,0-.94,0l-.65,.06Z"/><path class="cls-89" d="M10.82,22.78c.06-.06,.16-.05,.21,0h0"/><path class="cls-83" d="M12.73,13.64c.02-.17,.1-.39,.36-.24,.55,.32,1.16,.5,1.7,.83,.1,.06,.26,.1,.18,.27s-.23,.13-.36,.08c-.26-.09-.51-.2-.76-.3-.24-.1-.5-.16-.76-.18-.24-.01-.37-.14-.35-.45Z"/><path class="cls-83" d="M17.8,14.37c-.16,0-.37,.02-.38-.2,0-.18,.17-.21,.33-.22,.43-.04,.73-.36,1.09-.55,.12-.06,.23-.18,.37-.05s.27,.28,.23,.48c-.03,.17-.18,.21-.34,.24-.44,.09-.85,.27-1.31,.3Z"/><path class="cls-83" d="M18.33,14.79c.25-.01,.5,0,.75,0,.23,.03,.33,.13,.16,.38-.48,.69-1.39,.42-1.77-.15-.11-.16-.06-.26,.14-.26h.71v.02Z"/><path class="cls-83" d="M13.93,15.65c-.34-.04-.66-.15-.81-.5-.1-.23-.06-.4,.25-.38,.41,.03,.83,.07,1.24,.1,.09,0,.17,.05,.21,.13,.04,.11-.03,.16-.1,.22-.23,.2-.45,.4-.78,.43Z"/><path class="cls-143" d="M5.04,14.3c.87,.49,1.19,1.59,.71,2.46-.49,.87-1.59,1.19-2.46,.71-.87-.48-1.19-1.58-.71-2.46,.48-.88,1.58-1.2,2.46-.71h0"/><path class="cls-140" d="M5.62,16.74c.75,.41,1.02,1.36,.61,2.11-.41,.75-1.36,1.02-2.11,.61-.75-.41-1.02-1.36-.61-2.11h0c.42-.75,1.36-1.02,2.11-.61"/><path class="cls-159" d="M3.45,17.56c.6,.33,.82,1.08,.49,1.68-.33,.6-1.08,.82-1.68,.49-.6-.33-.82-1.08-.49-1.68,.33-.6,1.08-.82,1.68-.49h0"/><path class="cls-74" d="M4.58,15.72l-.12-.07s0,.04,0,.06l.03,.02h0c.09,.05,.12,.17,.07,.26l-.4,.73s.07-.04,.11-.05l.39-.7c.05-.09,.02-.2-.07-.25"/><path class="cls-128" d="M4.26,16.68s-.07,.03-.11,.05l-.52,.95,.05,.05,.58-1.05"/><path class="cls-54" d="M3.63,17.68l-.42,.75h0s-.01,.02-.02,.03c.1-.07,.17-.16,.23-.27l.26-.47-.05-.05"/><path class="cls-21" d="M2.15,17.62h0c-.1,.07-.18,.14-.25,.23h0c.07-.09,.16-.17,.25-.23"/><path class="cls-188" d="M1.73,18.12h0s-.02,.05-.03,.08c0-.03,.02-.05,.03-.08"/><path class="cls-33" d="M2.9,18.59s-.03,0-.05,0c-.08,.05-.18,.06-.26,.01h0l-.85-.47s-.02,.05-.03,.08h0l.85,.48h.01c.12,.07,.26,.03,.33-.09h0"/><path class="cls-33" d="M3.19,18.46h0"/><path class="cls-116" d="M4.48,15.74l-.03-.02s0,.03-.02,.04l-.02,.03h.02c.09,.06,.12,.18,.07,.27l-.37,.67h.01l.4-.73c.05-.09,.02-.21-.07-.26"/><path class="cls-153" d="M4.15,16.73h-.01l-.52,.94h0l.52-.95"/><path class="cls-63" d="M3.62,17.67l-.44,.79h0s.01-.02,.02-.03h0l.42-.75h0"/><path class="cls-33" d="M3.18,18.47s-.09,.06-.15,.06c-.01,.01-.03,.03-.05,.04,.08,.01,.16-.02,.19-.09"/><path class="cls-123" d="M3.19,18.46s-.08,.04-.13,.03c0,.01-.02,.02-.03,.03,.06,0,.11-.02,.15-.06h0"/><path class="cls-90" d="M4.44,15.8h-.02l-.04,.07c.09,.05,.12,.17,.07,.26l-.35,.63,.05-.03,.37-.67c.05-.09,.02-.21-.07-.26"/><path class="cls-156" d="M4.14,16.73l-.05,.03-.5,.9,.02,.02,.52-.94"/><path class="cls-91" d="M3.6,17.66l-.27,.49c-.05,.09-.12,.16-.2,.23l-.07,.13h0s.09,0,.13-.03l.44-.79-.02-.02"/><path class="cls-189" d="M4.36,15.5l-1.53-.84-.04,.04,1.53,.84h0s.06,.05,.08,.08l.06,.03c0-.06-.04-.12-.1-.15"/><path class="cls-203" d="M4.45,15.66l-.06-.03s.02,.05,.02,.08l.03,.02s0-.04,0-.06"/><path class="cls-196" d="M4.45,15.72l-.03-.02s0,.05-.01,.08h.01l.02-.02s.01-.03,.02-.04"/><path class="cls-117" d="M3.17,17.4s.08,.05,.12,.07h0s.05,.03,.08,.04h.03l.02,.02s-.08-.04-.12-.06c-.04-.02-.07-.04-.11-.07h-.01"/><path class="cls-189" d="M3.42,17.53s-.05-.02-.07-.03c-.02-.01-.04-.02-.06-.03h-.02s-.06-.04-.09-.06c.04,.02,.07,.05,.11,.07s.08,.04,.12,.06h.01"/><path class="cls-157" d="M3.35,17.5l-.06-.03h0l.06,.03"/><path class="cls-202" d="M4.42,15.79h-.01s-.01,.04-.02,.06v.02h-.01l.04-.08"/><path class="cls-5" d="M1.89,17.85h0c-.05,.06-.09,.12-.13,.19l-.04,.07h0s.02-.04,.03-.06v-.02h0l.02-.04h0s.03-.04,.04-.06h0s.03-.04,.05-.06l.02-.02"/><path class="cls-47" d="M2.15,17.62h0c-.1,.07-.18,.14-.25,.23h0c.07-.09,.16-.17,.25-.23"/><path class="cls-68" d="M1.77,18.05h0v.02s-.03,.04-.04,.06h0s.02-.05,.04-.07h0"/><path class="cls-50" d="M2.85,18.58s-.03-.01-.05-.02h-.02c-.05,0-.11-.02-.15-.04h0l-.86-.47h0s-.03,.05-.04,.07l.85,.47h0c.08,.05,.18,.04,.26-.01"/><path class="cls-144" d="M1.79,18.01h0l-.02,.04h0s.02-.03,.02-.04"/><path class="cls-127" d="M1.79,18.01h0s-.02,.03-.02,.04h0l.02-.04"/><path class="cls-11" d="M2.78,18.55l-.99-.55-.02,.04,.86,.47h0s.1,.04,.15,.03"/><path class="cls-68" d="M1.88,17.88s-.03,.04-.05,.06h0s.03-.04,.05-.06"/><path class="cls-43" d="M4.38,15.87h0s.03,.08,.02,.12l-.05,.09s0,.1-.02,.14l-.34,.62s.08-.05,.12-.08l.35-.63c.05-.09,.02-.2-.07-.26"/><path class="cls-59" d="M4.09,16.76s-.08,.05-.12,.08l-.43,.78,.05,.04,.5-.9"/><path class="cls-112" d="M3.54,17.62l-.42,.75c.08-.06,.15-.14,.2-.23l.27-.49-.05-.04"/><polyline class="cls-138" points="4.37 15.87 4.37 15.88 4.37 15.88 4.37 15.87 4.37 15.87"/><path class="cls-174" d="M4.37,15.88l-.02,.04s0,.1-.02,.15h0l.05-.07s0-.08-.02-.11"/><polyline class="cls-72" points="4.37 15.88 4.35 15.92 4.35 15.92 4.37 15.88 4.37 15.88"/><path class="cls-15" d="M2.57,15.02c-.43,.77-.23,1.74,.46,2.28h0s.09,.07,.13,.1c-.08-.05-.16-.11-.23-.18-.05-.05-.1-.1-.14-.15-.44-.5-.56-1.21-.32-1.83,.03-.07,.06-.15,.1-.22"/><path class="cls-19" d="M2.79,17.07c.04,.05,.09,.1,.14,.15,.07,.07,.15,.13,.23,.18h.01c-.11-.07-.22-.15-.32-.25l-.03-.03-.04-.05"/><path class="cls-121" d="M3.42,17.53h0s-.04-.02-.05-.03h-.01s.05,.02,.07,.03h0m-.56-.39c.1,.1,.2,.19,.32,.26,.03,.02,.06,.04,.09,.05h0c-.1-.06-.2-.13-.29-.21-.04-.03-.08-.07-.11-.1"/><path class="cls-23" d="M3.42,17.53h0s-.03-.01-.05-.02c.02,0,.04,.02,.05,.03"/><path class="cls-23" d="M3.36,17.51l-.07-.04h0l.06,.04h.01"/><path class="cls-149" d="M3.41,17.53s-.08-.04-.12-.06h0l.07,.04s.03,.01,.05,.02"/><path class="cls-4" d="M3.42,17.53h0s-.08-.04-.12-.06h0s.08,.04,.12,.06h0"/><path class="cls-175" d="M3.42,17.53h0s-.08-.04-.12-.06c.04,.02,.08,.04,.12,.06"/><path class="cls-103" d="M4.35,15.92l-.03,.05s0,.02,0,.03c0,0,0,.02,0,.02,.01,.01,.02,.03,.02,.05,.03-.04,.03-.1,.02-.15"/><path class="cls-160" d="M4.35,15.92l-.03,.05h0l.03-.05h0"/><path class="cls-35" d="M4.32,15.97h0v.02h0s0-.02,0-.03"/><path class="cls-93" d="M4.32,15.97h0v0"/><path class="cls-93" d="M4.32,15.97h0"/><path class="cls-35" d="M4.31,15.99v.02h0s0,0,0-.02"/><path class="cls-93" d="M4.31,15.99v.02h0v-.02h0"/><path class="cls-102" d="M4.31,15.98v.02h-.01v-.02h0"/><path class="cls-102" d="M4.31,15.98v.02h-.01v-.02h.01"/><path class="cls-33" d="M2.99,18.56s-.04-.01-.06-.02l-.02,.04h0s.06,0,.09-.02"/><path class="cls-123" d="M2.93,18.54h-.02s-.03,.02-.05,.04c.02,0,.03,0,.05,0h0l.02-.04"/><path class="cls-123" d="M3.03,18.53s-.06,0-.08-.02h0l-.02,.04s.04,.02,.06,.02c.02,0,.03-.02,.05-.04"/><path class="cls-183" d="M2.95,18.5h-.02l-.02,.03h.02l.02-.03"/><path class="cls-183" d="M3.06,18.49h-.02l-.06-.04h-.01l-.02,.04h0s.05,.02,.08,.02c0,0,.02-.02,.03-.03"/><path class="cls-112" d="M3.13,18.37s-.1,.06-.15,.09l.06,.03h.02l.07-.12"/><path class="cls-37" d="M2.97,18.46h-.03l-.02,.04h.02l.02-.03"/><path class="cls-68" d="M1.83,17.94h0s-.03,.04-.04,.06h0s.03-.04,.04-.06m.06-.09h0l-.02,.02,.02-.02"/><path class="cls-52" d="M2.15,17.62h0c-.1,.07-.18,.14-.25,.23h0c.07-.09,.16-.17,.25-.23"/><path class="cls-37" d="M2.91,18.53h-.03s-.06,.01-.1,.02h.02s.03,.03,.05,.03c.02-.01,.04-.03,.05-.05"/><path class="cls-127" d="M1.84,17.94h0s-.03,.04-.04,.06h0s.03-.04,.04-.06"/><path class="cls-178" d="M1.84,17.94h0s-.03,.04-.04,.06h0s.03-.04,.04-.06"/><path class="cls-51" d="M2.88,18.52l-.05-.03c-.05,0-.11,0-.15-.03h0l-.86-.47s.02-.03,.03-.04h0s-.03,.04-.04,.06l.99,.55s.07-.01,.1-.03"/><path class="cls-165" d="M1.89,17.86h0l-.02,.02s-.03,.04-.05,.06h0s.04-.06,.06-.08"/><path class="cls-70" d="M2.15,17.62h0c-.1,.07-.18,.14-.25,.23h0c.07-.09,.16-.17,.26-.23"/><path class="cls-178" d="M1.9,17.86h0s-.04,.06-.06,.09h0l.03-.04h0s.02-.03,.04-.05"/><path class="cls-171" d="M2.15,17.62h0c-.1,.07-.18,.14-.26,.23h0l.02-.02h0c.07-.08,.15-.15,.24-.21"/><path class="cls-120" d="M1.86,17.9h0l-.03,.04h0l.03-.04"/><path class="cls-206" d="M1.87,17.91h0l-.03,.04h.02l.02-.04"/><path class="cls-120" d="M1.9,17.86h0s-.02,.03-.04,.05h.01s.02-.04,.03-.05"/><path class="cls-36" d="M1.91,17.84h0l-.02,.02h0l.02-.02"/><path class="cls-147" d="M1.87,17.89h0"/><path class="cls-139" d="M1.88,17.89h0"/><path class="cls-11" d="M2.93,18.49h-.01s-.03,.02-.04,.03h.03l.02-.02h0"/><path class="cls-206" d="M2.92,18.49h-.02s-.04,0-.07,0l.05,.03s.03-.02,.04-.03"/><path class="cls-51" d="M2.95,18.47h0l-.02,.02h.01v-.02"/><path class="cls-139" d="M2.94,18.47h-.02s-.01,0-.02,0h.04"/><path class="cls-100" d="M2.15,17.62h0c-.09,.06-.17,.13-.24,.21h.01c.07-.09,.14-.15,.23-.21"/><path class="cls-204" d="M1.92,17.83h0"/><path class="cls-105" d="M2.15,17.62h0c-.08,.06-.16,.13-.23,.2h0s.04-.04,.06-.06h0c.05-.05,.11-.1,.17-.14"/><path class="cls-3" d="M1.98,17.76h0s-.04,.04-.06,.06h0s.04-.04,.06-.06"/><path class="cls-142" d="M1.87,17.91h0l-.02,.03h0s.01-.02,.02-.03"/><path class="cls-207" d="M1.88,17.89h0"/><path class="cls-186" d="M2.83,18.49l-.99-.55s-.02,.03-.03,.04l.86,.47h0s.1,.04,.15,.03"/><path class="cls-78" d="M2.9,18.48l-.06-.03s-.09,0-.13-.03h0l-.85-.47h0l.99,.55s.04,0,.07-.02"/><path class="cls-163" d="M2.92,18.47l-.05-.03h-.03l.06,.03h.02"/><path class="cls-10" d="M2.84,18.44l-.97-.53s-.01,.02-.02,.03l.85,.47h0s.09,.03,.13,.03"/><path class="cls-16" d="M2.87,18.44l-.99-.55h-.01l.97,.55h.03"/><path class="cls-37" d="M2.98,18.46h0"/><path class="cls-170" d="M4.34,16.08l-.46,.83s.07-.05,.1-.08l.34-.62s.03-.09,.02-.14"/><path class="cls-129" d="M3.98,16.83s-.07,.05-.1,.08l-.37,.68s.03,.02,.04,.03l.43-.78"/><path class="cls-80" d="M3.5,17.59l-.34,.61s-.02,.03-.04,.05l-.02,.03s-.05,.06-.08,.08l-.05,.09h0c.05-.02,.1-.05,.15-.09l.41-.75-.04-.03"/><path class="cls-167" d="M2.98,18.45h-.02v.02h.01v-.02"/><path class="cls-75" d="M3.03,18.36h0s-.03,.05-.05,.07h0l.02,.02,.05-.09"/><path class="cls-71" d="M2.97,18.43h0"/><path class="cls-96" d="M2.96,18.45s-.01,.02-.02,.02h0v-.02"/><path class="cls-118" d="M2.96,18.44h0s-.02,.02-.04,.03h.02s.01,0,.02-.02h0"/><path class="cls-181" d="M2.96,18.44h0"/><path class="cls-147" d="M1.9,17.86h0s-.02,.02-.03,.03h0l.03-.03"/><path class="cls-30" d="M1.92,17.84h0l-.02,.02h0l.02-.02"/><path class="cls-172" d="M1.9,17.86h0l-.03,.03h0s.02-.02,.03-.03"/><path class="cls-118" d="M1.9,17.86h0l-.03,.03h0s.02-.02,.03-.03"/><path class="cls-192" d="M1.92,17.84h0s-.01,.01-.02,.02h0l.02-.02"/><path class="cls-181" d="M1.92,17.84h0l-.02,.02h0l.02-.02"/><path class="cls-190" d="M1.92,17.83h0"/><path class="cls-158" d="M1.92,17.83h0"/><path class="cls-151" d="M1.93,17.83h0"/><path class="cls-150" d="M1.98,17.76h0s-.04,.04-.06,.06h0s.04-.04,.06-.06"/><path class="cls-31" d="M1.99,17.76h0s-.04,.04-.06,.06h0s.04-.04,.06-.06"/><path class="cls-113" d="M1.99,17.77h0s-.04,.04-.06,.06h0s.03-.03,.05-.05h.01"/><path class="cls-42" d="M1.91,17.86h0s-.02,.02-.03,.03h0l.03-.03"/><path class="cls-151" d="M1.92,17.84h0l-.02,.02h0l.02-.02h0"/><path class="cls-113" d="M1.93,17.83h0"/><path class="cls-13" d="M1.98,17.78s-.03,.03-.05,.05h0s.03-.03,.05-.05"/><path class="cls-40" d="M3.02,18.36h-.01v.02l-.04,.05h0s.04-.04,.05-.06h0"/><path class="cls-181" d="M3,18.38h0l-.03,.05h0l.03-.05"/><path class="cls-199" d="M2.96,18.44l-.03-.02s-.04,.01-.06,.02l.05,.03s.03-.02,.04-.03"/><path class="cls-18" d="M2.99,18.38s-.04,.03-.07,.04l.03,.02h0l.03-.06"/><path class="cls-84" d="M3.01,18.37h0"/><path class="cls-151" d="M3,18.37h0"/><path class="cls-141" d="M2.93,18.42l-1.02-.56-.03,.03,.99,.55s.04,0,.06-.02"/><path class="cls-107" d="M3,18.37s-.1,.01-.15-.02l-.93-.51-.02,.02,1.02,.56s.05-.02,.07-.04h0"/><path class="cls-27" d="M3.13,18.25s-.04,.03-.06,.04l-.04,.08s.07-.04,.08-.08l.02-.03"/><path class="cls-71" d="M3.07,18.29h0l-.02,.03h0v.02l-.03,.03h0l.04-.08"/><path class="cls-84" d="M3.07,18.29h0l-.03,.05v-.02h.01l.02-.03"/><path class="cls-17" d="M1.99,17.77h0"/><path class="cls-17" d="M1.93,17.83h0"/><path class="cls-2" d="M1.99,17.77h-.01s-.03,.05-.05,.06h0s.04-.04,.06-.06"/><path class="cls-48" d="M3.04,18.34s-.02,.02-.03,.03h.01l.02-.03"/><path class="cls-151" d="M3.06,18.29s-.01,0-.02,0l-.04,.08h0s.02-.02,.03-.03l.03-.05"/><path class="cls-107" d="M3.04,18.29h0l-.04,.08h0l.04-.08"/><path class="cls-55" d="M3.04,18.29s-.03,0-.04,0c-.08,.04-.17,.04-.25,0h0l-.83-.45h0l.93,.51s.1,.03,.15,.02l.04-.08"/><path class="cls-177" d="M3,18.29h-.02c-.07,.03-.16,.03-.22-.01h0l-.82-.45h-.01l.83,.47h0c.08,.04,.17,.04,.25,0"/><path class="cls-193" d="M2.98,18.29s-.05,0-.07-.02l-.92-.5s-.04,.04-.06,.06l.82,.45h0c.07,.04,.15,.04,.22,.01"/><path class="cls-44" d="M4.34,16.06h0l-.48,.86,.02-.02,.45-.83h0"/><path class="cls-114" d="M3.88,16.91l-.02,.02-.36,.66h0l.38-.68"/><path class="cls-176" d="M3.49,17.59l-.36,.66s.03-.03,.04-.05l.34-.61h0"/><path class="cls-73" d="M2.15,17.62h0c-.06,.04-.12,.09-.17,.14h0l.04-.04s.05-.05,.08-.07h0l.05-.03"/><path class="cls-184" d="M2.02,17.72s-.03,.03-.04,.04h0l.04-.04"/><path class="cls-184" d="M2.1,17.66h0s-.06,.04-.08,.07c.03-.02,.05-.05,.08-.07"/><path class="cls-66" d="M2.11,17.66h0s-.06,.04-.08,.07l-.04,.04h0s.08-.07,.12-.11"/><path class="cls-67" d="M2.11,17.66h0s-.08,.06-.12,.1h0s.08-.07,.12-.1"/><path class="cls-13" d="M2.11,17.66h0s-.08,.06-.12,.1h0s.08-.07,.12-.11"/><path class="cls-12" d="M4.31,16.01s-.01,.04-.02,.06l-.14,.26h0l-.37,.67s.06-.05,.08-.08l.48-.86h0s-.01-.03-.02-.05"/><path class="cls-32" d="M3.86,16.93s-.06,.05-.08,.08l-.31,.56,.03,.02,.36-.66"/><path class="cls-201" d="M3.46,17.57l-.4,.72s.04-.02,.06-.04l.37-.66-.03-.02"/><path class="cls-187" d="M4.14,16.33l-.37,.68h0l.37-.67h0"/><path class="cls-173" d="M3.77,17.01h0l-.31,.56h0l.31-.56"/><path class="cls-84" d="M3.46,17.57l-.4,.72h0l.4-.72h0"/><path class="cls-106" d="M4.3,16.01h0l-.02,.04s-.01,.05-.03,.08l-.11,.19v.02l.13-.25s.02-.04,.02-.06h0"/><path class="cls-4" d="M4.15,16.32l-.38,.7h0l.37-.68s0-.01,0-.02"/><path class="cls-145" d="M3.77,17.01h0l-.31,.55h0l.31-.56"/><path class="cls-57" d="M3.46,17.57l-.4,.72h0l.4-.72h0"/><path class="cls-197" d="M4.3,16.01h0l-.02,.04h0l.02-.04h0"/><path class="cls-182" d="M4.3,16l-.02,.03s0,.01,0,.02l.02-.04h0"/><path class="cls-182" d="M4.3,16l-.02,.03h0l.02-.03h0"/><path class="cls-2" d="M2.11,17.66h0s-.08,.07-.12,.11h0s.08-.07,.12-.11"/><path class="cls-25" d="M2.12,17.66h0s-.09,.07-.12,.11h0s.08-.07,.12-.11"/><path class="cls-93" d="M4.28,16.05l-.11,.21s0,.04-.02,.06l.11-.19s.02-.05,.03-.08"/><path class="cls-175" d="M4.17,16.26l-.43,.79,.04-.04,.38-.7s.01-.04,.02-.06"/><path class="cls-130" d="M3.77,17.01l-.04,.04-.28,.5h0l.3-.55"/><path class="cls-166" d="M3.45,17.56h0l-.35,.63h0l-.06,.1h.02l.4-.73h0"/><path class="cls-94" d="M3.1,18.19h0v.03l-.05,.07h0l.06-.1"/><path class="cls-177" d="M3.08,18.23s-.05,.05-.08,.07c.01,0,.03,0,.04,0l.04-.07"/><path class="cls-2" d="M3.1,18.2v.02h0v-.02"/><path class="cls-193" d="M3.09,18.21s-.06,.06-.1,.08h.02s.06-.04,.08-.07h0"/><path class="cls-102" d="M4.28,16.05l-.07,.12h0l-.05,.09h0l.11-.21h0"/><path class="cls-98" d="M4.22,16.17l-.05,.09h0l.05-.08h0"/><path class="cls-136" d="M4.17,16.26l-.43,.79h0l.44-.79h0"/><path class="cls-208" d="M3.73,17.05h0l-.28,.5h0l.28-.5"/><path class="cls-2" d="M3.45,17.56h0l-.35,.64h0l.35-.64"/><path class="cls-77" d="M4.29,16.03l-.05,.09s0,.03-.02,.04l.07-.12s0-.01,0-.02"/><path class="cls-148" d="M4.24,16.13l-.05,.08s0,.02-.01,.04h0l.05-.08s.01-.03,.02-.04"/><path class="cls-82" d="M4.17,16.25l-.44,.81h0l.44-.79h0"/><path class="cls-53" d="M3.73,17.05h0l-.28,.5h0l.28-.5"/><path class="cls-25" d="M3.45,17.56h0l-.36,.66s0-.01,.01-.02l.35-.64"/><path class="cls-77" d="M4.29,16.03l-.05,.09h0l.05-.09h0"/><path class="cls-148" d="M4.24,16.13l-.04,.08h0l.04-.08h0"/><path class="cls-200" d="M4.19,16.21l-.02,.03h0s.01-.02,.01-.03"/><path class="cls-46" d="M4.17,16.24l-.46,.83h.01l.44-.82h0"/><path class="cls-119" d="M3.73,17.06h-.01l-.27,.5h0l.28-.5"/><path class="cls-6" d="M3.45,17.56h0l-.17,.31h0l-.05,.08c-.05,.09-.34,.03-.43-.02l-.68-.27s-.09,.07-.12,.11l.92,.5s.05,.02,.07,.02c.04-.02,.07-.05,.1-.08l.36-.66"/><path class="cls-200" d="M4.19,16.21l-.02,.04h0l.02-.03h0"/><path class="cls-46" d="M4.17,16.24l-.46,.83h0l.46-.83h0"/><path class="cls-119" d="M3.71,17.07h0l-.27,.48h0l.27-.49"/><path class="cls-133" d="M3.44,17.56h0l-.17,.31h0l.17-.31"/><path class="cls-188" d="M3.42,17.54h-.03l-.03-.03c-.12-.05-.24-.09-.37-.1,.07,0,.15,.03,.22,.05,.07,.02,.14,.05,.2,.08h0"/><path class="cls-198" d="M3.39,17.52h0"/><path class="cls-64" d="M3.42,17.54c-.06-.03-.13-.06-.2-.08h0s.08,.03,.12,.04l.07,.03h0"/><path class="cls-69" d="M3.34,17.5s-.08-.03-.12-.04l.06,.02h.03l.03,.02"/><path class="cls-52" d="M3.31,17.49h0"/><path class="cls-165" d="M3.42,17.54l-.07-.03,.07,.04h0"/><path class="cls-70" d="M3.42,17.54h0l-.07-.04h-.03s.07,.02,.11,.04h0"/><path class="cls-41" d="M3.42,17.54s-.07-.03-.11-.05h-.01s.08,.03,.12,.05h0"/><path class="cls-188" d="M2.73,14.77c-.06,.08-.11,.16-.16,.24,.01-.03,.03-.05,.05-.08h0c.03-.06,.07-.12,.11-.17"/><path class="cls-26" d="M2.79,14.7h0s-.04,.05-.06,.07c-.04,.05-.07,.1-.1,.15,.02-.03,.04-.06,.06-.08s.05-.07,.08-.11h0s.02-.03,.03-.04"/><path class="cls-157" d="M4.32,15.55h0l-1.53-.84s-.02,.02-.03,.04l.1,.06s.04,0,.05,.01h0l1.49,.82s-.04-.06-.08-.08"/><path class="cls-196" d="M2.91,14.81s-.03-.01-.05-.01l1.45,.8s.07,.06,.09,.1h.03s0-.04-.02-.07l-1.49-.82h0"/><path class="cls-90" d="M4.42,15.7h-.03s.02,.05,.01,.08c0-.03,.01-.05,.01-.08"/><path class="cls-22" d="M2.63,14.93h0"/><path class="cls-104" d="M2.68,14.85s-.04,.06-.06,.08h0s.04-.05,.06-.08"/><path class="cls-22" d="M2.62,14.94s-.03,.05-.05,.08c-.04,.07-.07,.14-.1,.22,.03-.09,.08-.18,.12-.26l.02-.04h0"/><path class="cls-104" d="M2.61,14.94l-.02,.04s.01-.02,.02-.03h0"/><path class="cls-122" d="M2.62,14.94h0"/><path class="cls-137" d="M2.83,17.12l.03,.03-.02-.02h-.01"/><path class="cls-126" d="M2.85,17.13l.02,.02s.07,.07,.11,.1c.09,.08,.18,.14,.29,.2h0s-.08-.05-.11-.07l-.03-.02s-.08-.06-.12-.1c-.05-.04-.1-.09-.14-.14"/><path class="cls-187" d="M2.99,17.26s.08,.06,.12,.1l.03,.02s-.1-.07-.14-.1h-.02"/><path class="cls-188" d="M3,17.41c-.3-.04-.61,.03-.86,.21h0c.12-.08,.24-.14,.38-.17,.15-.04,.32-.05,.47-.04"/><path class="cls-79" d="M2.53,17.44c-.14,.04-.26,.1-.38,.18h0c.12-.08,.24-.14,.38-.18"/><polyline class="cls-30" points="3.43 17.54 3.43 17.54 3.42 17.54 3.42 17.54 3.42 17.54 3.42 17.54 3.43 17.54"/><polyline class="cls-87" points="3.43 17.54 3.43 17.54 3.43 17.54 3.43 17.54 3.43 17.54"/><path class="cls-64" d="M3.22,17.46c-.22-.07-.46-.08-.69-.01,.22-.06,.46-.06,.68,.01h.01"/><path class="cls-69" d="M3.21,17.45c-.22-.07-.46-.07-.68-.01-.14,.04-.26,.1-.38,.18,.26-.18,.59-.25,.91-.2,.05,0,.1,.02,.15,.04"/><path class="cls-52" d="M3.05,17.42c-.14-.02-.28-.02-.42,0,.1-.02,.19-.02,.29-.02,.04,0,.09,0,.13,.01"/><path class="cls-70" d="M2.63,17.42c-.17,.03-.34,.1-.48,.2h0c.14-.1,.31-.17,.48-.2"/><path class="cls-41" d="M2.93,17.41c-.28-.02-.55,.06-.77,.22h0s.05-.03,.08-.05c.09-.05,.19-.09,.29-.12,.13-.04,.27-.05,.41-.05"/><path class="cls-36" d="M2.22,17.57s-.05,.03-.08,.05h0s.05-.03,.08-.05"/><path class="cls-81" d="M2.51,17.45c-.1,.03-.2,.07-.29,.12,.09-.05,.18-.09,.28-.12h0"/><path class="cls-204" d="M2.5,17.45c-.1,.03-.19,.07-.28,.12-.03,.02-.05,.03-.08,.05h0c.1-.07,.22-.13,.34-.16h.01"/><path class="cls-3" d="M2.49,17.46c-.12,.04-.24,.09-.34,.16h0c.07-.05,.14-.08,.21-.12,.04-.02,.07-.03,.11-.04h.02"/><path class="cls-52" d="M3.28,17.48l-.06-.02h-.02c-.05-.02-.1-.03-.15-.04,.08,.01,.16,.03,.23,.06"/><path class="cls-70" d="M3.3,17.49h-.01c-.08-.03-.15-.05-.23-.07-.04,0-.09-.01-.13-.01,.1,0,.19,.02,.29,.05,.03,0,.06,.02,.09,.03"/><path class="cls-171" d="M3.21,17.46c-.23-.07-.47-.07-.7,0,.02,0,.04-.01,.06-.02,.19-.05,.39-.05,.57,0l.06,.02"/><path class="cls-30" d="M3.14,17.44c-.19-.05-.39-.05-.57,0,.18-.04,.37-.04,.56,0h.02"/><path class="cls-97" d="M2.57,17.44l-.06,.02h0l.07-.02"/><path class="cls-190" d="M3.13,17.44c-.18-.04-.37-.04-.56,0l-.07,.02h-.01c.21-.06,.43-.07,.64-.02h0"/><path class="cls-150" d="M3.13,17.44c-.21-.05-.43-.04-.64,.02h-.02c.21-.06,.43-.07,.64-.03h.01"/><path class="cls-171" d="M3.42,17.54h0s-.08-.04-.12-.05c-.03-.01-.06-.02-.09-.03,.07,.02,.14,.05,.21,.09h0"/><path class="cls-30" d="M3.42,17.54h0c-.07-.04-.14-.06-.21-.09l-.06-.02c.08,.02,.16,.05,.23,.08,.01,0,.03,.02,.04,.02h0"/><path class="cls-179" d="M3.38,17.52c-.07-.04-.15-.06-.23-.08h.02c.06,.03,.13,.05,.19,.08h.02"/><path class="cls-169" d="M3.16,17.44h0"/><path class="cls-169" d="M3.35,17.51c-.06-.03-.12-.05-.19-.07,.06,.02,.12,.04,.18,.06h0"/><path class="cls-101" d="M3.34,17.51c-.06-.03-.12-.05-.18-.06h-.05c.08,0,.16,.03,.23,.07"/><polyline class="cls-135" points="3.42 17.54 3.42 17.54 3.42 17.55 3.42 17.55 3.42 17.55 3.42 17.55 3.42 17.54"/><polyline class="cls-82" points="3.43 17.54 3.43 17.54 3.43 17.54 3.43 17.54 3.43 17.54"/><path class="cls-180" d="M2.36,17.51c-.07,.03-.14,.07-.21,.12h0c.07-.05,.14-.08,.21-.12"/><path class="cls-134" d="M4.41,15.79h0v.02l-.04,.06h.01s.02-.05,.02-.08"/><path class="cls-20" d="M4.38,15.87h0"/><path class="cls-28" d="M4.36,15.87l-.02,.03v.02l.03-.04h0"/><path class="cls-209" d="M2.47,15.24c-.24,.62-.12,1.33,.32,1.83-.15-.17-.27-.38-.34-.6h0c-.14-.4-.13-.84,.02-1.24"/><path class="cls-209" d="M2.45,16.47c.08,.22,.19,.42,.34,.6l.04,.05c-.17-.18-.3-.4-.39-.64m0,0h0"/><path class="cls-8" d="M3.26,17.45h0"/><path class="cls-185" d="M3.42,17.53h0s-.08-.04-.12-.06h0s.08,.04,.12,.06"/><path class="cls-182" d="M3.41,17.53h0s-.08-.04-.12-.06h0s.08,.04,.12,.06"/><path class="cls-115" d="M4.34,15.9v.02s-.01,.03-.02,.04l.03-.05v-.02"/><path class="cls-56" d="M4.33,15.92h0s0,.03,0,.04h0s0-.03,0-.04"/><path class="cls-197" d="M4.33,15.93v.05h0s0-.04,0-.05"/><path class="cls-98" d="M4.32,15.95l-.02,.04h.02s0-.03,0-.04"/><path class="cls-7" d="M2.15,17.62h0l-.05,.03h0s.03-.02,.05-.03"/><path class="cls-1" d="M2.15,17.62h0l-.05,.03h0s.03-.02,.05-.03"/><path class="cls-111" d="M2.15,17.62h0s-.03,.02-.05,.03h0s.03-.02,.05-.03"/><path class="cls-62" d="M2.16,17.62h0l-.05,.03h0s.03-.02,.05-.03"/><path class="cls-2" d="M2.16,17.62h0s-.03,.02-.05,.03h0l.05-.03"/><path class="cls-109" d="M4.29,15.99h0v.04l.02-.03h0"/><path class="cls-168" d="M2.16,17.63h0s-.03,.02-.05,.03h0s.03-.02,.05-.03"/><path class="cls-133" d="M2.16,17.63h0s-.03,.02-.05,.03h0l.05-.03"/><path class="cls-148" d="M4.29,16l-.05,.08s0,.03,0,.04l.05-.09s0-.02,0-.03"/><path class="cls-82" d="M4.24,16.09l-.04,.08s0,.03-.01,.04l.04-.08s0-.03,0-.04"/><path class="cls-45" d="M3.27,17.87s-.02,.02-.03,.02h0c-.05,.1-.34,.05-.43,0l-.64-.26-.05,.03,.68,.27c.09,.05,.38,.11,.43,.02l.05-.08"/><path class="cls-46" d="M4.2,16.16l-.03,.05s0,.02,0,.03l.02-.04s0-.03,0-.04"/><path class="cls-39" d="M4.17,16.21l-.5,.91s.03-.03,.04-.05l.46-.83s0-.02,0-.03"/><path class="cls-125" d="M3.71,17.07s-.03,.03-.04,.05l-.24,.43h.01l.27-.48"/><path class="cls-45" d="M3.44,17.56h-.01l-.19,.33s.02-.01,.03-.02l.17-.31"/><path class="cls-154" d="M2.76,14.74h0s-.06,.07-.08,.11l.03-.04s.03-.05,.05-.07"/><path class="cls-90" d="M2.86,14.79l-.1-.06s-.04,.05-.05,.07l.03-.03,.07,.04h0s.03-.02,.06-.02"/><path class="cls-146" d="M4.31,15.59l-1.45-.8s-.04,0-.06,.02h.01l1.58,.87s-.05-.08-.09-.1"/><path class="cls-134" d="M4.4,15.69l-1.58-.87h-.01l1.23,.67c.08,.04,.15,.11,.2,.19v.02l.17,.09h0s0-.06-.01-.09"/><path class="cls-20" d="M4.41,15.79l-.17-.09h0s.04,.06,.06,.09c.02,.02,.04,.05,.05,.07h0l.03-.06v-.02"/><path class="cls-28" d="M4.25,15.71h0s.04,.05,.06,.07h0s-.03-.05-.06-.07"/><path class="cls-194" d="M4.25,15.71s.04,.05,.06,.07c-.01-.03-.03-.05-.06-.07"/><path class="cls-152" d="M4.37,15.86h0"/><path class="cls-8" d="M2.71,14.81l-.03,.04s-.04,.06-.06,.09h0s.06-.09,.09-.13"/><path class="cls-132" d="M2.59,14.98c-.05,.08-.09,.17-.12,.26-.15,.4-.16,.83-.02,1.24-.16-.48-.12-1.02,.13-1.46l.02-.03"/><path class="cls-8" d="M2.61,14.95s-.01,.02-.02,.03l-.02,.03c-.14,.25-.21,.52-.22,.81,.01-.3,.1-.6,.26-.86h0"/><path class="cls-14" d="M2.8,14.82l-.07-.04-.03,.03s-.06,.09-.09,.13h0s.04-.07,.07-.1h.01s.07-.04,.11-.02"/><path class="cls-174" d="M2.81,14.82h0s-.08,0-.11,.03l.06,.04h0l.02-.04s.01-.02,.02-.03"/><path class="cls-60" d="M4.03,15.49l-1.23-.68s-.02,.02-.02,.03l-.02,.04h.02l1.46,.81v-.02c-.05-.08-.12-.14-.2-.19"/><path class="cls-24" d="M2.35,15.82c0,.22,.02,.44,.1,.65h0c.08,.24,.21,.46,.39,.64h.01c-.06-.05-.12-.13-.17-.2-.15-.21-.25-.46-.29-.72-.02-.13-.03-.25-.03-.38"/><path class="cls-14" d="M3.15,17.39s.07,.05,.11,.07h0s-.07-.05-.1-.07m-.48-.47c.05,.08,.11,.15,.17,.22,.05,.05,.09,.09,.14,.14-.12-.1-.23-.22-.32-.35m-.07-1.96c-.16,.26-.24,.56-.25,.86,0,.13,0,.25,.03,.38-.06-.34-.02-.69,.11-1.01,.02-.04,.04-.08,.06-.12h0l.03-.06,.03-.05h0"/><path class="cls-174" d="M3.25,17.45h0"/><path class="cls-28" d="M4.3,15.78s.02,.04,.02,.06l.03,.02s-.03-.05-.05-.07m-.07-.09l-1.46-.81h-.02l1.44,.79s.03,.02,.04,.03h0"/><path class="cls-161" d="M2.54,15.07h0s-.04,.08-.05,.12c.02-.04,.03-.08,.05-.12"/><path class="cls-194" d="M4.3,15.78s.02,.04,.02,.06h0s-.01-.04-.02-.06h0m-.1-.1l-1.44-.8,1.44,.79s.03,.02,.05,.03h0s-.03-.02-.05-.03"/><path class="cls-38" d="M2.7,14.85h-.01s-.04,.06-.07,.09h0l.03-.05h.01l.02-.03h0"/><path class="cls-124" d="M2.76,14.88l-.07-.04h0l-.02,.05h0s.06-.03,.09-.02"/><path class="cls-4" d="M2.76,14.88h0s-.07,0-.09,.02l.06,.03,.03-.05"/><path class="cls-99" d="M4.2,15.68l-1.44-.8-.03,.05,1.44,.8h0s.06,.04,.08,.07l.06,.03s-.01-.04-.02-.06c-.02-.03-.04-.05-.06-.07-.01-.01-.03-.02-.05-.03"/><path class="cls-38" d="M2.6,14.96s-.02,.03-.03,.05-.02,.04-.03,.06h0l.02-.04h0v-.02h.02l.02-.05"/><path class="cls-86" d="M2.38,16.2c.05,.26,.15,.5,.29,.72-.15-.21-.25-.46-.29-.72"/><path class="cls-38" d="M2.49,15.19c-.3,.73-.1,1.57,.5,2.08h.02c.05,.05,.09,.09,.14,.11,.03,.02,.07,.04,.1,.06-.04-.02-.08-.05-.11-.07-.71-.48-.97-1.4-.65-2.19"/><path class="cls-124" d="M3.14,17.38s.07,.05,.11,.07h.03c-.05-.02-.1-.05-.15-.08"/><path class="cls-99" d="M2.55,15.07h0s-.04,.08-.06,.12c-.33,.79-.06,1.7,.65,2.19-.07-.05-.13-.09-.19-.15-.6-.54-.76-1.41-.42-2.13v-.03"/><path class="cls-93" d="M2.95,17.23c.06,.05,.12,.1,.19,.15,.05,.03,.1,.06,.15,.09h0c-.12-.07-.24-.15-.34-.24m-.6-1.29c0,.26,.07,.52,.19,.76-.12-.24-.18-.5-.19-.76"/><path class="cls-93" d="M2.67,14.9h-.01l-.03,.04h0l.02-.03h.02"/><path class="cls-197" d="M2.67,14.9h0"/><path class="cls-197" d="M2.66,14.91h0"/><path class="cls-185" d="M2.73,14.94l-.06-.03h0v.02l.05,.03h.02"/><path class="cls-102" d="M4.19,15.74h0l-1.45-.8v.02l1.51,.84h.02s-.05-.04-.08-.06"/><path class="cls-161" d="M2.62,14.94h0v0"/><path class="cls-161" d="M2.62,14.94h0v.02h-.01l.02-.02"/><path class="cls-99" d="M2.63,14.94h0l-.02,.03-.02,.03h0l.02-.04h.02"/><path class="cls-197" d="M2.59,15h0v.04h-.01v-.02h.02"/><path class="cls-102" d="M2.54,16.69c.1,.2,.24,.38,.4,.53-.17-.15-.3-.33-.4-.53m-.01-1.59c-.13,.26-.19,.55-.18,.83,0-.22,.03-.44,.1-.65h0c.02-.06,.05-.12,.08-.18"/><path class="cls-182" d="M2.45,15.28h0c-.3,.83,.06,1.76,.83,2.18h0c-.25-.14-.47-.34-.63-.58-.04-.05-.07-.11-.1-.17-.18-.35-.25-.75-.18-1.14h0c.02-.1,.04-.2,.08-.3"/><path class="cls-98" d="M2.38,15.58h0c-.07,.39,0,.79,.18,1.14-.18-.35-.25-.75-.18-1.14"/><path class="cls-88" d="M2.66,16.89c.16,.24,.38,.44,.63,.58,.04,.02,.08,.04,.12,.06h0s-.08-.04-.12-.06h-.02c-.24-.15-.44-.34-.6-.57"/><path class="cls-109" d="M3.26,17.45h0"/><path class="cls-88" d="M2.56,16.72c.03,.06,.06,.11,.1,.17l-.03-.05s-.05-.08-.07-.12"/><path class="cls-109" d="M2.35,15.92c0,.28,.07,.56,.2,.81,.02,.04,.05,.08,.07,.12-.17-.28-.27-.6-.27-.93"/><path class="cls-109" d="M3.4,17.53h-.01s-.07-.03-.1-.05h0s.08,.04,.12,.06m-.78-.69s.02,.03,.03,.05c.15,.23,.36,.42,.6,.56-.26-.15-.47-.35-.63-.6"/><path class="cls-29" d="M2.44,16.43c.05,.15,.11,.28,.19,.41,.16,.25,.37,.46,.63,.6l.03,.02s.07,.04,.1,.05c-.03-.01-.06-.03-.09-.05h0c-.41-.22-.71-.6-.85-1.04"/><path class="cls-148" d="M3.42,17.53h0"/><path class="cls-82" d="M3.42,17.53h0"/><path class="cls-65" d="M4.36,15.86l-.03-.02s0,.02,0,.03c0,0,0,.02,.01,.03l.02-.03h0"/><path class="cls-162" d="M4.33,15.84h0s0,.02,0,.03h0s0-.02,0-.03"/><path class="cls-175" d="M4.33,15.84l-.06-.03h0s.05,.04,.07,.07c0-.01,0-.02,0-.03"/><path class="cls-93" d="M2.63,14.94h-.02l-.02,.05h0l.03-.06"/><path class="cls-185" d="M2.59,15h-.01v.04h0l.02-.03h0"/><path class="cls-102" d="M2.63,14.94h0l-.03,.06h0l.03-.06"/><path class="cls-109" d="M2.6,15h0l-.02,.04h0v-.02h.02"/><path class="cls-185" d="M2.66,14.92h-.01l-.02,.03h.02v-.02"/><path class="cls-102" d="M2.66,14.92h0v.02h0v-.02"/><path class="cls-98" d="M2.71,14.95l-.05-.03v.02s.03,0,.05,0"/><path class="cls-194" d="M4.33,15.88s0,.03,0,.05v-.02s0-.02,0-.03"/><path class="cls-99" d="M4.33,15.88s0,.03,0,.05h0s0-.03,0-.05h0"/><path class="cls-155" d="M4.27,15.81s.05,.09,.05,.15v-.03s.02-.03,.01-.05c-.02-.03-.04-.05-.07-.07"/><path class="cls-102" d="M2.64,14.94h0"/><path class="cls-98" d="M2.65,14.94h0"/><path class="cls-109" d="M2.73,14.96h-.01s-.04-.02-.06-.02h0l.07,.05,.02-.03"/><path class="cls-109" d="M4.26,15.81l-1.54-.85-.02,.03,1.44,.79h0c.07,.04,.12,.12,.13,.2h0l.02-.03c0-.05-.02-.1-.05-.15h0"/><path class="cls-109" d="M2.64,14.95h0l-.03,.06h.01l.03-.05"/><path class="cls-148" d="M2.61,15.01h-.02v.03h0l.02-.03"/><polyline class="cls-77" points="2.64 14.95 2.64 14.95 2.61 15.01 2.61 15.01 2.64 14.95"/><polyline class="cls-148" points="2.61 15.01 2.61 15.01 2.59 15.04 2.59 15.04 2.61 15.01"/><polyline class="cls-148" points="2.71 14.99 2.64 14.95 2.61 15.01 2.67 15.04 2.71 14.99"/><path class="cls-148" d="M4.16,15.79h0l-1.44-.8-.03,.06,1.44,.8s.08,.06,.1,.1l.03,.02h0s.03,.02,.04,.03c0-.08-.05-.16-.13-.2"/><polyline class="cls-82" points="2.67 15.04 2.61 15.01 2.59 15.04 2.65 15.08 2.67 15.04"/><path class="cls-82" d="M4.11,15.84l-1.44-.8-.02,.04,1.56,.86s-.06-.08-.1-.1"/><path class="cls-148" d="M3.4,17.52h0s-.06-.03-.09-.05h0s.06,.03,.09,.05h0"/><path class="cls-46" d="M3.42,17.53h0"/><path class="cls-46" d="M3.43,17.53l-.04-.02h.03"/><path class="cls-82" d="M3.39,17.52l-.03-.02s-.05-.02-.07-.04h0s.06,.03,.09,.05"/><path class="cls-39" d="M3.43,17.53l-.06-.03,.03,.02,.04,.02h0"/><path class="cls-110" d="M2.47,17.46s-.08,.03-.11,.04c.03-.02,.07-.03,.1-.04h0"/><path class="cls-73" d="M3.11,17.43c-.21-.05-.43-.04-.64,.03h0c.21-.07,.43-.08,.64-.03h0"/><path class="cls-100" d="M3.42,17.54l-.05-.02,.04,.02h0"/><path class="cls-95" d="M3.42,17.54l-.04-.02h-.02s.05,.01,.07,.02h0"/><path class="cls-150" d="M3.42,17.54s-.04-.02-.07-.03h0s.05,.02,.07,.04h0"/><path class="cls-66" d="M3.42,17.54s-.05-.02-.07-.04c-.07-.03-.15-.06-.23-.08h0c.1,.02,.21,.05,.3,.1h.01"/><path class="cls-62" d="M3.42,17.54h0"/><path class="cls-76" d="M3.42,17.55h0"/><path class="cls-124" d="M2.57,15.03h0s-.01,.03-.02,.04h0l.02-.04"/><path class="cls-93" d="M2.55,15.07h0v0"/><path class="cls-185" d="M2.57,15.03h0l-.02,.04h0s.01-.03,.02-.04"/><path class="cls-182" d="M2.55,15.07h0s0,.02-.01,.03c-.03,.06-.06,.12-.08,.19h0v-.02h0c.02-.07,.05-.13,.09-.2"/><path class="cls-88" d="M2.46,15.27h0c-.03,.1-.06,.2-.08,.3h0c.02-.1,.04-.2,.08-.3"/><path class="cls-109" d="M2.38,15.58h0c-.02,.11-.03,.22-.03,.34,0-.11,0-.23,.03-.34"/><path class="cls-109" d="M2.46,15.27h0c-.04,.1-.06,.2-.08,.3h0c.02-.1,.04-.2,.08-.3"/><path class="cls-77" d="M2.38,15.58h0c-.05,.28-.03,.58,.06,.85-.09-.28-.1-.57-.06-.85"/><path class="cls-148" d="M2.35,15.89c0,.18,.03,.36,.08,.53,.14,.44,.45,.81,.85,1.04h0c-.57-.32-.93-.92-.93-1.57"/><path class="cls-102" d="M2.58,15.04h0s-.01,.03-.02,.04h0s.01-.03,.02-.04"/><path class="cls-88" d="M2.56,15.07h0c-.03,.06-.06,.13-.08,.19h0s.03-.08,.04-.11h0s.02-.03,.02-.05c0-.01,.01-.02,.02-.03"/><path class="cls-109" d="M2.52,15.16h0s-.03,.07-.04,.1l.03-.05s.01-.03,.02-.05"/><path class="cls-109" d="M2.47,15.25h0v.02h0v-.02"/><path class="cls-29" d="M2.5,15.2l-.03,.05h0l.03-.04h0"/><path class="cls-29" d="M2.47,15.26h0c-.03,.11-.06,.21-.08,.31h0c.02-.1,.05-.21,.08-.31"/><path class="cls-148" d="M2.38,15.58h0c-.02,.11-.03,.21-.03,.32,0-.11,0-.22,.03-.32"/><path class="cls-148" d="M2.49,15.22l-.03,.05c-.04,.1-.06,.2-.08,.31v-.02c.03-.11,.07-.23,.11-.33"/><path class="cls-148" d="M2.39,15.55v.02c-.03,.11-.04,.21-.04,.32,0,.65,.36,1.26,.93,1.57h0c-.68-.38-1.04-1.15-.9-1.92"/><path class="cls-77" d="M2.58,15.04h0s-.01,.03-.02,.04h0s.01-.03,.02-.04"/><path class="cls-148" d="M2.56,15.07h0l-.02,.03,.02-.03"/><path class="cls-119" d="M3.44,17.54h0"/><path class="cls-67" d="M2.47,17.47s-.07,.03-.1,.04c-.07,.03-.14,.07-.21,.12h0c.1-.07,.2-.12,.31-.16"/><path class="cls-191" d="M3.11,17.43c-.21-.05-.43-.03-.64,.03-.11,.04-.22,.09-.31,.16h0s.03-.02,.05-.03h0c.09-.06,.19-.1,.29-.13,.18-.05,.37-.07,.56-.04h.06"/><path class="cls-62" d="M2.2,17.59h0l-.05,.03h0s.03-.02,.05-.03m.84-.17c-.19-.03-.38-.02-.56,.04,.13-.04,.27-.06,.4-.05h.08s.06,0,.08,0"/><path class="cls-76" d="M2.21,17.59h0s-.03,.02-.05,.03h0l.05-.03m.76-.18h0"/><path class="cls-2" d="M2.21,17.59h0l-.05,.03h0s.03-.02,.05-.03"/><path class="cls-111" d="M2.49,17.46c-.1,.03-.2,.07-.29,.13h0c.09-.06,.19-.1,.29-.13"/><path class="cls-62" d="M2.89,17.41c-.24,0-.48,.06-.69,.18h0c.21-.13,.44-.19,.68-.19"/><path class="cls-76" d="M2.93,17.41h-.05c-.24,0-.48,.05-.68,.18h0c.17-.1,.36-.17,.55-.18,.06,0,.12,0,.17,0"/><path class="cls-2" d="M2.76,17.41c-.2,.02-.39,.08-.55,.18h0c.17-.1,.36-.16,.55-.18"/><path class="cls-29" d="M4.29,15.99s0,.01,0,.02h0v-.02"/><path class="cls-76" d="M3.41,17.54c-.1-.05-.2-.08-.3-.1h-.06c.11,0,.22,.04,.32,.09l.04,.02"/><path class="cls-85" d="M3.41,17.54h0l-.04-.02,.04,.02h0"/><path class="cls-85" d="M3.37,17.52c-.1-.05-.21-.08-.32-.1-.03,0-.05,0-.08,0,.14,.01,.28,.05,.4,.11"/><path class="cls-131" d="M3.41,17.54l-.04-.02c-.13-.06-.26-.09-.4-.11h-.03c.07,0,.13,.01,.2,.03,.08,.02,.16,.04,.23,.08l.04,.02"/><path class="cls-193" d="M2.21,17.59h0s-.03,.02-.05,.03h0l.05-.03m1.15-.08c-.07-.03-.15-.06-.23-.08,.06,.01,.11,.03,.16,.05,.02,0,.05,.02,.07,.03"/><path class="cls-131" d="M3.13,17.44c-.06-.01-.13-.02-.2-.03-.06,0-.12,0-.17,0,.12,0,.25,0,.37,.03"/><path class="cls-193" d="M3.29,17.49c-.05-.02-.11-.04-.16-.05-.31-.07-.64-.02-.92,.15h0c.24-.15,.52-.21,.8-.17,.1,.01,.19,.03,.29,.07"/><path class="cls-133" d="M2.21,17.6h0l-.05,.03h0l.05-.03"/><path class="cls-133" d="M3.01,17.42c-.28-.03-.56,.03-.8,.17h0c.24-.15,.52-.21,.79-.18"/><path class="cls-29" d="M2.54,15.11l-.02,.05h0s.02-.04,.02-.05"/><path class="cls-148" d="M2.52,15.16h0s-.01,.03-.02,.05h0s.01-.03,.02-.04"/><path class="cls-82" d="M2.49,15.21h0c-.04,.11-.08,.22-.1,.33h0c.02-.11,.06-.22,.1-.33"/><path class="cls-200" d="M2.4,15.55h0c-.15,.77,.22,1.54,.9,1.92,.02,.01,.05,.03,.07,.04l-.06-.04h0c-.69-.38-1.05-1.15-.91-1.92"/><path class="cls-34" d="M3.42,17.55h0"/><path class="cls-205" d="M3.42,17.55h-.02l-.04-.03,.06,.03h0"/><path class="cls-58" d="M3.42,17.55l-.06-.03s-.05-.02-.07-.03c.04,.02,.09,.04,.13,.06h0"/><path class="cls-58" d="M3.43,17.55h0s-.09-.04-.13-.06c-.09-.03-.19-.06-.29-.07,.15,.02,.29,.06,.42,.13h0"/><path class="cls-29" d="M2.59,15.04h-.01l-.02,.03h0l.02-.03"/><polyline class="cls-82" points="2.59 15.04 2.59 15.04 2.56 15.08 2.57 15.08 2.59 15.04"/><path class="cls-148" d="M4.25,15.96l-.03-.02s.03,.1,.03,.15l.05-.08s0-.01,0-.02c-.01-.01-.03-.02-.04-.03"/><polyline class="cls-200" points="2.65 15.08 2.59 15.04 2.57 15.08 2.63 15.12 2.65 15.08"/><path class="cls-46" d="M4.21,15.94l-1.56-.86-.02,.04,1.44,.8c.09,.05,.14,.15,.13,.25l.04-.08c0-.05,0-.1-.03-.15"/><path class="cls-49" d="M3.24,17.89c-.09,.05-.32,0-.4-.04l-.63-.25-.05,.03,.64,.26c.09,.05,.38,.1,.43,.02h0"/><path class="cls-200" d="M2.56,15.08h0l-.02,.02-.02,.05h0l.04-.08"/><path class="cls-46" d="M2.53,15.16h0s-.01,.03-.02,.04l.02-.04"/><polyline class="cls-46" points="2.57 15.08 2.56 15.08 2.52 15.16 2.52 15.16 2.57 15.08"/><path class="cls-39" d="M2.53,15.16h0l-.02,.04h0l.03-.04"/><polyline class="cls-39" points="2.63 15.12 2.57 15.08 2.52 15.16 2.59 15.2 2.63 15.12"/><path class="cls-39" d="M4.07,15.91l-1.44-.8-.04,.08,1.45,.8h0c.08,.04,.13,.13,.13,.22l.03-.05c.01-.1-.04-.2-.13-.25"/><path class="cls-39" d="M2.59,15.2l-.06-.04-.03,.05c-.04,.11-.08,.22-.1,.33l.19-.35"/><path class="cls-39" d="M4.03,16h0l-1.44-.8-.19,.35c-.14,.77,.22,1.54,.91,1.92h0l.06,.04,.06,.03h0c.02-.06,.05-.12,.09-.18,.04-.08,.1-.16,.15-.23l.5-.91c0-.09-.06-.18-.14-.22"/><path class="cls-92" d="M3.67,17.12c-.1,.12-.18,.26-.24,.41h0l.24-.42"/><path class="cls-49" d="M3.43,17.55h0c-.38-.2-.85-.18-1.22,.04l.63,.25c.08,.04,.31,.09,.4,.04l.19-.34"/><path class="cls-108" d="M2.02,14.37l2.23,1.23c.12,.07,.17,.22,.1,.34h0l-1.23,2.23c-.07,.12-.22,.17-.34,.1h0l-2.23-1.23c-.12-.07-.17-.22-.1-.35h0l1.23-2.23c.07-.12,.22-.17,.35-.1h0Z"/><path class="cls-9" d="M2.1,16.14c-.04-.06-.06-.14-.06-.21,0-.08,.02-.15,.06-.22,.05-.09,.13-.16,.22-.2,.1-.04,.21-.04,.31-.02,.12,.02,.23,.07,.34,.12,.14,.07,.27,.17,.38,.29l-.16,.29c-.04-.07-.09-.13-.14-.18-.06-.06-.13-.11-.2-.15-.08-.05-.16-.07-.25-.08-.07,0-.13,.03-.16,.09-.02,.03-.02,.08-.01,.11,.01,.05,.03,.09,.06,.13,.03,.04,.08,.11,.15,.19l.02,.03c.07,.08,.13,.16,.18,.25,.09,.14,.09,.32,0,.47-.05,.1-.13,.17-.23,.22-.09,.04-.2,.05-.3,.03-.12-.02-.23-.07-.34-.12-.1-.05-.19-.11-.27-.18-.07-.06-.14-.12-.2-.19l.17-.31c.04,.09,.1,.17,.17,.24,.07,.07,.15,.13,.23,.18,.08,.05,.17,.08,.26,.08,.06,0,.12-.04,.15-.09,.02-.04,.03-.09,.01-.13-.01-.05-.04-.1-.07-.15-.04-.05-.09-.13-.17-.23-.06-.08-.12-.16-.16-.24Z"/><path class="cls-143" d="M29.78,22.05c-.64,.77-1.78,.87-2.55,.23-.77-.64-.87-1.78-.23-2.55,.64-.77,1.78-.87,2.55-.23h0c.77,.64,.87,1.78,.23,2.55"/><path class="cls-140" d="M27.26,22.16c-.55,.66-1.52,.75-2.18,.2-.66-.55-.75-1.52-.2-2.18,.55-.66,1.52-.75,2.18-.2,.66,.55,.75,1.53,.2,2.18"/><path class="cls-159" d="M26.87,19.88c-.44,.53-1.22,.6-1.74,.16s-.6-1.22-.16-1.74c.44-.53,1.22-.6,1.74-.16,.53,.44,.6,1.22,.16,1.74h0"/><path class="cls-74" d="M28.46,21.33l.09-.11s-.04,0-.06-.01l-.02,.03h0c-.07,.08-.19,.09-.27,.02l-.64-.53s.02,.08,.03,.12l.61,.51c.08,.07,.19,.06,.26-.02"/><path class="cls-128" d="M27.58,20.84s-.02-.08-.03-.12l-.83-.69-.05,.05,.92,.76"/><path class="cls-54" d="M26.72,20.03l-.66-.55h0s-.02-.02-.02-.02c.05,.11,.12,.2,.22,.27l.42,.35s.04-.03,.05-.04"/><path class="cls-21" d="M27.06,18.58h0c-.05-.11-.11-.2-.18-.29h0c.07,.09,.13,.19,.18,.29"/><path class="cls-188" d="M26.65,18.08h0s-.04-.03-.07-.05c.02,.01,.05,.03,.07,.05"/><path class="cls-33" d="M25.97,19.14s0-.03,.02-.05c-.04-.09-.02-.19,.04-.26h0l.62-.75s-.05-.03-.07-.05h0l-.62,.75h0c-.09,.11-.08,.27,.02,.36h0"/><path class="cls-33" d="M26.04,19.45h0"/><path class="cls-116" d="M28.47,21.23l.02-.02s-.03-.02-.04-.03l-.03-.02v.02h-.01c-.07,.08-.19,.09-.27,.02l-.59-.5h0l.64,.54c.08,.07,.2,.06,.27-.02"/><path class="cls-153" d="M27.56,20.72h0l-.83-.7h0l.83,.69"/><path class="cls-63" d="M26.73,20.02l-.69-.58h0s.02,.02,.03,.03h0l.66,.55h0"/><path class="cls-33" d="M26.03,19.44s-.04-.1-.03-.15c-.01-.02-.02-.03-.03-.05-.03,.07,0,.16,.06,.21"/><path class="cls-123" d="M26.04,19.45s-.02-.09,0-.13c-.01,0-.02-.02-.03-.03-.01,.05,0,.11,.03,.15h0"/><path class="cls-90" d="M28.41,21.18h0v-.02l-.05-.06c-.07,.08-.18,.09-.26,.02l-.55-.46,.02,.05,.59,.49c.08,.07,.2,.06,.27-.02"/><path class="cls-156" d="M27.55,20.71l-.02-.05-.79-.66-.02,.02,.83,.69"/><path class="cls-91" d="M26.75,20l-.43-.36c-.08-.07-.14-.15-.18-.24l-.11-.09h0s-.01,.08,0,.12l.69,.58,.02-.02"/><path class="cls-189" d="M28.72,21.16l1.12-1.34s-.02-.03-.03-.04l-1.11,1.34h0s-.06,.05-.09,.06l-.04,.05c.06,0,.13-.02,.17-.07"/><path class="cls-203" d="M28.55,21.22l.04-.05s-.05,.01-.08,0l-.02,.03s.04,.01,.06,.02"/><path class="cls-196" d="M28.49,21.21l.02-.03s-.05-.01-.07-.03h0l.02,.03s.03,.02,.04,.03"/><path class="cls-117" d="M27.09,19.63s-.06,.07-.09,.1h0l-.06,.07-.02,.02h0s.05-.06,.08-.09,.06-.06,.09-.1h0"/><path class="cls-189" d="M26.9,19.85s.03-.04,.04-.06l.05-.06h.01s.05-.07,.07-.09c-.03,.03-.06,.06-.09,.1s-.06,.07-.08,.1h0"/><path class="cls-157" d="M26.95,19.79l.04-.05h0l-.05,.05"/><path class="cls-202" d="M28.42,21.16h0s-.04-.03-.06-.04h-.02l.07,.04"/><path class="cls-5" d="M26.88,18.29h0c-.05-.06-.1-.11-.16-.16l-.06-.05h0l.05,.05h.01l.04,.04h0l.05,.05h0s.04,.04,.05,.06c0,0,.01,.01,.02,.02"/><path class="cls-47" d="M27.06,18.58h0c-.05-.11-.11-.2-.18-.29h0c.07,.09,.13,.19,.18,.29"/><path class="cls-68" d="M26.71,18.14h-.01l-.05-.05h0s.04,.03,.06,.05h0"/><path class="cls-50" d="M25.98,19.1s.02-.03,.03-.04l.02-.02c0-.05,.02-.1,.06-.14h0l.63-.75h0l-.06-.05-.62,.74h0c-.06,.08-.08,.18-.04,.27"/><path class="cls-144" d="M26.75,18.17h0l-.04-.03h0s.03,.02,.04,.03"/><path class="cls-127" d="M26.75,18.17h0s-.02-.02-.04-.03h0l.04,.03"/><path class="cls-11" d="M26.03,19.03l.72-.87-.04-.03-.63,.75h0s-.05,.09-.06,.14"/><path class="cls-68" d="M26.86,18.27s-.03-.04-.05-.06h0s.04,.04,.05,.06"/><path class="cls-43" d="M28.36,21.1h0s-.08,0-.11-.01l-.08-.06s-.09-.01-.13-.04l-.54-.45s.04,.08,.05,.13l.55,.46c.08,.07,.2,.06,.26-.02"/><path class="cls-59" d="M27.54,20.66s-.03-.09-.05-.13l-.69-.57-.05,.05,.79,.66"/><path class="cls-112" d="M26.8,19.96l-.66-.55c.04,.09,.11,.17,.18,.24l.43,.36,.05-.05"/><polyline class="cls-138" points="28.36 21.1 28.35 21.1 28.35 21.1 28.36 21.1 28.36 21.1"/><path class="cls-174" d="M28.35,21.1l-.03-.03c-.05,0-.1-.01-.14-.04h-.02l.08,.06s.08,.02,.11,0"/><polyline class="cls-72" points="28.35 21.1 28.32 21.07 28.32 21.07 28.35 21.1 28.35 21.1"/><path class="cls-15" d="M29.53,19.49c-.68-.56-1.66-.55-2.33,.02h0s-.08,.07-.12,.11c.12-.12,.25-.22,.39-.31,.58-.33,1.29-.32,1.86,.03,.07,.04,.13,.09,.19,.14"/><path class="cls-19" d="M27.48,19.32c-.06,.03-.12,.07-.17,.11-.08,.06-.15,.12-.22,.19h0c.09-.09,.2-.18,.31-.25l.03-.02,.06-.03"/><path class="cls-121" d="M26.9,19.85h0l.03-.05h0s-.03,.03-.04,.05h0m.49-.48c-.11,.07-.22,.16-.31,.26-.02,.03-.05,.05-.07,.08h0c.08-.09,.16-.18,.25-.25,.04-.03,.08-.06,.13-.09"/><path class="cls-23" d="M26.9,19.85h0s.02-.03,.03-.05c-.01,.02-.02,.03-.04,.05"/><path class="cls-23" d="M26.94,19.8s.04-.04,.05-.07h0v-.02h.01l-.02,.02h0l-.04,.06h0"/><path class="cls-149" d="M26.91,19.84s.05-.07,.08-.11h0s-.04,.04-.05,.06-.02,.03-.03,.04"/><path class="cls-4" d="M26.91,19.85h0s.05-.07,.08-.11h0s-.06,.07-.08,.11h0"/><path class="cls-175" d="M26.91,19.85h0s.05-.07,.08-.11c-.03,.03-.06,.07-.08,.11"/><path class="cls-103" d="M28.32,21.07l-.04-.04h-.02l-.02-.02s-.03,.01-.05,.02c.04,.03,.09,.05,.14,.04"/><path class="cls-160" d="M28.32,21.07l-.04-.04h0l.04,.04h0"/><path class="cls-35" d="M28.27,21.03h0"/><path class="cls-93" d="M28.27,21.03h0"/><path class="cls-93" d="M28.27,21.03h0"/><path class="cls-35" d="M28.25,21.02h0"/><path class="cls-93" d="M28.25,21.02h0"/><path class="cls-102" d="M28.26,21.02l-.02-.02h.02"/><path class="cls-102" d="M28.26,21.02l-.02-.02h0l.02,.02h0"/><path class="cls-33" d="M25.97,19.23s.02-.04,.03-.06l-.04-.03h0s0,.06,0,.09"/><path class="cls-123" d="M26.01,19.17h0v-.02s-.01-.04-.02-.06c0,.01-.01,.03-.02,.05h0l.04,.03"/><path class="cls-123" d="M26,19.29s.02-.05,.04-.08h0l-.04-.04s-.03,.04-.03,.06c0,.02,.02,.04,.03,.05"/><path class="cls-183" d="M26.04,19.2h.01v-.02h0s-.02-.02-.03-.03v.02h-.01l.04,.03"/><path class="cls-183" d="M26.03,19.32v-.02l.06-.05h0l-.04-.04h0s-.03,.05-.04,.08c0,.01,.02,.02,.03,.03"/><path class="cls-112" d="M26.14,19.41c-.03-.05-.04-.11-.06-.16l-.05,.05v.02h0l.11,.09"/><path class="cls-37" d="M26.08,19.24v-.03l-.02-.02h-.01l.04,.04"/><path class="cls-68" d="M26.81,18.21h0s-.04-.04-.05-.05h0s.04,.03,.05,.05m.07,.08h0l-.02-.02s.01,.01,.02,.02"/><path class="cls-52" d="M27.06,18.59h0c-.05-.11-.11-.2-.18-.29h0c.07,.09,.14,.19,.18,.29"/><path class="cls-37" d="M26.02,19.16l.02-.02s-.02-.07-.01-.1l-.02,.02s-.02,.03-.03,.04c0,.02,.02,.04,.04,.06"/><path class="cls-127" d="M26.8,18.22h0s-.04-.04-.05-.05h0l.05,.05"/><path class="cls-178" d="M26.8,18.22h0l-.05-.05h0s.04,.03,.05,.05"/><path class="cls-51" d="M26.04,19.13l.04-.04c0-.05,.02-.1,.06-.15h0l.63-.75,.04,.03h0l-.05-.06-.72,.87s0,.07,.01,.1"/><path class="cls-165" d="M26.88,18.29h0l-.02-.02s-.03-.04-.05-.06h0s.05,.05,.07,.08"/><path class="cls-70" d="M27.06,18.59h0c-.05-.11-.11-.21-.18-.29h0c.07,.09,.13,.19,.18,.29"/><path class="cls-178" d="M26.88,18.29h0s-.05-.05-.07-.08h0l.03,.04h0s.03,.03,.04,.04"/><path class="cls-171" d="M27.06,18.59h0c-.05-.11-.11-.21-.18-.29h0l.02,.02h0c.07,.08,.12,.18,.17,.27"/><path class="cls-120" d="M26.84,18.25h0l-.03-.04h0s.02,.02,.03,.04"/><path class="cls-206" d="M26.83,18.26h0s-.02-.02-.03-.04h0v.02h0l.02,.03"/><path class="cls-120" d="M26.88,18.29h0s-.03-.03-.04-.04h.01l.03,.04"/><path class="cls-36" d="M26.89,18.32h0v-.02h-.01l.02,.02"/><path class="cls-147" d="M26.85,18.27h0"/><path class="cls-139" d="M26.85,18.27h0"/><path class="cls-11" d="M26.06,19.19h0s-.02-.04-.02-.06l-.02,.02s.02,.02,.03,.03h0"/><path class="cls-206" d="M26.06,19.18l.02-.02s0-.04,0-.06l-.03,.04s.01,.03,.02,.05"/><path class="cls-51" d="M26.07,19.21h0v-.03h-.02l.02,.03"/><path class="cls-139" d="M26.07,19.2h.01v-.03l-.02,.02v.02"/><path class="cls-100" d="M27.06,18.59h0c-.04-.1-.1-.19-.17-.27h0c.06,.09,.11,.18,.15,.27"/><path class="cls-204" d="M26.9,18.33h0"/><path class="cls-105" d="M27.06,18.59h0c-.04-.09-.09-.18-.15-.26h0s.03,.05,.05,.07h0c.04,.06,.07,.13,.1,.19"/><path class="cls-3" d="M26.95,18.39h0s-.03-.05-.05-.07h0s.04,.05,.05,.07"/><path class="cls-142" d="M26.83,18.26h0l-.02-.03h0l.02,.03"/><path class="cls-207" d="M26.84,18.27h0"/><path class="cls-186" d="M26.07,19.1l.72-.87s-.02-.02-.04-.03l-.63,.75h0s-.06,.09-.06,.15"/><path class="cls-78" d="M26.08,19.16l.04-.05s.03-.09,.06-.12h0l.62-.75h0l-.72,.86s0,.05,0,.07"/><path class="cls-163" d="M26.08,19.18l.04-.04s0-.02,0-.03l-.04,.05s0,.01,0,.02"/><path class="cls-10" d="M26.12,19.11l.7-.85-.02-.03-.62,.75h0s-.05,.08-.06,.13"/><path class="cls-16" d="M26.12,19.14l.72-.87h-.01l-.7,.84s0,.02,0,.03"/><path class="cls-37" d="M26.08,19.25h0"/><path class="cls-170" d="M28.16,21.03l-.73-.6s.04,.07,.06,.11l.54,.45s.08,.05,.13,.04"/><path class="cls-129" d="M27.48,20.53s-.03-.08-.06-.11l-.6-.5-.03,.04,.69,.57"/><path class="cls-80" d="M26.83,19.92l-.54-.45s-.03-.03-.04-.05l-.03-.02s-.05-.06-.06-.1l-.08-.07h0c.01,.06,.03,.12,.06,.17l.66,.55,.03-.04"/><path class="cls-167" d="M26.09,19.24h0l-.02-.03v.03h0"/><path class="cls-75" d="M26.17,19.31h0s-.04-.04-.05-.07h-.02l.08,.07"/><path class="cls-71" d="M26.11,19.24h0"/><path class="cls-96" d="M26.09,19.22s-.01-.02-.02-.02,0,0,0,0h.02"/><path class="cls-118" d="M26.1,19.23h0s-.01-.03-.02-.04h0s.01,.03,.02,.04h0"/><path class="cls-181" d="M26.11,19.23h0"/><path class="cls-147" d="M26.88,18.29h0l-.03-.03h0l.03,.03"/><path class="cls-30" d="M26.89,18.32h0v-.02h-.01l.02,.02"/><path class="cls-172" d="M26.88,18.29h0l-.03-.03h0s.02,.02,.03,.03"/><path class="cls-118" d="M26.87,18.3h0s-.02-.02-.03-.03h0s.02,.02,.03,.03"/><path class="cls-192" d="M26.89,18.32h0v-.03h-.01l.02,.02"/><path class="cls-181" d="M26.89,18.32h0v-.03h0l.02,.02"/><path class="cls-190" d="M26.9,18.33h0"/><path class="cls-158" d="M26.9,18.33h0"/><path class="cls-151" d="M26.9,18.33h0"/><path class="cls-150" d="M26.95,18.4h0s-.03-.05-.05-.07h0s.03,.05,.05,.07"/><path class="cls-31" d="M26.95,18.4h0s-.03-.05-.05-.07h0l.05,.07"/><path class="cls-113" d="M26.95,18.4h0s-.03-.05-.05-.07h0l.04,.05v.02"/><path class="cls-42" d="M26.87,18.3h0l-.03-.03h0s.02,.02,.03,.03"/><path class="cls-151" d="M26.89,18.32h0l-.02-.02h0l.02,.02h0"/><path class="cls-113" d="M26.9,18.33h0"/><path class="cls-13" d="M26.94,18.39l-.04-.05h0l.04,.05"/><path class="cls-40" d="M26.17,19.3s0,0,0-.01v-.02l-.05-.03h0s.03,.04,.05,.06h0"/><path class="cls-181" d="M26.15,19.28h0l-.04-.04h0l.04,.03"/><path class="cls-199" d="M26.1,19.23l.02-.03s0-.04,0-.06l-.04,.04s.01,.03,.02,.04"/><path class="cls-18" d="M26.15,19.27s-.02-.05-.03-.07l-.02,.03h0l.04,.05"/><path class="cls-84" d="M26.16,19.29h0v0"/><path class="cls-151" d="M26.16,19.28h0"/><path class="cls-141" d="M26.12,19.2l.74-.89-.03-.03-.72,.87s0,.04,0,.06"/><path class="cls-107" d="M26.16,19.28c0-.05,0-.1,.04-.14l.67-.81-.02-.02-.74,.89s.01,.05,.03,.07h.01"/><path class="cls-27" d="M26.26,19.43s-.02-.04-.02-.07l-.07-.06s.03,.07,.06,.1l.03,.02"/><path class="cls-71" d="M26.23,19.36h0l-.03-.02h-.01l-.02-.03h0l.07,.06"/><path class="cls-84" d="M26.23,19.36h0l-.04-.04h.01l.03,.04"/><path class="cls-17" d="M26.95,18.4h0v0"/><path class="cls-17" d="M26.89,18.34h0"/><path class="cls-2" d="M26.94,18.41h0v-.02l-.05-.05h0s.03,.05,.05,.07"/><path class="cls-48" d="M26.19,19.32s-.02-.02-.03-.03c0,0,0,0,0,.01l.02,.02"/><path class="cls-151" d="M26.23,19.36s0-.01,0-.02l-.07-.06h0s.02,.03,.03,.04l.04,.04"/><path class="cls-107" d="M26.23,19.34h0l-.07-.06h0l.07,.06"/><path class="cls-55" d="M26.23,19.34s0-.03,0-.04c-.03-.08-.01-.18,.04-.24h0l.6-.73h0l-.68,.81s-.05,.09-.04,.14l.07,.06"/><path class="cls-177" d="M26.23,19.3s0-.01,0-.02c-.02-.08,0-.16,.05-.22h0l.6-.72h0l-.6,.71h0c-.06,.07-.07,.16-.04,.24"/><path class="cls-193" d="M26.24,19.28s.02-.05,.04-.07l.67-.81s-.03-.05-.05-.07l-.6,.72h0c-.05,.06-.07,.14-.05,.22"/><path class="cls-44" d="M28.18,21.03h0l-.76-.63,.02,.03,.73,.6h.02"/><path class="cls-114" d="M27.43,20.42l-.02-.03-.58-.48h0l.6,.51"/><path class="cls-176" d="M26.84,19.91l-.58-.49s.02,.03,.04,.05l.54,.45h0"/><path class="cls-73" d="M27.06,18.59h0c-.03-.07-.06-.13-.1-.19h0s.02,.03,.03,.05,.04,.06,.05,.09h0s.02,.04,.02,.05"/><path class="cls-184" d="M26.98,18.45l-.03-.05h0l.03,.05"/><path class="cls-184" d="M27.03,18.54h0s-.03-.06-.05-.09c.02,.03,.04,.06,.05,.09"/><path class="cls-66" d="M27.03,18.54h0s-.03-.06-.05-.09l-.03-.05h0s.06,.09,.08,.14"/><path class="cls-67" d="M27.03,18.54h0s-.05-.1-.08-.14h0s.06,.09,.08,.14"/><path class="cls-13" d="M27.03,18.54h0s-.05-.1-.08-.14h0s.06,.09,.08,.14"/><path class="cls-12" d="M28.23,21.01s-.04-.02-.05-.03l-.23-.19h0l-.59-.49s.04,.06,.06,.1l.76,.63h0s.04,0,.05-.01"/><path class="cls-32" d="M27.42,20.39s-.04-.07-.06-.1l-.49-.41-.02,.03,.58,.48"/><path class="cls-201" d="M26.86,19.89l-.63-.53s.01,.05,.02,.07l.58,.49,.02-.03"/><path class="cls-187" d="M27.95,20.79l-.59-.49h0l.59,.49h0"/><path class="cls-173" d="M27.35,20.3h0l-.49-.41h0l.49,.41"/><path class="cls-84" d="M26.86,19.89l-.63-.53h0l.63,.53h0"/><path class="cls-106" d="M28.23,21.01h0l-.03-.03s-.05-.02-.07-.04l-.17-.14h-.01l.23,.18s.03,.02,.05,.03h0"/><path class="cls-4" d="M27.96,20.8l-.61-.5h0l.59,.5h.01"/><path class="cls-145" d="M27.35,20.3h0l-.49-.4h0l.49,.41"/><path class="cls-57" d="M26.87,19.89l-.63-.53h0l.63,.53h0"/><path class="cls-197" d="M28.23,21.01h0l-.03-.03h0l.03,.03h0"/><path class="cls-182" d="M28.24,21.01l-.03-.02h-.02l.03,.02h0"/><path class="cls-182" d="M28.24,21.01l-.03-.02h0l.03,.02h0"/><path class="cls-2" d="M27.03,18.54h0s-.05-.1-.08-.14h0s.06,.09,.08,.14"/><path class="cls-25" d="M27.03,18.55h0s-.05-.1-.08-.14h0s.06,.09,.08,.14"/><path class="cls-93" d="M28.2,20.98l-.18-.15s-.04-.02-.05-.03l.17,.14s.04,.03,.07,.04"/><path class="cls-175" d="M28.02,20.83l-.7-.58s.02,.03,.03,.04l.61,.5s.03,.02,.05,.03"/><path class="cls-130" d="M27.35,20.29s-.02-.03-.03-.04l-.45-.37h0l.49,.41"/><path class="cls-166" d="M26.87,19.88h0l-.55-.46h0l-.09-.07s0,.01,0,.02l.63,.53h0"/><path class="cls-94" d="M26.32,19.41h-.01l-.02-.02-.06-.05h0l.09,.07"/><path class="cls-177" d="M26.29,19.39s-.04-.06-.05-.09c0,.01,0,.03,0,.04l.06,.05"/><path class="cls-2" d="M26.31,19.41h-.01v0h.01"/><path class="cls-193" d="M26.3,19.4s-.05-.07-.06-.12c0,0,0,.01,0,.02,.01,.03,.03,.06,.05,.09h.01"/><path class="cls-102" d="M28.2,20.98l-.11-.09h0l-.07-.06h0l.18,.15h0"/><path class="cls-98" d="M28.09,20.89l-.08-.07h0l.07,.06h0"/><path class="cls-136" d="M28.02,20.83l-.7-.58h0l.7,.58h0"/><path class="cls-208" d="M27.32,20.25h0l-.45-.37h0l.45,.37"/><path class="cls-2" d="M26.87,19.88h0l-.56-.47h0l.55,.46"/><path class="cls-77" d="M28.21,20.99l-.08-.07s-.03-.02-.04-.02l.11,.09h.02"/><path class="cls-148" d="M28.13,20.92l-.07-.06s-.02-.01-.03-.02h0l.08,.06s.02,.02,.04,.02"/><path class="cls-82" d="M28.02,20.83l-.7-.59h0l.7,.58h0"/><path class="cls-53" d="M27.32,20.25h0l-.44-.37h0l.45,.37"/><path class="cls-25" d="M26.87,19.88h0l-.57-.48h.01l.56,.48"/><path class="cls-77" d="M28.21,20.99l-.08-.07h0l.08,.07h0"/><path class="cls-148" d="M28.13,20.92l-.07-.06h0l.07,.06h0"/><path class="cls-200" d="M28.06,20.86l-.03-.03h0s.02,.02,.03,.03"/><path class="cls-46" d="M28.03,20.83l-.73-.6v.02l.72,.59h.01"/><path class="cls-119" d="M27.32,20.24v-.02l-.44-.36h0l.44,.37"/><path class="cls-6" d="M26.88,19.87h0l-.27-.23h0l-.07-.06c-.08-.07,.03-.34,.1-.42l.4-.61s-.05-.1-.08-.14l-.67,.81s-.03,.04-.04,.07c0,.04,.03,.08,.06,.12l.57,.48"/><path class="cls-200" d="M28.06,20.86l-.03-.03h0l.03,.03h0"/><path class="cls-46" d="M28.03,20.83l-.73-.6h0l.73,.6h0"/><path class="cls-119" d="M27.3,20.23h0l-.42-.36h0l.43,.36"/><path class="cls-133" d="M26.88,19.87h0l-.27-.23h0l.27,.23"/><path class="cls-188" d="M26.9,19.85s.01-.02,.02-.03c0,0,.01-.01,.02-.02,.07-.1,.13-.22,.17-.34-.05,.14-.12,.27-.21,.39h0"/><path class="cls-198" d="M26.92,19.82l.02-.02-.02,.02"/><path class="cls-64" d="M26.9,19.85c.04-.06,.08-.12,.12-.18h0s-.04,.08-.07,.11-.03,.05-.05,.07h0"/><path class="cls-69" d="M26.95,19.78s.05-.07,.07-.11c-.01,.02-.02,.04-.03,.05v.02l-.03,.03"/><path class="cls-52" d="M26.97,19.75v-.02h0v.02"/><path class="cls-165" d="M26.9,19.85s.03-.04,.05-.07l-.05,.07h0"/><path class="cls-70" d="M26.9,19.85h0l.05-.07,.02-.03s-.04,.06-.07,.1h0"/><path class="cls-41" d="M26.9,19.85s.05-.06,.07-.1h0s-.05,.06-.08,.09h0"/><path class="cls-188" d="M29.74,19.7c-.06-.07-.13-.14-.21-.2,.02,.02,.05,.04,.07,.06h0s.09,.09,.13,.14"/><path class="cls-26" d="M29.8,19.77h0s-.04-.05-.06-.07c-.04-.05-.09-.09-.13-.13,.02,.02,.05,.05,.07,.07s.06,.07,.09,.1h0s.02,.02,.03,.04"/><path class="cls-157" d="M28.68,21.11h0l1.12-1.34s-.02-.03-.03-.04l-.07,.09s0,.03-.02,.05h0l-1.09,1.31s.07-.03,.09-.06"/><path class="cls-196" d="M29.68,19.87s.02-.03,.02-.05l-1.06,1.27s-.07,.06-.11,.07l-.02,.02s.06,0,.08,0l1.09-1.3h0"/><path class="cls-90" d="M28.51,21.18l.02-.02s-.06,0-.09,0c.02,.01,.05,.02,.07,.03"/><path class="cls-22" d="M29.61,19.56h0"/><path class="cls-104" d="M29.68,19.63s-.05-.05-.07-.07h0s.05,.04,.08,.07"/><path class="cls-22" d="M29.6,19.55s-.05-.04-.07-.06c-.06-.05-.13-.1-.19-.14,.08,.05,.16,.11,.23,.17l.03,.03h0"/><path class="cls-104" d="M29.6,19.55l-.03-.03,.03,.02h0"/><path class="cls-122" d="M29.61,19.56h0"/><path class="cls-137" d="M27.43,19.35l-.03,.02h.02v-.02"/><path class="cls-126" d="M27.41,19.36h-.02s-.08,.07-.13,.1c-.09,.07-.18,.15-.25,.24h0s.06-.07,.09-.1l.03-.03s.08-.07,.12-.1c.05-.04,.11-.08,.16-.12"/><path class="cls-187" d="M27.25,19.48s-.08,.07-.12,.1l-.03,.03s.08-.08,.13-.12h.02"/><path class="cls-65" d="M26.9,19.86h0"/><path class="cls-188" d="M27.11,19.46c.1-.29,.08-.61-.04-.89h0c.12,.29,.14,.6,.05,.89"/><path class="cls-79" d="M27.16,18.99c-.01-.14-.04-.28-.1-.4h0c.06,.13,.09,.26,.1,.4"/><polyline class="cls-30" points="26.9 19.86 26.9 19.86 26.9 19.85 26.9 19.85 26.9 19.85 26.9 19.85 26.9 19.86"/><polyline class="cls-87" points="26.9 19.86 26.9 19.86 26.9 19.86 26.9 19.86 26.9 19.86"/><path class="cls-64" d="M27.02,19.67c.04-.06,.06-.13,.09-.2,.05-.15,.07-.31,.06-.47,.02,.23-.03,.46-.14,.67h0"/><path class="cls-69" d="M27.02,19.66c.18-.33,.19-.73,.04-1.07,.15,.34,.13,.74-.04,1.07"/><path class="cls-52" d="M27.09,19.51c.05-.13,.08-.27,.08-.41,0,.1-.01,.2-.04,.29-.01,.04-.02,.08-.04,.12"/><path class="cls-70" d="M27.16,19.1c0-.18-.03-.35-.1-.51h0c.07,.16,.1,.34,.1,.51"/><path class="cls-41" d="M27.12,19.39c.07-.27,.05-.55-.06-.81h0s.02,.06,.03,.09c.03,.1,.06,.2,.06,.3,.01,.14,0,.28-.03,.41"/><path class="cls-36" d="M27.09,18.67s-.02-.06-.03-.09h0s.02,.06,.03,.09"/><path class="cls-81" d="M27.16,18.98c0-.1-.03-.2-.06-.3,.03,.1,.05,.19,.06,.29h0"/><path class="cls-204" d="M27.16,18.97c0-.1-.03-.2-.06-.29-.01-.03-.02-.06-.03-.09h0c.05,.12,.09,.24,.1,.37h0"/><path class="cls-3" d="M27.16,18.95c-.01-.13-.05-.25-.1-.37h0c.03,.07,.06,.15,.07,.23,0,.04,.02,.08,.02,.12v.02"/><path class="cls-195" d="M27.01,19.67h0v0"/><path class="cls-52" d="M26.98,19.73s.02-.04,.03-.05v-.02s.05-.09,.07-.14c-.03,.07-.06,.15-.1,.22"/><path class="cls-70" d="M26.97,19.74h0c.04-.08,.07-.15,.1-.23,.02-.04,.03-.08,.04-.12-.02,.09-.06,.18-.1,.27-.01,.03-.03,.05-.05,.08"/><path class="cls-171" d="M27.02,19.66c.04-.09,.08-.18,.1-.27,.03-.13,.04-.27,.03-.41v.06c0,.19-.03,.39-.11,.56,0,.02-.02,.04-.03,.06"/><path class="cls-30" d="M27.05,19.6c.08-.18,.12-.37,.11-.56,0,.19-.03,.37-.1,.55,0,0,0,.01,0,.02"/><path class="cls-97" d="M27.16,19.04v-.06h0s0,.04,0,.06"/><path class="cls-190" d="M27.06,19.58c.07-.17,.11-.36,.1-.55,0-.02,0-.05,0-.07v-.02c.02,.21-.01,.43-.1,.63h0"/><path class="cls-150" d="M27.06,19.58c.09-.2,.12-.41,.1-.63v-.02c.03,.22,0,.43-.09,.63h0"/><path class="cls-171" d="M26.9,19.85h0s.05-.07,.08-.11c.02-.03,.03-.05,.05-.08-.04,.07-.08,.13-.13,.19h0"/><path class="cls-30" d="M26.89,19.85h0c.05-.06,.09-.12,.13-.19,.01-.02,.02-.04,.03-.06-.03,.07-.08,.15-.13,.21l-.03,.04h0"/><path class="cls-179" d="M26.92,19.81c.05-.07,.09-.14,.13-.21,0,0,0-.01,0-.02l-.02,.03c-.03,.06-.06,.12-.1,.17l-.02,.02"/><path class="cls-169" d="M27.04,19.62s.01-.02,.02-.03h0s-.01,.02-.02,.03"/><path class="cls-169" d="M26.94,19.79c.04-.06,.07-.11,.1-.17-.03,.06-.06,.11-.1,.17h0"/><path class="cls-101" d="M26.94,19.78c.04-.05,.07-.11,.1-.17,0-.01,.01-.02,.02-.03h0c-.03,.06-.07,.13-.12,.2"/><polyline class="cls-135" points="26.9 19.85 26.9 19.85 26.89 19.85 26.89 19.85 26.89 19.85 26.89 19.85 26.9 19.85"/><polyline class="cls-93" points="26.9 19.86 26.9 19.86 26.9 19.86 26.9 19.86 26.9 19.86"/><path class="cls-180" d="M27.13,18.82c-.02-.08-.04-.16-.07-.23h0c.03,.07,.06,.15,.07,.23"/><path class="cls-134" d="M28.43,21.15h-.02l-.05-.05h0l.02,.02s.04,.03,.06,.03"/><path class="cls-20" d="M28.36,21.1h0"/><path class="cls-28" d="M28.36,21.09l-.03-.02h-.02l.03,.03h.01"/><path class="cls-209" d="M29.34,19.35c-.57-.35-1.28-.37-1.86-.03,.2-.12,.42-.19,.65-.22h0c.42-.06,.85,.03,1.21,.26"/><path class="cls-209" d="M28.13,19.1c-.23,.03-.45,.11-.65,.22l-.06,.03c.21-.13,.45-.22,.7-.26m0,0h0"/><path class="cls-8" d="M27.01,19.71v.02h0v-.02"/><path class="cls-38" d="M27,19.73h0"/><path class="cls-185" d="M26.91,19.85h0s.05-.08,.08-.11h0s-.06,.07-.08,.11"/><path class="cls-182" d="M26.91,19.85h0s.05-.07,.08-.11h0s-.06,.07-.08,.11"/><path class="cls-29" d="M26.91,19.85h0"/><path class="cls-115" d="M28.33,21.07l-.02-.02s-.03,0-.04-.02l.04,.04h.02"/><path class="cls-56" d="M28.31,21.05h0s-.03,0-.04-.02h0s.03,.01,.04,.02"/><path class="cls-197" d="M28.31,21.05l-.02-.02s-.02,0-.03,0h.01s.03,.02,.04,.03"/><path class="cls-98" d="M28.29,21.03l-.04-.03h-.01l.02,.02s.02,0,.03,0"/><path class="cls-7" d="M27.06,18.59h0s-.02-.04-.02-.05h0s.02,.04,.03,.05"/><path class="cls-1" d="M27.06,18.6h0s-.02-.04-.03-.05h0s.02,.04,.02,.05"/><path class="cls-111" d="M27.06,18.6h0l-.02-.05h0l.02,.05"/><path class="cls-62" d="M27.06,18.6h0l-.02-.05h0s.02,.04,.02,.05"/><path class="cls-2" d="M27.05,18.6h0s-.02-.04-.02-.05h0l.02,.05"/><path class="cls-109" d="M28.25,21h0"/><path class="cls-168" d="M27.05,18.6h0s-.02-.04-.02-.05h0s.02,.04,.03,.05"/><path class="cls-133" d="M27.05,18.6h0s-.02-.04-.03-.05h0l.02,.05"/><path class="cls-148" d="M28.24,20.99l-.07-.06s-.03,0-.04-.02l.08,.07h.03"/><path class="cls-82" d="M28.17,20.93l-.07-.06s-.03,0-.04-.02l.07,.06s.02,.01,.04,.02"/><path class="cls-45" d="M26.6,19.64s-.02-.02-.02-.03h0c-.08-.08,.03-.35,.1-.43l.38-.58-.02-.05-.4,.61c-.07,.08-.18,.36-.1,.42l.07,.06"/><path class="cls-46" d="M28.1,20.88l-.05-.04h-.03l.03,.02s.03,.01,.04,.02"/><path class="cls-39" d="M28.06,20.84l-.8-.66s.03,.03,.04,.05l.73,.6s.02,0,.03,0"/><path class="cls-125" d="M27.3,20.23s-.03-.03-.04-.05l-.38-.31h0l.43,.36"/><path class="cls-45" d="M26.88,19.87h0l-.3-.26s.01,.02,.02,.03l.27,.23"/><path class="cls-154" d="M29.77,19.73h0s-.06-.07-.09-.1l.03,.04s.04,.04,.06,.07"/><path class="cls-90" d="M29.7,19.82l.07-.09s-.04-.05-.06-.07l.03,.03-.05,.06h0s.01,.04,.01,.06"/><path class="cls-146" d="M28.64,21.09l1.05-1.27s0-.04-.01-.06h0l-1.15,1.39s.08-.03,.11-.07"/><path class="cls-134" d="M28.53,21.16l1.15-1.38h0l-.9,1.06c-.06,.07-.14,.13-.22,.16,0,0-.01,0-.02,0l-.12,.15h0s.06,.01,.09,0"/><path class="cls-20" d="M28.43,21.15l.12-.15h-.02s-.05,.04-.08,.05c-.03,.01-.05,.03-.08,.04h0l.05,.05h.02"/><path class="cls-28" d="M28.54,21.01h0s-.05,.03-.08,.04h0s.06-.02,.08-.04"/><path class="cls-194" d="M28.54,21.01l-.08,.04s.06-.02,.08-.04"/><path class="cls-152" d="M28.37,21.1h0"/><path class="cls-8" d="M29.72,19.67l-.03-.04s-.05-.05-.08-.08h0s.08,.07,.11,.11"/><path class="cls-132" d="M29.57,19.52c-.07-.06-.15-.12-.23-.17-.36-.22-.79-.31-1.21-.26,.51-.07,1.02,.08,1.41,.4l.03,.02"/><path class="cls-8" d="M29.6,19.55l-.03-.02-.03-.02c-.22-.18-.48-.31-.75-.37,.3,.07,.57,.21,.8,.41h0"/><path class="cls-14" d="M29.69,19.76l.05-.06-.03-.03s-.07-.08-.11-.11h0s.06,.05,.09,.08h-.01s.03,.09,.01,.12"/><path class="cls-174" d="M29.69,19.76h0s.01-.08-.01-.11l-.05,.06h0l.04,.03s.02,.02,.02,.03"/><path class="cls-60" d="M28.79,20.84l.89-1.07s-.01-.02-.02-.03l-.04-.03h-.01l-1.07,1.3s.01,0,.02,0c.09-.03,.16-.09,.22-.16"/><path class="cls-24" d="M28.79,19.13c-.22-.05-.44-.06-.66-.03h0c-.25,.04-.49,.12-.7,.26h-.01c.3-.18,.65-.28,1.01-.27,.13,0,.25,.02,.38,.05"/><path class="cls-14" d="M27.1,19.61s-.06,.06-.09,.1h0s.05-.07,.08-.1m.55-.38c-.08,.04-.17,.08-.24,.13-.05,.04-.11,.07-.16,.12,.12-.1,.26-.18,.4-.25m1.93,.31c-.32-.29-.74-.45-1.18-.46,.35,0,.68,.11,.97,.3,.04,.02,.07,.05,.11,.08h0s.03,.03,.05,.04l.04,.04h0"/><path class="cls-174" d="M27.02,19.7h0v0"/><path class="cls-28" d="M28.46,21.05s-.04,0-.06,0l-.02,.03s.06-.02,.08-.04m.1-.05l1.07-1.28h.01l-1.05,1.25s-.03,.03-.04,.04h.02"/><path class="cls-161" d="M29.49,19.46h0s-.07-.05-.11-.08c.04,.02,.07,.05,.11,.08"/><path class="cls-194" d="M28.46,21.05s-.04,0-.06,0h0s.04,0,.06,0h0m.12-.08l1.05-1.26-1.05,1.26s-.03,.03-.04,.04h0s.03-.02,.04-.04"/><path class="cls-38" d="M29.68,19.65h.01s-.06-.07-.09-.1h0l.04,.04h0l.04,.04h.01"/><path class="cls-124" d="M29.63,19.71l.05-.06h-.01l-.04-.04h0s.02,.07,0,.09"/><path class="cls-4" d="M29.63,19.71h0s.02-.07,0-.09l-.05,.06,.05,.04"/><path class="cls-99" d="M28.58,20.97l1.05-1.26-.05-.04-1.05,1.26h0s-.05,.05-.08,.06l-.04,.05s.04,0,.06,0l.08-.04s.03-.02,.04-.04"/><path class="cls-38" d="M29.58,19.54l-.04-.04-.05-.04h0l.04,.03h0l.02,.02h.01l.03,.03"/><path class="cls-86" d="M28.41,19.08c-.26,0-.52,.05-.76,.15,.24-.1,.5-.16,.76-.15"/><path class="cls-38" d="M29.38,19.38c-.66-.43-1.52-.39-2.13,.1h-.02c-.04,.05-.09,.09-.13,.13-.03,.03-.06,.06-.08,.09,.03-.03,.06-.07,.09-.1,.61-.6,1.56-.69,2.27-.22"/><path class="cls-124" d="M27.11,19.6s-.06,.06-.09,.1l-.02,.02h0s.08-.09,.12-.13"/><path class="cls-99" d="M29.49,19.46h0s-.07-.05-.11-.08c-.71-.47-1.66-.38-2.27,.22,.06-.06,.12-.11,.18-.16,.64-.48,1.53-.48,2.17,0l.02,.02"/><path class="cls-93" d="M27.3,19.45c-.06,.05-.13,.1-.18,.16-.04,.04-.08,.08-.12,.13h0c.09-.11,.19-.2,.3-.29m1.38-.34c-.26-.04-.53-.03-.78,.04,.25-.07,.52-.09,.78-.04"/><path class="cls-93" d="M29.63,19.61h0l-.04-.05h0l.03,.02h0v.02h.02"/><path class="cls-197" d="M29.63,19.61h0"/><path class="cls-197" d="M29.62,19.6h0"/><path class="cls-185" d="M29.59,19.67l.05-.06h-.01l-.04,.03h0l.02,.02"/><path class="cls-102" d="M28.52,20.94h0l1.05-1.27h-.02l-1.11,1.32h-.01s.06-.03,.08-.05"/><path class="cls-161" d="M29.61,19.56h0v0"/><path class="cls-161" d="M29.6,19.56h0l-.02-.02h0l.02,.02"/><path class="cls-99" d="M29.6,19.56h0l-.02-.03-.03-.02h0l.04,.03v.02h0"/><path class="cls-197" d="M29.56,19.51h-.01l-.02-.03h0l.02,.02h.01"/><path class="cls-102" d="M27.9,19.15c-.22,.06-.42,.16-.6,.3,.18-.14,.39-.24,.6-.3m1.57,.29c-.23-.17-.5-.29-.78-.33,.22,.04,.43,.11,.62,.22h0c.06,.03,.11,.07,.17,.11"/><path class="cls-182" d="M29.29,19.33h0c-.42-.25-.93-.31-1.4-.18-.22,.06-.42,.16-.6,.3-.11,.08-.21,.18-.3,.29h0c.19-.22,.42-.39,.69-.5,.06-.03,.12-.05,.19-.07,.38-.11,.78-.1,1.15,.04h0c.1,.04,.19,.08,.27,.13"/><path class="cls-98" d="M29.02,19.2h0c-.37-.14-.78-.15-1.15-.04,.27-.08,.55-.1,.83-.05,.11,.02,.22,.05,.33,.09"/><path class="cls-88" d="M27.68,19.23c-.27,.11-.5,.28-.69,.5-.03,.03-.06,.07-.08,.11h0s.05-.07,.08-.1h0l.02-.02c.18-.21,.41-.37,.66-.48"/><path class="cls-109" d="M27.02,19.71l-.02,.02h0l.02-.03"/><path class="cls-88" d="M27.87,19.16c-.06,.02-.12,.04-.19,.07l.05-.02s.09-.03,.13-.05"/><path class="cls-109" d="M28.7,19.11c-.28-.05-.56-.03-.83,.05-.05,.01-.09,.03-.13,.05,.14-.05,.29-.09,.44-.11,.17-.02,.35-.02,.52,.01"/><path class="cls-109" d="M26.92,19.84h0s.05-.07,.07-.1h0s-.06,.07-.08,.1m.82-.63l-.05,.02c-.26,.11-.48,.27-.66,.48,.19-.22,.44-.4,.72-.5"/><path class="cls-29" d="M28.18,19.1c-.15,.02-.3,.05-.44,.11-.28,.11-.52,.28-.72,.5l-.02,.03s-.05,.06-.07,.09c.02-.03,.04-.05,.06-.08h0c.3-.37,.72-.6,1.19-.65"/><path class="cls-148" d="M26.91,19.85h0"/><path class="cls-82" d="M26.91,19.85v-.02h0"/><path class="cls-65" d="M28.37,21.09l.02-.03s-.02,0-.03,0c0,0-.02,0-.03,0l.03,.02h.01"/><path class="cls-162" d="M28.4,21.06h-.03s.02,0,.03,0"/><path class="cls-175" d="M28.4,21.06l.04-.05h0s-.05,.04-.08,.05c.01,0,.02,0,.03,0"/><path class="cls-93" d="M29.6,19.56v-.02l-.04-.03h0l.05,.05"/><path class="cls-185" d="M29.55,19.52h0v-.02l-.03-.02h0l.02,.03h0"/><path class="cls-102" d="M29.6,19.56h0l-.05-.04h0l.05,.04"/><path class="cls-109" d="M29.55,19.52h0l-.02-.03h0l.02,.02h.01"/><path class="cls-185" d="M29.62,19.6h0l-.03-.03h0s0,.01,0,.02h.01v.02"/><path class="cls-102" d="M29.62,19.6h0v-.02h0"/><path class="cls-98" d="M29.58,19.64l.04-.05-.02-.02s0,.04-.02,.06"/><path class="cls-194" d="M28.36,21.06s-.03,0-.05-.01l.02,.02s.02,0,.03,0"/><path class="cls-99" d="M28.36,21.06s-.03,0-.05-.01h0s.03,0,.05,.01h0"/><path class="cls-155" d="M28.44,21.01s-.1,.03-.15,.02l.02,.02s.03,0,.05,.01c.03-.01,.06-.03,.08-.05"/><path class="cls-102" d="M29.6,19.58s0-.01,0-.02h0v.02"/><path class="cls-98" d="M29.6,19.58h0"/><path class="cls-109" d="M29.57,19.65h0s.02-.05,.02-.07h-.01l-.05,.05,.03,.02"/><path class="cls-109" d="M28.44,21.01l1.13-1.35-.03-.02-1.05,1.26h0c-.05,.07-.14,.1-.22,.09h0l.04,.04c.05,0,.1,0,.15-.02h0"/><path class="cls-109" d="M29.59,19.57h0l-.05-.05h0l.05,.05"/><path class="cls-148" d="M29.54,19.53h0v-.02l-.03-.02h0l.03,.03"/><polyline class="cls-77" points="29.59 19.57 29.59 19.57 29.54 19.53 29.54 19.53 29.59 19.57"/><polyline class="cls-148" points="29.54 19.53 29.54 19.53 29.51 19.51 29.51 19.51 29.54 19.53"/><polyline class="cls-148" points="29.54 19.63 29.59 19.57 29.54 19.53 29.49 19.59 29.54 19.63"/><path class="cls-148" d="M28.48,20.91h0l1.05-1.27-.05-.04-1.05,1.26s-.07,.06-.12,.08l-.02,.03h0s-.02,.02-.04,.03c.08,0,.17-.02,.22-.09"/><polyline class="cls-82" points="29.49 19.59 29.54 19.53 29.51 19.51 29.46 19.57 29.49 19.59"/><path class="cls-82" d="M28.44,20.86l1.06-1.26-.03-.03-1.14,1.37s.09-.04,.12-.08"/><path class="cls-148" d="M26.92,19.83h0"/><path class="cls-148" d="M26.92,19.83h0s.04-.06,.07-.08h0l-.06,.08h0"/><path class="cls-46" d="M26.91,19.85v-.02h.01v.02h-.01"/><path class="cls-46" d="M26.9,19.86l.02-.03h0v.02h-.01"/><path class="cls-82" d="M26.92,19.83l.02-.02s.03-.04,.05-.07h0s-.05,.06-.07,.08"/><path class="cls-39" d="M26.9,19.86s.03-.04,.04-.06l-.02,.02-.02,.03h0"/><path class="cls-110" d="M27.15,18.94s-.01-.08-.02-.12c0,.04,.01,.07,.02,.11h0"/><path class="cls-73" d="M27.06,19.57c.09-.2,.12-.42,.09-.63h0c.03,.21,0,.43-.09,.63h0"/><path class="cls-100" d="M26.89,19.85s.02-.03,.03-.04l-.03,.04h0"/><path class="cls-95" d="M26.9,19.85l.03-.04,.02-.02s-.03,.04-.04,.06h0"/><path class="cls-150" d="M26.9,19.85s.03-.04,.04-.06h0s-.03,.04-.05,.06h0"/><path class="cls-66" d="M26.9,19.85s.03-.04,.05-.07c.05-.07,.09-.14,.12-.21h0c-.04,.09-.1,.19-.16,.27h0"/><path class="cls-62" d="M26.89,19.85h0"/><path class="cls-76" d="M26.89,19.85h0"/><path class="cls-124" d="M29.53,19.49h0l-.04-.03h0l.04,.03"/><path class="cls-93" d="M29.49,19.46h0l-.03-.02,.03,.02"/><path class="cls-185" d="M29.52,19.49h0l-.04-.03h0l.04,.03"/><path class="cls-182" d="M29.49,19.46h0l-.03-.02c-.05-.04-.11-.08-.17-.11h.02c.06,.04,.12,.08,.17,.12"/><path class="cls-88" d="M29.31,19.34h0c-.09-.06-.18-.1-.27-.14h0c.1,.04,.19,.08,.28,.13"/><path class="cls-109" d="M29.02,19.2h0c-.11-.04-.21-.07-.33-.09,.11,.02,.22,.05,.33,.09"/><path class="cls-88" d="M29.31,19.34h0"/><path class="cls-109" d="M29.31,19.34h0c-.09-.05-.18-.1-.28-.13h0c.1,.04,.19,.08,.28,.13"/><path class="cls-77" d="M29.03,19.2h0c-.11-.04-.22-.07-.33-.09-.17-.03-.35-.03-.52-.01,.29-.03,.58,0,.85,.1"/><path class="cls-148" d="M28.72,19.12c-.18-.03-.36-.04-.54-.02-.46,.05-.88,.28-1.18,.64h0c.42-.5,1.08-.74,1.72-.62"/><path class="cls-102" d="M29.52,19.5h0l-.04-.04h0l.04,.04"/><path class="cls-88" d="M29.48,19.47h0c-.06-.05-.11-.09-.17-.13h0s.06,.05,.09,.07h0l.05,.03,.03,.02"/><path class="cls-109" d="M29.41,19.41h0s-.06-.04-.09-.06l.04,.04,.04,.03"/><path class="cls-109" d="M29.32,19.35h0"/><path class="cls-29" d="M29.37,19.39l-.04-.04h0l.04,.03h.01"/><path class="cls-29" d="M29.31,19.34h0c-.09-.06-.18-.11-.28-.14h0c.1,.04,.2,.08,.29,.14"/><path class="cls-148" d="M29.03,19.2h0c-.1-.04-.2-.07-.31-.09,.11,.02,.21,.05,.31,.09"/><path class="cls-148" d="M29.36,19.38l-.04-.04c-.09-.05-.19-.1-.29-.14l.02,.02c.11,.04,.21,.1,.31,.16"/><path class="cls-148" d="M29.05,19.22l-.02-.02c-.72-.28-1.54-.06-2.03,.53h0c.5-.6,1.33-.8,2.05-.52"/><path class="cls-77" d="M29.52,19.5h0l-.04-.03h0l.04,.03"/><path class="cls-148" d="M29.48,19.47h0l-.03-.02,.03,.02"/><path class="cls-119" d="M26.9,19.87h.01"/><path class="cls-67" d="M27.15,18.93s-.01-.07-.02-.11c-.02-.08-.04-.16-.07-.23h0c.05,.11,.08,.22,.09,.34"/><path class="cls-191" d="M27.06,19.56c.08-.2,.12-.42,.09-.64-.02-.12-.05-.23-.09-.34h0l.02,.05h0c.04,.1,.06,.2,.07,.31,.02,.19,0,.38-.07,.55,0,.02-.02,.04-.02,.06"/><path class="cls-62" d="M27.08,18.65h0s-.01-.04-.02-.05h0s.02,.04,.02,.05m0,.86c.06-.18,.09-.37,.07-.55,.01,.13,0,.27-.02,.4,0,.03-.01,.05-.02,.07s-.02,.05-.02,.08"/><path class="cls-76" d="M27.08,18.65h0s-.01-.04-.02-.05h0s.02,.04,.02,.05m.03,.78s.01-.05,.02-.07c0,.02,0,.03-.01,.04v.03"/><path class="cls-2" d="M27.08,18.65h0s-.01-.04-.02-.05h0s.02,.04,.02,.05"/><path class="cls-111" d="M27.15,18.95c-.01-.11-.03-.21-.07-.31h0c.04,.1,.06,.2,.07,.31"/><path class="cls-62" d="M27.13,19.35c.03-.13,.04-.27,.02-.4-.01-.11-.04-.21-.07-.31h0c.09,.22,.1,.47,.05,.7"/><path class="cls-76" d="M27.12,19.4s0-.03,.01-.04c.05-.23,.03-.48-.05-.7h0c.07,.18,.09,.38,.07,.58,0,.06-.02,.11-.03,.17"/><path class="cls-2" d="M27.15,19.23c.02-.2,0-.39-.07-.58h0c.07,.18,.1,.38,.07,.57"/><path class="cls-29" d="M28.26,21h0"/><path class="cls-76" d="M26.9,19.84c.07-.08,.12-.18,.16-.27,0-.02,.02-.04,.02-.06-.04,.1-.09,.2-.15,.29l-.03,.04"/><path class="cls-85" d="M26.9,19.84h0l.03-.04-.03,.04h0"/><path class="cls-85" d="M26.93,19.8c.06-.09,.12-.19,.15-.29,0-.03,.02-.05,.03-.08-.04,.13-.1,.26-.18,.37"/><path class="cls-131" d="M26.9,19.84l.03-.04c.08-.11,.14-.24,.18-.37,0-.01,0-.02,0-.03-.02,.06-.04,.13-.07,.19-.03,.08-.07,.15-.12,.21l-.03,.04"/><path class="cls-193" d="M27.08,18.65h0s-.01-.04-.02-.05h0s.02,.04,.02,.06m-.15,1.15c.05-.07,.09-.14,.12-.22-.02,.05-.05,.1-.08,.15-.01,.02-.03,.04-.04,.06"/><path class="cls-131" d="M27.05,19.58c.03-.06,.05-.12,.07-.19,.01-.06,.03-.11,.03-.17-.02,.12-.05,.24-.1,.36"/><path class="cls-193" d="M26.97,19.73c.1-.15,.16-.32,.18-.5,.02-.19,0-.39-.07-.57h0c.1,.26,.11,.55,.02,.81-.03,.09-.07,.18-.12,.27"/><path class="cls-133" d="M27.07,18.66h0s-.02-.04-.02-.06h0s.02,.04,.02,.06"/><path class="cls-133" d="M27.1,19.47c.08-.27,.08-.55-.02-.81h0c.1,.26,.11,.55,.02,.81"/><path class="cls-29" d="M29.45,19.45l-.05-.03h0s.03,.02,.05,.03"/><path class="cls-148" d="M29.41,19.41h0l-.04-.03h0s.03,.02,.04,.03"/><path class="cls-164" d="M29.37,19.39h0"/><path class="cls-82" d="M29.36,19.38h0c-.1-.06-.2-.12-.31-.16h0c.11,.04,.21,.1,.31,.16"/><path class="cls-200" d="M29.05,19.22h0c-.72-.29-1.55-.08-2.05,.52-.02,.02-.03,.04-.05,.07l.05-.06h0c.5-.6,1.33-.81,2.06-.52"/><path class="cls-34" d="M26.89,19.85h0"/><path class="cls-205" d="M26.89,19.85h.01l.03-.05-.04,.05h0"/><path class="cls-58" d="M26.89,19.85l.04-.05s.03-.04,.04-.06c-.02,.04-.05,.08-.08,.12h0"/><path class="cls-61" d="M26.89,19.86h0"/><path class="cls-58" d="M26.89,19.86h0s.06-.08,.08-.12c.05-.08,.09-.17,.12-.27-.05,.14-.12,.28-.21,.39h0"/><path class="cls-29" d="M29.51,19.51h0l-.04-.04h0l.03,.04"/><polyline class="cls-82" points="29.51 19.51 29.51 19.51 29.48 19.48 29.47 19.48 29.51 19.51"/><path class="cls-148" d="M28.3,20.96l.02-.03s-.1,.02-.15,0l.07,.06h.02s.03-.02,.04-.03"/><polyline class="cls-200" points="29.46 19.57 29.51 19.51 29.47 19.48 29.43 19.54 29.46 19.57"/><path class="cls-46" d="M28.32,20.93l1.14-1.37-.03-.03-1.05,1.26c-.07,.08-.17,.11-.27,.07l.07,.06s.1,.02,.15,0"/><path class="cls-49" d="M26.59,19.61c-.03-.1,.06-.32,.12-.39l.37-.57s-.01-.04-.02-.06l-.38,.58c-.07,.08-.18,.36-.1,.42h.01"/><path class="cls-200" d="M29.48,19.48h0l-.03-.03-.05-.03h0l.07,.06"/><path class="cls-46" d="M29.41,19.42h0s-.03-.02-.04-.03l.04,.03"/><polyline class="cls-46" points="29.47 19.48 29.48 19.48 29.41 19.42 29.4 19.42 29.47 19.48"/><path class="cls-39" d="M29.4,19.42h0l-.04-.03h-.01l.05,.03"/><polyline class="cls-39" points="29.43 19.54 29.47 19.48 29.4 19.42 29.36 19.48 29.43 19.54"/><path class="cls-39" d="M28.37,20.8l1.05-1.26-.07-.06-1.05,1.26h0c-.06,.07-.15,.1-.24,.09l.05,.04c.1,.03,.2,0,.27-.07"/><path class="cls-39" d="M29.36,19.48l.05-.06-.05-.04c-.1-.06-.2-.12-.31-.16l.31,.26"/><path class="cls-39" d="M28.3,20.75h0l1.05-1.26-.31-.26c-.73-.29-1.56-.08-2.06,.52h0l-.05,.06s-.03,.04-.04,.06h0c.06,.04,.11,.08,.16,.12,.07,.06,.14,.12,.2,.2l.8,.66c.09,.02,.18-.02,.24-.09"/><path class="cls-92" d="M27.26,20.18c-.06-.07-.12-.14-.2-.2-.05-.04-.11-.08-.16-.12h-.01l.38,.32"/><path class="cls-49" d="M26.89,19.86h0c.09-.12,.16-.25,.21-.39,.08-.26,.07-.55-.02-.81l-.37,.57c-.06,.07-.15,.29-.12,.39l.3,.25"/><path class="cls-108" d="M30.27,19.08l-1.63,1.95c-.09,.11-.25,.12-.36,.03h0l-1.96-1.63c-.11-.09-.12-.25-.03-.36h0l1.63-1.95c.09-.11,.25-.13,.36-.04h0l1.96,1.63c.11,.09,.12,.25,.03,.36h0Z"/><path class="cls-9" d="M28.52,18.82c.07-.02,.15-.03,.22-.02,.07,.02,.14,.05,.2,.1,.08,.06,.14,.16,.16,.26,.02,.11,0,.21-.04,.31-.05,.11-.11,.22-.19,.31-.1,.13-.22,.23-.35,.32l-.26-.21c.07-.03,.14-.06,.2-.11,.07-.05,.13-.11,.18-.17,.06-.07,.1-.15,.12-.23,.02-.06,0-.13-.05-.18-.03-.03-.07-.04-.11-.04-.05,0-.09,.02-.14,.03-.05,.02-.12,.06-.21,.11l-.03,.02c-.09,.05-.18,.09-.28,.13-.16,.06-.33,.02-.46-.09-.08-.07-.14-.16-.17-.26-.02-.1,0-.2,.03-.3,.05-.11,.11-.21,.19-.3,.07-.08,.14-.16,.23-.23,.07-.06,.15-.11,.23-.16l.27,.23c-.1,.03-.19,.07-.27,.12-.08,.05-.16,.12-.22,.19-.06,.07-.11,.15-.13,.24-.01,.06,.01,.13,.06,.17,.03,.03,.08,.04,.12,.04,.05,0,.11-.02,.16-.04,.06-.03,.15-.07,.25-.12,.09-.05,.18-.09,.28-.12Z"/></g></svg>