<?xml version="1.0" encoding="UTF-8" standalone="no"?>
<svg xmlns="http://www.w3.org/2000/svg" width="494" height="385">
  <g fill="none" fill-rule="evenodd">
    <path fill="#49C0D0" d="M436.494108 295.007039C421.535399 271.737381 404.622225 245.427371 386.990764 218H106.711739l-49.4988187 77H436.489583Zm1.924 2.992961c32.487253 50.536932 55.284395 86 55.284395 86H0l55.2843949-86H438.418108Zm-53.354861-82.998431a2075534567.3453403 2075534567.3453403 0 0 0-49.499828-77.00157L335.56342 138H158.139083l-49.498819 77h276.421975l.001008.001569Zm-51.473244-80.071403a8494174173.490208 8494174173.490208 0 0 0-72.646397-113.0082022C256.246155 14.6146425 246.851252 0 246.851252 0l-86.783643 135h173.567286l-.044892-.069834Z"/>
    <path fill="#FFF" d="m214.706524 103.318-1.36 12.682h-5.134l-2.652-23.8h3.638l2.006 18.768 1.802-18.768h3.604l1.87 18.904 1.938-18.904h3.264l-2.652 23.8h-4.964l-1.36-12.682Zm10.846-11.118h3.74V116h-3.74V92.2Zm5.984 5.712c0-1.9266763.458996-3.4056615 1.377-4.437.918005-1.0313385 2.294991-1.547 4.131-1.547 1.836009 0 3.212996.5156615 4.131 1.547.918005 1.0313385 1.377 2.5103237 1.377 4.437v.748h-3.536v-.986c0-.8613376-.164331-1.4676649-.493-1.819-.328668-.3513351-.787664-.527-1.377-.527s-1.048331.1756649-1.377.527c-.328668.3513351-.493.9576624-.493 1.819 0 .8160041.181332 1.5356636.544 2.159.362669.623336.815997 1.212664 1.36 1.768.544003.555336 1.127664 1.110664 1.751 1.666.623337.555336 1.206997 1.161663 1.751 1.819.544003.657337.997332 1.405329 1.36 2.244.362669.838671.544 1.824661.544 2.958 0 1.926676-.470328 3.405662-1.411 4.437-.940671 1.031338-2.328991 1.547-4.165 1.547-1.836009 0-3.224328-.515662-4.165-1.547-.940671-1.031338-1.411-2.510324-1.411-4.437v-1.462h3.536v1.7c0 .861338.175665 1.461998.527 1.802.351335.340002.821664.51 1.411.51.589336 0 1.059665-.169998 1.411-.51.351335-.340002.527-.940662.527-1.802 0-.816004-.181331-1.535664-.544-2.159-.362668-.623336-.815997-1.212664-1.36-1.768-.544003-.555336-1.127663-1.110664-1.751-1.666-.623336-.555336-1.206997-1.161663-1.751-1.819-.544003-.657337-.997331-1.405329-1.36-2.244-.362668-.838671-.544-1.824661-.544-2.958Zm13.192-5.712h5.916c1.881343 0 3.280996.4986617 4.199 1.496.918005.9973383 1.377 2.4593237 1.377 4.386v12.036c0 1.926676-.458995 3.388662-1.377 4.386-.918004.997338-2.317657 1.496-4.199 1.496h-5.916V92.2Zm3.74 3.4v17h2.108c.589336 0 1.053999-.169998 1.394-.51.340002-.340002.51-.940662.51-1.802V97.912c0-.8613376-.169998-1.4619983-.51-1.802-.340001-.3400017-.804664-.51-1.394-.51h-2.108Zm13.566 14.926c0 .861338.175665 1.467665.527 1.819.351335.351335.821664.527 1.411.527.589336 0 1.059665-.175665 1.411-.527.351335-.351335.527-.957662.527-1.819V97.674c0-.8613376-.175665-1.4676649-.527-1.819-.351335-.3513351-.821664-.527-1.411-.527-.589336 0-1.059665.1756649-1.411.527-.351335.3513351-.527.9576624-.527 1.819v12.852Zm-3.74-12.614c0-1.9266763.487329-3.4056615 1.462-4.437.974672-1.0313385 2.379991-1.547 4.216-1.547 1.836009 0 3.241329.5156615 4.216 1.547.974672 1.0313385 1.462 2.5103237 1.462 4.437v12.376c0 1.926676-.487328 3.405662-1.462 4.437-.974671 1.031338-2.379991 1.547-4.216 1.547-1.836009 0-3.241328-.515662-4.216-1.547-.974671-1.031338-1.462-2.510324-1.462-4.437V97.912Zm21.692 11.186 2.55-16.898h5.202V116h-3.536V98.932l-2.584 17.068h-3.536l-2.788-16.83V116h-3.264V92.2h5.202l2.754 16.898Zm-95.584401 72.3-1.292 2.432V192h-4.18v-26.6h4.18v11.59l5.472-11.59h4.18l-5.814 11.856 5.814 14.744h-4.294l-4.066-10.602Zm13.984-8.664V192h-3.762v-26.6h5.244l4.294 15.922V165.4h3.724V192h-4.294l-5.206-19.266Zm16.34 13.148c0 .962671.196331 1.640331.589 2.033.392668.392669.91833.589 1.577.589s1.184331-.196331 1.577-.589c.392668-.392669.589-1.070329.589-2.033v-14.364c0-.962671-.196332-1.640331-.589-2.033-.392669-.392669-.91833-.589-1.577-.589s-1.184332.196331-1.577.589c-.392669.392669-.589 1.070329-.589 2.033v14.364Zm-4.18-14.098c0-2.153344.544661-3.806328 1.634-4.959 1.089339-1.152672 2.659989-1.729 4.712-1.729 2.05201 0 3.622661.576328 4.712 1.729 1.089339 1.152672 1.634 2.805656 1.634 4.959v13.832c0 2.153344-.544661 3.806328-1.634 4.959-1.089339 1.152672-2.65999 1.729-4.712 1.729-2.052011 0-3.622661-.576328-4.712-1.729-1.089339-1.152672-1.634-2.805656-1.634-4.959v-13.832Zm24.662 6.042-1.52 14.174h-5.738l-2.964-26.6h4.066l2.242 20.976 2.014-20.976h4.028l2.09 21.128 2.166-21.128h3.648l-2.964 26.6h-5.548l-1.52-14.174Zm12.122-12.426h4.18v22.8h6.878v3.8h-11.058v-26.6Zm17.062 11.21h5.738v3.8h-5.738v7.79h7.22v3.8h-11.4v-26.6h11.4v3.8h-7.22v7.41Zm9.804-11.21h6.612c2.102677 0 3.666995.557328 4.693 1.672 1.026005 1.114672 1.539 2.748656 1.539 4.902v13.452c0 2.153344-.512995 3.787328-1.539 4.902s-2.590323 1.672-4.693 1.672h-6.612v-26.6Zm4.18 3.8v19h2.356c.65867 0 1.177998-.189998 1.558-.57.380002-.380002.57-1.051329.57-2.014v-13.832c0-.962671-.189998-1.633998-.57-2.014-.380002-.380002-.89933-.57-1.558-.57h-2.356Zm17.594 7.98h5.852v8.436c0 2.153344-.525662 3.806328-1.577 4.959-1.051339 1.152672-2.60299 1.729-4.655 1.729-2.052011 0-3.603662-.576328-4.655-1.729-1.051339-1.152672-1.577-2.805656-1.577-4.959v-13.832c0-2.153344.525661-3.806328 1.577-4.959 1.051338-1.152672 2.602989-1.729 4.655-1.729 2.05201 0 3.603661.576328 4.655 1.729 1.051338 1.152672 1.577 2.805656 1.577 4.959v2.584h-3.952v-2.85c0-.962671-.196332-1.640331-.589-2.033-.392669-.392669-.91833-.589-1.577-.589s-1.184332.196331-1.577.589c-.392669.392669-.589 1.070329-.589 2.033v14.364c0 .962671.196331 1.633998.589 2.014.392668.380002.91833.57 1.577.57s1.184331-.189998 1.577-.57c.392668-.380002.589-1.051329.589-2.014v-4.902h-1.9v-3.8Zm12.73-.57h5.738v3.8h-5.738v7.79h7.22v3.8h-11.4v-26.6h11.4v3.8h-7.22v7.41ZM162.708258 241.6h4.62V271h-4.62v-29.4Zm12.096 8.106V271h-4.158v-29.4h5.796l4.746 17.598V241.6h4.116V271h-4.746l-5.754-21.294Zm18.438 4.956h5.964v4.2h-5.964V271h-4.62v-29.4h12.222v4.2h-7.602v8.862Zm14.07 9.576c0 1.064005.216998 1.812998.651 2.247.434002.434002 1.014996.651 1.743.651.728004 0 1.308998-.216998 1.743-.651s.651-1.182995.651-2.247v-15.876c0-1.064005-.216998-1.812998-.651-2.247-.434002-.434002-1.014996-.651-1.743-.651-.728004 0-1.308998.216998-1.743.651s-.651 1.182995-.651 2.247v15.876Zm-4.62-15.582c0-2.380012.601994-4.206994 1.806-5.481 1.204006-1.274006 2.939989-1.911 5.208-1.911s4.003994.636994 5.208 1.911c1.204006 1.274006 1.806 3.100988 1.806 5.481v15.288c0 2.380012-.601994 4.206994-1.806 5.481-1.204006 1.274006-2.939989 1.911-5.208 1.911s-4.003994-.636994-5.208-1.911c-1.204006-1.274006-1.806-3.100988-1.806-5.481v-15.288Zm26.67 22.344c-.056-.196001-.112-.377999-.168-.546-.056-.168001-.105-.377999-.147-.63-.042-.252001-.07-.573998-.084-.966-.014-.392002-.021-.881997-.021-1.47v-4.62c0-1.372007-.237998-2.337997-.714-2.898s-1.245995-.84-2.31-.84h-1.596V271h-4.62v-29.4h6.972c2.408012 0 4.150995.559994 5.229 1.68s1.617 2.813989 1.617 5.082v2.31c0 3.024015-1.00799 5.011995-3.024 5.964 1.176006.476002 1.980998 1.252995 2.415 2.331.434002 1.078005.651 2.386992.651 3.927v4.536c0 .728004.028 1.364997.084 1.911.056.546003.195999 1.098997.42 1.659h-4.704Zm-5.04-25.2v9.03h1.806c.868004 0 1.546998-.223998 2.037-.672.490002-.448002.735-1.259994.735-2.436v-2.898c0-1.064005-.188998-1.833998-.567-2.31-.378002-.476002-.972996-.714-1.785-.714h-2.226Zm22.05 16.674 3.15-20.874h6.426V271h-4.368v-21.084l-3.192 21.084h-4.368l-3.444-20.79V271h-4.032v-29.4h6.426l3.402 20.874Zm27.888 8.526h-4.662l-.798-5.334h-5.67l-.798 5.334h-4.242l4.704-29.4h6.762l4.704 29.4Zm-10.542-9.324h4.452l-2.226-14.868-2.226 14.868Zm11.34-20.076h14.28v4.2h-4.83V271h-4.62v-25.2h-4.83v-4.2Zm16.296 0h4.62V271h-4.62v-29.4Zm12.222 22.638c0 1.064005.216998 1.812998.651 2.247.434002.434002 1.014996.651 1.743.651.728004 0 1.308998-.216998 1.743-.651s.651-1.182995.651-2.247v-15.876c0-1.064005-.216998-1.812998-.651-2.247-.434002-.434002-1.014996-.651-1.743-.651-.728004 0-1.308998.216998-1.743.651s-.651 1.182995-.651 2.247v15.876Zm-4.62-15.582c0-2.380012.601994-4.206994 1.806-5.481 1.204006-1.274006 2.939989-1.911 5.208-1.911s4.003994.636994 5.208 1.911c1.204006 1.274006 1.806 3.100988 1.806 5.481v15.288c0 2.380012-.601994 4.206994-1.806 5.481-1.204006 1.274006-2.939989 1.911-5.208 1.911s-4.003994-.636994-5.208-1.911c-1.204006-1.274006-1.806-3.100988-1.806-5.481v-15.288Zm21.126 1.05V271h-4.158v-29.4h5.796l4.746 17.598V241.6h4.116V271h-4.746l-5.754-21.294ZM212.046 322.8h8.004c2.545346 0 4.438994.67466 5.681 2.024s1.863 3.32732 1.863 5.934v16.284c0 2.60668-.620994 4.58466-1.863 5.934-1.242006 1.34934-3.135654 2.024-5.681 2.024h-8.004v-32.2Zm5.06 4.6v23h2.852c.797337 0 1.425998-.229998 1.886-.69.460002-.460002.69-1.272661.69-2.438v-16.744c0-1.165339-.229998-1.977998-.69-2.438-.460002-.460002-1.088663-.69-1.886-.69h-2.852ZM247.19 355h-5.106l-.874-5.842H235l-.874 5.842h-4.646l5.152-32.2h7.406l5.152 32.2Zm-11.546-10.212h4.876l-2.438-16.284-2.438 16.284Zm12.42-21.988h15.64v4.6h-5.29V355h-5.06v-27.6h-5.29v-4.6Zm34.224 32.2h-5.106l-.874-5.842h-6.21l-.874 5.842h-4.646l5.152-32.2h7.406l5.152 32.2Zm-11.546-10.212h4.876l-2.438-16.284-2.438 16.284Z"/>
  </g>
</svg>