<svg xmlns="http://www.w3.org/2000/svg" xml:space="preserve" width="96" version="1.1" style="shape-rendering:geometricPrecision; text-rendering:geometricPrecision; image-rendering:optimizeQuality; fill-rule:evenodd; clip-rule:evenodd"
viewBox="0 0 191.8213 165.2936"
 xmlns:xlink="http://www.w3.org/1999/xlink"
 xmlns:xodm="http://www.corel.com/coreldraw/odm/2003">
 <defs>
  <style type="text/css">
   <![CDATA[
    .fil5 {fill:#F9CDC7}
    .fil0 {fill:#E73851}
    .fil4 {fill:#992140}
    .fil2 {fill:#2D1C1A}
    .fil3 {fill:#18A8E1}
    .fil1 {fill:white}
   ]]>
  </style>
 </defs>
 <g id="Layer_x0020_1">
  <metadata id="CorelCorpID_0Corel-Layer"/>
  <g id="_854823248">
   <path class="fil0" d="M120.6908 121.7401c-1.0265,2.217 -2.1839,4.1679 -3.4722,5.8545 -1.2571,1.6534 -2.5798,2.9762 -3.9026,3.9682 -1.1575,0.8592 -2.0841,1.488 -2.8765,1.3553 -0.5305,-0.1325 -0.463,-1.0577 -0.3977,-1.6533 0.1653,-1.7191 0.6939,-3.4395 1.555,-5.1582 0.8597,-1.7536 1.9497,-3.3396 3.2072,-4.8281 1.2571,-1.455 2.6781,-2.6798 4.1337,-3.6376 1.19,-0.7284 2.3147,-1.2569 3.4394,-1.5551 -0.298,1.9842 -0.8596,3.9031 -1.6864,5.6543zm13.789 -38.7554l0 0c-3.3068,-0.5285 -5.6873,2.0842 -6.7464,4.6622 -0.3633,0.8938 -0.4633,1.3555 -0.8592,2.5472 -0.3633,1.123 -0.4961,1.9497 -0.7616,3.1746 -0.2306,0.8267 -0.4959,2.1494 -0.594,2.7108 -0.2326,1.092 -0.2653,1.2575 -0.5289,2.8435 -0.2976,1.6208 -0.463,2.6801 -0.6958,4.1007 -0.1654,1.0592 -0.2964,1.9515 -0.4286,3.0432 -2.3823,0.5945 -4.828,1.5539 -7.2425,2.9091 -2.5803,1.4556 -5.0259,3.407 -7.1753,5.6887 -2.1839,2.3479 -4.1007,5.0586 -5.6562,8.1674 -1.5534,3.109 -2.5452,6.5812 -2.9416,10.3166 -0.0998,0.4636 -0.0998,0.9595 -0.0998,1.4881 -0.298,-0.2632 -0.6288,-0.5939 -0.8267,-0.9574 -0.4634,-0.6962 -0.8268,-1.5227 -1.0578,-2.5802 -0.1996,-0.9593 -0.3649,-2.1819 -0.3306,-3.1416 0.0331,-1.0922 0.0331,-1.7534 0.131,-2.4473 0.0674,-0.7941 0.1653,-1.5534 0.3306,-2.2478 0.0676,-0.463 0.1328,-0.8612 0.1653,-1.2897l0.1328 -0.7615c0.4634,-3.0087 0.6612,-5.0254 0.3634,-7.0771 -0.1981,-1.3554 -1.2555,-3.9682 -3.901,-4.0335l-0.6612 0.0327c-1.7535,0.198 -3.8703,1.19 -5.1585,2.0842 -1.6881,1.2225 -3.307,2.7432 -4.7292,4.5294 -0.5963,0.7615 -1.125,1.4556 -1.5208,2.0842 0.2975,-0.7941 0.6282,-1.6209 0.9589,-2.3822 0.1985,-0.496 0.3639,-0.9573 0.5619,-1.4882l0.0652 -0.1652c0.4307,-1.1231 0.861,-2.3148 0.9919,-3.2395 0.0676,-0.8597 -0.0327,-1.5555 -0.3959,-2.0516 -0.2981,-0.4286 -0.6287,-0.7593 -1.0578,-0.9573 -0.4302,-0.2001 -0.8267,-0.298 -1.2568,-0.298l-0.7273 0.0326c-1.0263,0.0652 -1.9182,0.396 -2.7124,0.9594 -0.6614,0.4285 -1.2557,0.9246 -1.7862,1.488 -0.5287,0.6283 -0.9921,1.2897 -1.3227,1.9512 -0.594,0.925 -1.1229,2.215 -1.6191,3.9012 -0.4628,1.5881 -0.959,3.3068 -1.3571,5.2257 -0.3959,1.8187 -0.7922,3.7028 -1.1573,5.589 -0.2963,1.884 -0.594,3.505 -0.7267,4.8929 -0.1979,1.686 -0.2982,3.3069 -0.3634,4.862 -0.1,1.5863 -0.0673,3.0417 0.0652,4.2988 0.1655,1.3559 0.4635,2.4805 0.9269,3.2723 0.594,1.0265 1.586,1.4882 2.8436,1.3572l0.0652 0c0.2326,-0.0344 1.0595,-0.165 1.8187,-0.4305 0.6957,-0.2308 1.786,-1.0572 2.6799,-2.5456 0.5289,-0.8611 1.0902,-3.0759 1.6863,-5.9193 0.1654,-0.6614 0.2977,-1.2249 0.4286,-1.7209 2.5476,-10.2168 6.1851,-12.3332 8.0365,-12.7313 -0.1327,1.1574 -0.2656,2.2822 -0.3963,3.4722 -0.0671,1.488 -0.1998,2.8457 -0.2325,4.3989 0.0327,3.009 0.3307,4.7297 0.6614,6.2175 0.3977,1.6865 1.1575,3.7358 2.0843,4.7952 1.0571,1.288 2.0818,2.0823 3.9005,1.9842l0.0675 0c0.7936,-0.1 1.19,-0.2001 2.0493,-0.5633 0.8939,-0.4286 1.2576,-0.7266 2.0168,-1.488 0.5635,-0.5615 0.8941,-1.0905 1.1246,-1.5861 0.3307,0.6266 0.7616,1.1901 1.2903,1.6861 0.7939,0.7267 1.9842,1.1243 3.4722,1.0573l0.1326 0c0.1322,0 0.4961,-0.0327 1.6534,-0.1981 1.0573,-0.1653 2.3149,-0.596 3.8029,-1.2575 1.4549,-0.6939 3.0741,-1.7512 4.8928,-3.1414 1.2575,-0.9921 2.5475,-2.2805 3.8703,-3.8028 -0.1325,2.1495 -0.2327,4.2663 0.6939,7.1097 0.396,1.1575 0.8594,2.1169 1.6211,3.2091 0.8592,1.1899 2.182,1.8187 3.9007,1.8187l0.1996 0c0.8268,-0.1653 1.4881,-0.3982 2.0498,-0.6614 0.5612,-0.3307 1.1575,-0.7942 1.621,-1.3902 0.6283,-0.6939 0.9589,-1.6191 1.0898,-2.7434 0.0674,-0.3633 0,-0.7289 -0.0327,-1.2248 -0.0982,-0.4286 -0.2982,-0.7594 -0.5287,-1.1227l-0.2979 -0.4633c-0.5614,-1.0253 -0.9251,-1.9189 -1.1248,-2.6455 -0.3961,-1.8862 -0.5287,-3.4722 -0.4286,-6.5484 0.0326,-1.4556 0.1324,-3.0415 0.2631,-4.5972 0.1328,-1.488 0.2656,-3.0415 0.4635,-4.6295 0.1001,-1.0574 0.2323,-2.082 0.3307,-3.1742 0.0327,-0.396 0.067,-0.7267 0.1002,-0.992l0.1979 0c0.7611,0 1.5534,-0.2637 2.3475,-0.8268 0.9268,-0.6615 1.5208,-1.884 1.6861,-3.6375 0.1653,-1.4554 -0.1981,-2.6782 -1.0573,-3.5701 -0.5288,-0.5309 -1.0923,-0.9921 -1.7535,-1.3575 0.1001,-0.594 0.1995,-1.09 0.2654,-1.586 0.0996,-0.5961 0.198,-1.1574 0.2982,-1.5882l0.1979 -0.9594 0.1654 -0.7918c0,-0.0675 1.0571,-5.0604 3.1089,-12.5334 0.3633,-1.2248 0.5286,-2.1494 0.5612,-2.9435 0.1653,-1.1901 -0.1326,-3.109 -2.1821,-3.4723zm29.7617 26.3221l0 0c0.1328,0.694 0.1981,1.5555 0.0652,2.6128 -0.0652,0.9921 -0.2632,2.0838 -0.5286,3.2742 0,0.0652 -1.4881,6.0847 -2.0824,8.9611 -0.463,2.2823 -0.761,4.1011 -1.0916,6.183l0 0.1327c-0.3307,2.0167 -0.8269,6.5158 -1.1248,9.69 -0.5614,6.1502 -0.6939,7.6057 -2.3149,12.3332 -1.7187,4.7949 -5.4562,8.0365 -7.2424,9.0612 -3.2068,1.8514 -6.8442,2.8109 -10.7798,2.911l-0.0653 0 -0.5961 -0.0676c-0.4289,-0.0325 -0.8919,-0.0652 -1.3554,-0.1308 -4.1661,-0.7611 -6.5141,-3.4719 -6.0849,-7.0113 0.2653,-1.8515 1.6207,-2.9437 3.4069,-2.6455 1.6534,0.2653 3.2067,0.4307 4.5965,0.4307 4.2645,-0.0675 7.275,-1.5208 8.9942,-4.5971 1.8187,-3.1414 2.0493,-5.2581 2.3475,-8.167 0.067,-0.3655 0.1001,-0.7286 0.1327,-1.1247 0.1653,-1.4881 0.298,-2.8782 0.4632,-4.3319 -0.7288,0.9251 -1.39,1.7518 -2.0169,2.4132 -1.3228,1.2899 -2.5473,2.282 -3.6377,2.9434 -1.2895,0.7941 -2.5797,1.2572 -3.7698,1.388l-0.033 0c-1.9841,-0.0326 -3.5393,-0.8268 -4.5639,-2.3474 -0.8924,-1.2902 -1.5881,-2.9762 -2.0498,-4.893 -0.496,-1.8861 -0.6959,-3.903 -0.7283,-6.0524 -0.0328,-2.0166 0.0669,-3.9682 0.2323,-5.7216 0.5291,-5.4215 1.5864,-9.7552 3.2071,-12.8292 1.819,-3.4722 4.101,-5.1931 6.8445,-5.1257 0.1001,0 0.3307,0 0.7288,0.0653 0.4631,0.067 0.8919,0.2327 1.2896,0.4633 0.4292,0.2982 0.7598,0.7267 1.0578,1.2572 0.265,0.5943 0.3632,1.3558 0.265,2.2478 -0.0671,0.8942 -0.3977,1.9187 -0.9921,3.0431 -0.5304,1.0903 -1.0265,2.2805 -1.5224,3.5705 -0.3959,1.1575 -0.7923,2.4802 -1.19,4.0009 -0.396,1.4881 -0.6616,3.0762 -0.8269,4.7624 -0.0326,0.2654 -0.0652,0.8591 -0.0982,1.786 -0.067,0.7611 -0.0343,1.5209 0.033,2.4145 0.0327,0.7598 0.1653,1.3884 0.4285,1.9171l0.5635 0.5287 0.5613 0.1c0.3634,0 0.7615,-0.1326 1.1247,-0.396 0.3308,-0.2 1.0249,-0.8615 1.8841,-2.0189 0.5961,-0.8592 1.7536,-2.578 2.6799,-4.8928 0.4617,-1.0922 1.0252,-2.8439 1.6189,-4.7297 0.6616,-2.1167 1.8187,-6.2503 2.5478,-8.0017 0.4284,-1.0922 0.8918,-2.0516 1.4548,-2.9435 0.4617,-0.8268 1.3228,-1.6534 1.9497,-2.0842 0.9922,-0.6615 2.0186,-0.9921 3.2091,-0.9247 0.2631,0 0.5287,0.0652 0.9246,0.1327 0.496,0.165 0.9267,0.4285 1.3226,0.8593 0.2982,0.2307 0.5635,0.7941 0.7615,1.5534zm2.0494 -0.925l0 0c-0.0978,-0.4956 -0.1979,-1.0592 0.0344,-1.9184 0.0983,-0.3633 0.4291,-1.2227 0.6614,-2.0498 0.1984,-1.0592 0.2963,-2.1164 0.0658,-3.1085 -0.2311,-0.8941 -0.2981,-2.1494 -0.0328,-2.8782 0.3634,-1.0899 1.3556,-1.7187 2.0168,-1.8187 1.0574,-0.198 2.1169,-0.131 3.0089,0.3655 0.9919,0.4612 1.786,1.6861 2.0166,2.5454 0.4634,1.8513 0.2329,3.3068 0.0676,4.4968 -0.233,1.3897 -0.8269,2.6781 -1.4554,3.7045 -0.4309,0.7598 -1.125,1.3885 -1.7536,1.8519 -0.7594,0.5613 -2.0166,0.7936 -3.307,0.2981 -0.594,-0.2002 -1.19,-1.0269 -1.3227,-1.4885zm21.7927 25.9919l0 0c0.1979,-1.5881 -0.0652,-3.0088 -0.8268,-4.2664 -0.6612,-1.0572 -1.5534,-2.0166 -2.6127,-2.8764 -0.9922,-0.7611 -2.1495,-1.4878 -3.4049,-2.1491 -1.1905,-0.5634 -2.2169,-1.1579 -3.1088,-1.6884 -0.8593,-0.5613 -1.6209,-1.123 -2.1821,-1.6859 -0.4635,-0.4291 -0.4307,-0.8269 -0.3982,-1.0574 0.0676,-0.4307 0.2982,-0.9267 0.6959,-1.3227 0.4959,-0.5634 1.0576,-1.0252 1.6864,-1.3902 0.594,-0.3633 1.2227,-0.6615 1.8515,-0.8593 0.7265,-0.2307 1.0573,-0.198 1.0573,-0.198l0.7941 0.2306 0.3306 1.1248c0.1002,0.6287 0.2982,1.19 0.4635,1.7204 0.2649,0.627 0.8266,1.4537 2.2489,1.6535 2.1152,0.3637 3.2725,-0.6284 3.8687,-1.4877 0.6939,-1.0269 1.1574,-2.1499 1.3227,-3.4726 0.3634,-2.6455 0.0327,-4.7946 -0.992,-6.3501 -1.0578,-1.4881 -2.5802,-2.4475 -4.5643,-2.7433 -2.0167,-0.3307 -4.1989,-0.1002 -6.3482,0.7266 -2.0843,0.7266 -4.0341,1.8187 -5.7871,3.1741 -1.7535,1.4228 -3.2416,3.0435 -4.4316,4.7623 -1.2902,1.884 -2.0495,3.7371 -2.2478,5.5216 -0.2325,1.5881 0,3.011 0.727,4.1679 0.6615,1.0252 1.5208,1.9497 2.5798,2.7112 0.9578,0.7266 2.0499,1.3555 3.24,1.9184 1.1247,0.5291 2.1167,1.0577 3.0431,1.5212 0.8597,0.4285 1.5539,0.9594 2.0497,1.4206 0.4304,0.3981 0.396,0.6614 0.3634,0.7613 0,0.2651 -0.3307,0.5614 -0.8592,0.8268 -0.7616,0.4305 -1.9516,0.4961 -3.4723,0.2982 -1.1574,-0.1654 -2.0842,-0.4959 -2.8108,-0.9921 -0.9922,-0.7289 -1.8845,-1.092 -2.6456,-1.2249l-0.0658 0c-0.7936,-0.0979 -1.6201,0.2002 -2.5798,0.7289 -0.7939,0.4286 -1.8187,1.4206 -2.0841,3.4047 -0.1978,1.6883 0.2654,3.3417 1.3903,4.9277 1.1573,1.6207 3.1084,2.5803 6.0175,2.9435l0.3308 0.0652c1.2242,0.1002 2.6127,0.0675 4.3315,-0.1653 1.8186,-0.1979 3.6374,-0.7267 5.4237,-1.5206 1.8187,-0.7942 3.4394,-1.9516 4.862,-3.3396 1.5211,-1.488 2.413,-3.4394 2.7437,-5.8195zm-124.6684 -9.8227l0 0c-0.992,1.5556 -1.9514,2.8108 -3.0087,3.7376 -1.1575,1.0573 -2.0843,1.6209 -3.1414,2.2491 -0.4962,0.2637 -0.8924,0.4292 -1.2576,0.4965 0.1998,-0.9593 0.4959,-2.1843 0.9268,-3.2416 0.6612,-1.5881 1.4224,-3.1088 2.4144,-4.5968 1.123,-1.7188 2.0498,-2.8762 3.0092,-3.7029 0.6283,-0.5635 1.2226,-0.9595 1.6202,-0.9921 0.9921,-0.1652 0.9921,1.09 0.9921,1.3555 0,1.6208 -0.7936,3.5048 -1.5551,4.6948zm6.3501 -12.962l0 0c0.7597,0.5286 1.3885,1.3227 1.8845,2.5128 0.4959,1.092 0.6612,2.5472 0.5286,4.2989 -0.1328,2.2494 -0.8268,4.9275 -1.7187,6.9117 -0.9593,2.0842 -2.1826,4.0684 -3.6707,5.8197 -1.4548,1.7535 -3.1758,3.2741 -5.0273,4.5316 -1.6534,1.0901 -3.6703,2.0168 -5.4238,2.4798 0.0676,0.6269 0.1654,1.123 0.3307,1.5865 0.2981,0.7282 0.5305,1.0244 1.225,1.3552 0.5939,0.2982 1.3553,0.3651 2.447,0.1328 0.9577,-0.1981 1.7192,-0.7941 2.5133,-1.4211 0.892,-0.6959 1.8839,-1.4549 3.2393,-1.7204l0.6615 -0.0652c0.6288,0 1.29,0.396 1.6876,0.992 0.364,0.5614 0.6946,1.6208 0.0984,3.2395 -1.3878,4.1335 -5.3562,6.9792 -8.4325,7.9038l-0.9251 0.198 -0.0343 0.0344 -0.3633 0.0655 -0.1654 0.0328 -0.7596 0.0674c-1.9842,0.2306 -4.0353,-0.0674 -5.2578,-0.7615 -1.2575,-0.7269 -2.1496,-1.5533 -3.0764,-2.778 -0.8919,-1.2558 -1.5863,-2.8436 -2.0166,-4.6623l-0.2654 -1.0572 -0.098 -0.7941 -0.0675 -0.5635 -0.0652 -0.7266c-1.0919,-0.0657 -3.6376,-0.496 -4.2336,-0.6615 -0.1979,0.9595 -0.4285,2.0168 -0.6269,3.0762 -0.7611,3.505 -2.1495,8.9286 -2.6124,10.9127 -0.6943,3.1411 -1.5212,4.993 -4.5644,5.9524 0,0 -1.6207,0.5613 -3.5374,0.2633 -4.1664,-0.6614 -4.3663,-4.1335 -5.0603,-6.9118 -1.0574,-4.2989 -2.1822,-14.7808 -2.3148,-20.8333 -0.0328,-0.6614 -0.0652,-1.2552 -0.0652,-1.884l0 -0.5961 -0.0675 -0.5614 -0.3634 -0.1979c-0.1653,0.0326 -0.3306,0.3307 -0.6614,1.1244 -0.4959,1.719 -1.4554,5.0586 -2.2148,8.002 -1.2573,4.9603 -2.7782,10.7148 -3.4394,13.9541 -0.7616,3.011 -1.4881,6.0524 -2.2496,9.0939 -0.5612,2.713 -3.174,4.4317 -4.9258,4.895 -1.8857,0.4961 -3.0432,0.6289 -4.4643,0.2307 -1.951,-0.496 -3.1085,-3.0415 -3.6375,-5.3563 -0.3308,-1.2574 -0.9264,-3.6376 -1.1574,-6.5484 -0.463,-5.7871 -0.6283,-9.8531 -0.4961,-15.7076 0.1654,-6.779 0.7923,-16.6648 1.2231,-22.1886 0.0652,-1.8513 0.1652,-3.6701 0.2306,-5.4888 0,-2.0168 -0.0978,-3.2742 -0.3634,-4.1989 -0.2306,-0.7615 -0.4959,-1.1922 -0.9919,-1.9515l-0.3961 -0.5962c-0.2981,-1.19 2.2473,-3.3067 5.6218,-4.1334 2.0493,-0.4959 3.868,-0.5939 5.3888,0.7941 0.9266,1.1247 1.0919,2.182 1.0265,4.4316 0,0.7593 -0.0999,1.884 -0.1998,2.9432 -0.2631,3.5052 -1.123,9.6881 -1.3882,13.2274 -0.4632,4.8933 -0.9593,10.3496 -1.0575,15.3772 -0.0672,2.4454 -0.0997,7.1425 0.0982,7.9017l0.5287 0.5304c0.3306,-0.0997 0.4634,-0.3306 0.8941,-1.555l0.3308 -1.4556c0.1653,-0.5286 0.2631,-1.0246 0.396,-1.5206 0,0 1.9841,-7.1425 3.6375,-12.962 1.7862,-5.6547 3.5721,-11.4762 4.7621,-14.7482 1.7533,-4.8298 2.6456,-8.3346 5.687,-9.1612 3.0436,-0.7942 5.8546,0.596 6.416,2.9435 0.2979,1.19 0.2979,1.9842 0.1653,6.679 -0.1981,8.2346 0.2979,14.7503 0.4959,21.066 0.1653,2.7108 0.3633,4.8275 0.5962,5.8849 0.1321,0.4636 0.3631,0.5635 0.5613,0.5305 0.3977,-0.0669 0.4959,-0.3976 0.7613,-1.5551 0.0979,-0.5288 0.2306,-1.1248 0.3306,-1.6534 0.6939,-3.7027 1.4551,-7.3734 2.1496,-11.0454 1.686,-8.0669 2.8434,-12.8622 4.8928,-20.3023 2.4474,-8.8631 4.2336,-12.8965 7.2751,-13.6255 2.8782,-0.6286 4.4986,1.8188 4.664,4.2337 0.033,0.8593 -0.3306,2.6782 -0.9264,3.9682 -0.7941,2.3148 -1.5882,4.6296 -2.3475,6.9443 -1.4553,4.7624 -3.4069,11.6394 -6.2178,23.7093l0.2656 0c0.0652,0.0327 0.2306,0.067 0.6612,0.1654 0.6284,0.1001 1.9168,0.398 2.5453,0.398 0.9596,-3.4069 2.0514,-6.2502 3.2743,-8.7304 0.9264,-1.8515 2.0494,-3.4723 2.6127,-4.2989 0.9247,-1.2576 1.9842,-2.2822 2.9087,-3.1742 1.0922,-1.0595 2.2496,-1.9188 3.4396,-2.5475 1.1575,-0.694 2.7784,-1.2227 4.3315,-1.5208l0.0675 0c0.7268,-0.1326 1.7187,-0.1654 2.5455,-0.1001 0.8937,0.0344 1.7861,0.3981 2.5471,0.9268z"/>
   <path class="fil0" d="M189.3737 144.3921l0.2306 0 0.4959 -0.2964 -0.4616 -0.3306 -0.2324 0.0331 0 0.594 -0.0325 0zm-0.0328 1.2248l0 0 -0.4633 0 0 -2.1495 0.7941 -0.0675c0.396,0 0.5939,0.0675 0.7266,0.2001l0.1981 0.4286 -0.4286 0.5287 0.3634 0.5634 0.1653 0.5285 -0.4961 0 -0.1979 -0.5285 -0.4308 -0.3637 -0.2308 0 0 0.8597zm0.3308 -2.8439l0 0c0.9247,0 1.6205,0.7598 1.5859,1.7519 0,0.9593 -0.694,1.7207 -1.5859,1.7207 -0.9268,0 -1.6209,-0.794 -1.6209,-1.7535 0,-0.9593 0.694,-1.7191 1.6209,-1.7191zm0.0326 -0.4629l0 0c1.1574,0 2.1169,0.9593 2.1169,2.1819 0,1.2227 -0.9595,2.1821 -2.1495,2.1821 -1.1905,0 -2.1496,-0.9594 -2.1496,-2.1821 0,-1.2226 0.9591,-2.1819 2.1821,-2.1819z"/>
   <path class="fil1" d="M133.7184 46.9401c0,22.4539 -17.559,40.6742 -39.284,40.6742 -21.6929,0 -39.2535,-18.2203 -39.2535,-40.6742 0,-22.4867 17.5606,-40.6744 39.2535,-40.6744 21.7251,0 39.284,18.1877 39.284,40.6744z"/>
   <path class="fil2" d="M94.2691 7.7212c-10.2843,0 -19.9413,4.2314 -27.1161,11.872 -14.5176,15.4423 -14.1543,40.2762 0.7936,55.2898 7.1097,7.1098 16.4347,11.0454 26.3225,11.0454 10.3164,0 19.939,-4.2337 27.0832,-11.9048 7.0426,-7.5079 10.8129,-17.3609 10.6476,-27.8107 -0.1328,-10.4509 -4.1993,-20.1718 -11.4414,-27.4468 -7.0772,-7.1094 -16.4364,-11.0449 -26.2894,-11.0449zm0 81.5792l0 0c-10.7145,0 -20.8331,-4.2662 -28.5388,-12.0029 -16.2364,-16.3034 -16.6327,-43.2542 -0.8921,-60.0191 7.7711,-8.3346 18.2203,-12.8966 29.431,-12.8966 10.7141,0 20.8333,4.264 28.5368,11.9699 7.8712,7.9038 12.3027,18.4858 12.4681,29.8612 0.1653,11.3091 -3.9356,22.0564 -11.574,30.1582 -7.7711,8.3324 -18.2551,12.9293 -29.4308,12.9293z"/>
   <path class="fil0" d="M139.0439 65.7891c-0.761,0.4635 -2.2818,0.7615 -2.7126,0.4635 -0.2636,-0.1327 0.6616,-0.2982 1.4554,-0.6941 4.2332,-2.2495 3.4723,-9.2591 2.2148,-7.7715 -0.892,1.223 -2.1152,2.4458 -4.3969,2.3805 2.0494,-2.5128 2.2817,-5.9849 1.5207,-5.391 -1.4881,1.5881 -4.0682,7.0444 -15.4425,5.1604 0.2961,-0.3982 0.6943,-0.7942 1.0577,-1.1922 -0.5961,-0.3307 -1.1901,-0.9247 -1.7862,-1.8187 -1.7518,-2.8435 -3.2069,-3.3396 -4.101,-3.5702 1.4556,-1.4554 2.4475,-2.9761 3.3068,-4.697 2.9438,-6.5137 2.613,-13.5908 2.2822,-15.4748 -0.3307,-2.8782 -1.0248,-7.3752 -3.2398,-11.6066 -2.4801,-4.7623 -4.8945,-13.4928 -13.2619,-16.4037 -1.6859,-0.0978 -2.578,0 -4.0661,0.6614l-1.7207 -1.8188c-0.892,-0.7922 -3.4722,-1.5206 -4.6296,-1.9492 -2.4126,-0.0675 -4.4968,-0.6288 -7.1423,0.0979 -11.1762,3.1416 -16.171,8.9285 -19.4779,19.543 -0.2632,0.8943 -0.6612,3.7377 -0.694,4.6296 0.1001,-0.2963 -3.6374,11.4435 -1.1574,17.857 0.4635,0.5635 0.5287,1.5882 0.9595,2.1169 1.1901,2.8435 3.0759,4.597 4.1988,7.1768 -3.6702,0.1984 -4.9603,5.9524 -5.058,6.4488 -11.5089,1.9492 -14.1543,-3.5724 -15.6423,-5.1604 -0.694,-0.627 -0.4961,2.8782 1.5882,5.391 -2.2822,0.0652 -3.4722,-1.1575 -4.3991,-2.3475 -1.2557,-1.4554 -2.0168,5.5541 2.2495,7.7711 0.7937,0.4285 1.6861,0.5613 1.455,0.7267 -0.463,0.2981 -1.9841,0 -2.7124,-0.4961 -0.3308,-0.198 -0.4292,0.3634 -0.0985,0.729 10.9458,7.5382 16.004,-0.729 17.6917,-0.9922 6.0508,1.7839 16.7979,-2.6455 12.0357,-6.4487 -1.2884,-2.0838 -3.2396,-5.6887 -3.2725,-9.8224 -0.2976,-2.3473 -0.0345,-3.0745 -2.5145,-2.8433 0.8941,-2.8435 1.7862,-5.3237 0.8941,-9.5899l-0.4634 0.3305c4.8602,-4.9275 14.4845,-5.4889 19.7411,-10.9126 0.6956,-1.223 3.4069,-1.6208 4.0356,-2.9108 -0.5962,4.4315 -2.5133,8.3671 -6.4813,12.2353 0,0 2.7763,0 4.9932,-1.6191 3.7698,-2.8103 5.5215,-6.2172 8.1671,-9.1281l0.694 -1.0248c0.4306,0.2655 1.2899,0.9595 1.5554,1.4229 3.0414,4.8928 0.5614,3.7028 3.9683,8.1998l0.7266 1.488c0.7615,1.4554 1.092,2.3492 2.051,3.705 1.2233,0.8593 0.9578,2.3149 1.6867,4.8601 -0.1986,3.1417 -0.7942,5.5564 -2.844,6.9445 -0.0998,2.7125 -2.3148,9.0286 -2.3148,9.0286 0.1984,0.6283 -2.3491,4.795 3.6031,6.0502 1.5882,0.3307 3.9683,0 5.9867,-0.396 0.1655,-1.3227 0.5945,-2.6127 1.2557,-3.8028 -0.0652,0.3959 -0.0982,0.761 -0.0982,1.1574 0,1.0922 0.2311,2.1169 0.5617,3.1089l0.198 -0.0675c1.6535,0.2328 6.6807,8.5326 17.6917,0.9921 0.3633,-0.3959 0.2324,-0.9246 -0.0983,-0.7266z"/>
   <path class="fil3" d="M107.7596 74.7176c-0.4285,-1.0922 -0.7592,-1.8188 -0.7266,-2.8108l-0.4635 -0.396 0.0327 1.1226 -1.9497 -0.7918c-0.1653,0.2632 -0.2651,0.6614 -0.2323,1.2225 0.6288,3.8029 2.3474,5.7544 2.8108,6.2504 0.4634,0.4961 0.8266,0.5614 1.2575,0.5614 0.463,0.067 0.8267,-0.0979 1.1243,-0.4635 0.727,-1.0246 -0.9922,-2.6781 -1.8532,-4.6948z"/>
   <path class="fil3" d="M87.953 76.0077l-1.0265 -1.2575c-0.7266,4.5969 -2.3473,5.8196 -1.8187,6.9769 0.1655,0.3656 0.5634,0.6963 0.5634,0.6963l0.694 0.2307c0.396,0 0.7611,-0.0658 1.0248,-0.4309 1.2245,-1.5533 2.0511,-4.1335 2.3475,-5.8195l0 -1.0574 -1.7844 0.6615z"/>
   <path class="fil3" d="M84.4137 73.8256l-1.7187 -0.4308 -0.1984 -1.092 -0.3651 0.5308c-0.1653,0.7267 -0.2961,1.3555 -0.9576,2.8762 -0.7283,1.7186 -2.9431,3.4721 -0.7283,4.1662 0.7283,0.1653 1.1247,-0.1327 1.4553,-0.396 1.3228,-1.2249 2.5128,-4.0357 3.0759,-5.7544l0.1985 -0.9594 -0.7616 1.0595z"/>
   <path class="fil3" d="M101.6764 76.0403l-2.0184 -1.092c0.6285,3.6375 1.9187,6.2177 2.6127,7.1772 0.298,0.3307 0.6614,0.5287 1.092,0.594l0.7267 -0.131c0,0 0.5287,-0.265 0.694,-0.6615 0.3982,-1.1917 -1.5208,-3.141 -2.0167,-7.5726l-1.0904 1.686z"/>
   <path class="fil3" d="M93.6403 83.1501c2.1167,0.5613 4.0335,-1.1248 4.0335,-1.6861 0.0345,-0.4308 -1.0572,-2.2495 -1.4882,-2.6781 -0.2306,-0.2327 -1.1229,-0.8942 -2.2803,-0.4634 -0.6614,0.2307 -1.9183,1.5534 -1.8858,2.7434 0.0672,1.0595 1.6209,2.0841 1.6209,2.0841z"/>
   <path class="fil4" d="M79.2556 28.4216c5.9849,-1.8187 8.4976,-6.7465 14.1193,-10.8125 -0.9578,0.1305 -2.115,0.6614 -2.9087,1.157 -4.7297,2.8112 -6.2178,4.034 -8.4324,5.6215 -2.2497,1.5539 -5.093,3.4379 -7.143,4.1994 -0.0342,0 1.4211,0.8592 4.3648,-0.1654zm27.0503 -25.2973l0 0c7.8041,1.8187 8.6635,9.4571 12.8297,18.453 -4.2988,-5.5891 -5.6216,-12.2028 -11.3086,-14.8482 -1.0252,-0.4308 -2.6453,-0.8597 -4.0684,-0.4308 -0.9919,0.2981 -2.38,1.1575 -2.38,1.1575 0,0 -0.3305,-1.09 -1.0922,-1.7513 -2.909,-2.5149 -10.0857,-2.6454 -14.9458,-1.3227 -2.217,0.6265 -4.0357,1.686 -5.6219,2.8103 -2.58,1.7844 -3.3398,2.6111 -5.0603,4.6297 -0.8267,1.0577 -1.7518,2.5132 -2.1494,3.2724 -1.5534,3.1414 -3.0745,6.9444 -4.4644,13.1948 1.2245,-1.9842 4.0354,-5.4237 4.5644,-5.2239 0,0 -5.5238,5.5546 -3.9031,15.1771 0,0 0.8268,-2.5781 7.2751,-5.0909 6.4811,-2.5149 12.5661,-4.1008 17.361,-8.4329 3.174,-2.9105 5.7218,-7.4747 5.7218,-7.4747 1.1241,0.9267 0.8592,8.0692 -9.988,13.8561 -5.8523,3.1741 -6.779,2.7129 -10.2169,4.1662 -3.4065,1.4554 -3.5718,5.391 -3.3737,8.8306 -0.0652,2.6781 0.4632,3.4047 0.8936,8.7301 0.627,1.421 0.8924,2.5457 0.8924,3.4051 0.8268,1.7209 1.7187,2.6456 3.7371,5.3911 -2.6122,3.9355 -7.0766,4.3315 -12.1044,4.3315 -2.8761,0 -2.8761,0.4635 -3.7354,1.2227 -3.8028,3.4069 -10.5493,4.0356 -15.1136,-0.131l-0.5287 -0.5957c0.8939,0.7614 2.0167,1.1248 3.2417,1.3554 7.2077,1.0248 10.9452,-3.9682 10.9452,-3.9682 4.5295,-4.7623 10.9778,-1.6208 9.8547,-6.877 -0.8267,-2.1842 -3.9024,-6.1851 -4.862,-7.6405 -5.1907,-8.0344 -2.6781,-16.2688 -1.3226,-19.4756 0.3634,-2.9761 0.9919,-6.0851 1.5882,-8.2672 3.0738,-10.7478 7.9364,-18.1225 18.7815,-20.9332 2.8451,-0.7615 5.8213,-0.694 7.573,-0.5613 1.4229,0.2632 4.399,0.4611 6.0195,2.149 0.2963,0.2637 0.5617,0.6945 0.6944,1.3558 1.5206,-0.7288 2.4125,-0.7288 4.2658,-0.4633zm7.9364 20.8331l0 0c2.4457,3.3395 8.4325,9.1592 7.8693,18.3205 0,0 0.7616,-2.3149 0.6616,-5.3584 -0.3633,-13.4908 -7.7042,-14.0541 -13.3258,-25.1648 0,0 -0.8269,4.5643 4.7949,12.2027zm24.9668 42.4931l0 0 -0.4961 0.5614c-4.5639,4.1683 -11.3429,3.5396 -15.1784,0.1653 -0.6287,-0.5613 -0.794,-0.9921 -2.0841,-1.1575 -0.4634,-1.09 -0.7267,-2.2805 -0.7267,-3.5374 0,-0.3964 0.0652,-0.7615 0.098,-1.1574 -0.5287,0.9594 -0.9247,1.9515 -1.123,3.0088l-0.4961 0.2981c-5.4908,2.2147 -8.7976,0.7266 -10.9127,-3.7028l1.4881 -2.1167c0.4291,-0.9922 1.7844,-3.9682 2.1496,-8.0366 0.6269,-5.3889 0.5942,-6.6137 0.7922,-7.9364 0.2655,-2.5785 0.2655,-3.2399 -0.2963,-5.0582 -0.463,-1.5229 -0.8268,-2.0517 -1.7204,-3.7702 -2.1495,-3.209 -2.9762,-4.6297 -4.0009,-6.7138 -0.7615,-1.4556 -0.9269,-2.182 -1.1901,-3.0415 0,0 -1.9842,4.9929 -6.0523,8.1344 -3.4722,2.6456 -6.1829,3.5374 -8.1669,3.1416 3.0085,-1.7536 6.1175,-3.7028 8.4323,-7.6058 3.2068,-5.4237 3.8028,-10.9126 3.8028,-10.9126 0,0 0.198,-0.0326 0.8593,0.3634 0.4962,0.298 1.3879,1.2575 1.819,2.9435 0.1978,0.6288 0.8919,3.0088 1.6859,4.9602 1.5209,3.4723 2.911,5.1583 5.9849,8.0692 2.9437,2.8435 5.8216,6.8444 4.7624,12.7314 -0.6615,3.4392 -2.1169,5.5541 -3.7703,8.4651 -0.5286,1.1247 -0.694,1.9515 -0.5612,3.1414 0.4302,3.1417 3.4722,1.4554 7.2424,2.4144 -0.2653,0.3638 -0.4959,0.6945 -0.7288,1.1579 1.4228,0.4285 2.9109,1.1226 4.2337,2.5128 0,0 3.737,4.993 10.9451,4.0008 1.19,-0.1979 2.3147,-0.596 3.2085,-1.3227z"/>
   <path class="fil5" d="M114.0425 38.6072c-0.6612,-0.1322 -0.9244,0.1985 -1.2552,0.8597 -0.0331,-0.4633 -0.1984,-0.992 -0.3637,-1.686 -0.463,-1.5229 -0.8611,-2.019 -1.7531,-3.7702 -2.1495,-3.2416 -2.9761,-4.6297 -4.0009,-6.7138 -0.7614,-1.4556 -0.9267,-2.182 -1.1574,-3.0415 0,0 -1.9842,4.9929 -6.085,8.1671 -3.5047,2.6782 -6.1833,3.5392 -8.1342,3.1414 3.7696,-3.7027 5.6541,-7.4077 6.3807,-11.5414 -1.5535,2.217 -4.1987,4.7297 -8.465,7.0446 -5.8521,3.174 -6.779,2.7105 -10.2186,4.1662 -2.4127,1.0245 -3.2068,3.3394 -3.4047,5.8543 0,-0.4307 -0.033,-0.7613 -0.1,-1.092 -0.0652,-1.3885 -0.4635,-1.3554 -0.4635,-1.3554 0,0 -2.1495,0.0327 -2.2805,3.3721 -0.0343,2.0516 0.2964,2.6455 0.5945,3.3395 0.3307,0.794 0.6938,1.7862 1.1572,2.0189 0.8594,0.396 1.2246,0.1305 1.3556,-0.0347l0.0344 0.298 0.0329 0.2981 0.0978 0.4635c0.6615,4.4643 1.2902,7.1749 2.415,8.861l0.2651 0.6962c0.2636,0.4612 0.4617,0.8263 0.6944,1.19 0.7266,0.594 1.1243,1.1901 1.1901,1.7514l0.1326 0.1997 0.4286 0.5616 0 0.0652 0.2981 0.3307c0.4633,0.496 0.9267,0.9267 1.3554,1.2575l-0.2633 8.6974 0.2633 1.4211 1.6876 0.4308 0.8269 -1.1247 2.7437 3.2742 2.4149 -0.8594c0,0 0.5614,0.2632 1.0248,0.694 0.496,0.4286 3.5046,1.8188 3.5046,1.8188l1.3898 -0.5634 1.7518 -1.3555 0.7283 -1.29 2.9091 1.5881 2.7784 -4.2989 2.1819 0.892 -0.1979 -9.853 0.7941 -0.9269c0.8267,-0.9593 1.7858,-2.0167 2.5128,-3.1414l0.0652 -0.198 0.0344 -0.0658 0.0657 -0.1996 0.0652 -0.0979 0.0675 -0.198 0.0652 -0.1658 0.0669 -0.1649 0.0985 -0.2328 0.067 -0.1653 0.0983 -0.2632 0.067 -0.1657 0.0983 -0.2976 0.067 -0.1653 0.0983 -0.3307 0.0327 -0.1985 0.1326 -0.3305 0.0671 -0.165 0.0983 -0.3655 0.0327 -0.198 0.1001 -0.396 0.0326 -0.2328 0.1 -0.396 0.0328 -0.231 0.0996 -0.4304 0.033 -0.231 0.098 -0.4304 0.0345 -0.2655 0.0654 -0.496 0.0328 -0.198 0.0671 -0.7591c0.1651,-1.423 0.2961,-2.5477 0.3637,-3.4727 0.2305,0.1657 0.7936,0.3637 1.488,-0.3977 0.8919,-0.7267 1.6205,-2.9436 1.6205,-4.7624 -0.067,-1.488 -0.463,-3.2067 -1.3573,-3.4378z"/>
   <path class="fil3" d="M68.8389 58.2486c0,-0.4617 -0.0658,-1.1231 -0.2654,-1.8841 -0.2306,-1.1574 -0.4286,-1.9188 -0.8918,-3.9682 -0.5287,-2.38 -2.05,-2.4801 -2.613,-2.4149 -0.4289,0 -2.6129,0.6288 -4.1335,1.8862 -1.5533,1.2226 -1.5863,2.1168 -1.3879,2.7433 0.1653,0.496 0.8918,1.9189 1.4881,2.6803 1.6534,2.1145 4.1334,2.6106 3.1085,3.3721 -0.3308,0.3306 -0.2651,0.9267 0.0982,2.2147 0.298,0.8267 0.563,1.5224 0.8267,1.9842 0.2656,0.398 0.5287,1.1247 1.5551,1.2248l0.5292 0.198 -0.1655 1.0917c0,0.4615 0.594,1.8517 0.892,2.5457 0.2982,0.7942 1.0246,4.3316 2.6128,4.3316 0.7611,0 1.4556,-0.198 2.0838,-0.396 1.4881,-0.4635 3.3724,-1.7535 3.6032,-2.7783 0.3306,-1.4554 -0.5612,-2.0497 -1.0246,-2.7455 -0.8593,-0.9247 -2.8436,-2.9087 -3.4053,-3.5374l-0.463 -0.4635c-0.5635,-0.5613 -0.2654,-0.7267 -0.033,-1.09 0.2636,-0.6287 -0.563,-2.3822 -0.7937,-2.7782 -0.3638,-0.5286 -0.9593,-1.2248 -1.5211,-1.2248 -1.0918,-0.198 -0.0998,-0.2633 -0.0998,-0.9921z"/>
   <path class="fil2" d="M68.0775 65.1603c1.5225,-0.6287 1.4554,-0.6614 1.9842,-1.1574 0.1653,-0.1327 0.6288,0.1002 0.2328,0.7942 -0.1654,0.298 -0.4309,0.1652 -0.3981,0.794 0.0673,0.8268 1.7535,2.0494 0.6287,2.3148 -1.0245,0.198 -1.6209,-1.7535 -1.6861,-2.0516l-0.7614 0c-0.496,0 -0.9245,-0.2959 0,-0.694z"/>
   <path class="fil2" d="M64.8381 57.1256c0.1322,1.0904 0.9591,2.3479 1.6533,1.6534 0.463,-0.4303 -0.3981,-0.563 -0.9919,-3.141 -0.3639,-1.6208 -0.7941,0.6265 -0.6615,1.4876z"/>
   <path class="fil1" d="M67.2507 59.6387c-0.7265,0.0979 -1.5205,0.1322 -1.8839,0.594 -0.3307,0.496 -0.3965,0.5962 -0.1653,1.0595 0.2649,0.4285 0.3959,0.0652 0.794,-0.2981 0.3959,-0.3306 0.8594,-0.5617 1.2227,-0.5961 0.3307,-0.0652 0.794,-0.2631 0.9266,-0.627 0.0652,-0.365 -0.2654,-0.1997 -0.8942,-0.1322z"/>
   <path class="fil3" d="M122.0135 65.193c0.5618,0 1.3558,-0.8593 1.7192,-1.4206 0.2306,-0.3637 1.2225,-2.1169 0.6288,-2.7129 -0.2982,-0.3307 -0.3982,-0.4285 0.0977,-0.892l0.496 -0.496c0.5962,-0.6287 3.0762,-3.4069 3.672,-4.0684 0.3306,-0.4615 1.3227,-1.2878 0.925,-2.4457 -0.3633,-0.8263 -2.8108,-2.1491 -4.1008,-2.6455 -0.7268,-0.3307 -1.5535,-0.5956 -2.1152,-0.6614 -1.2571,-0.1322 -2.3149,3.6706 -2.5798,4.4648 -0.2311,0.6939 -0.5963,2.2473 -0.5963,2.7107l0.2656 1.0573 -0.5287 0.1654c-1.1574,0.1326 -1.7209,0.8941 -1.9515,1.1573 -0.2654,0.2981 -0.6287,1.0265 -0.8923,1.7862 -0.3307,1.2901 -0.1998,1.8188 0.131,2.1495 1.1917,0.7283 -1.3229,1.0591 -3.0743,3.4723 -0.6288,0.7288 -1.5211,2.084 -1.6534,2.5802 -0.1983,0.5939 -0.3305,1.3228 1.5535,2.6455 1.4228,1.1573 4.1335,1.8187 4.6296,1.8513 0.596,0.0652 1.8514,0.3634 2.3148,-1.9841 0.3978,-1.9842 0.5286,-2.5803 0.6939,-3.4722 0.1999,-1.0577 0.2654,-1.9189 0.1999,-2.2147 -0.0671,-0.6288 -1.0265,-0.9595 0.1652,-1.0269z"/>
   <path class="fil2" d="M120.4258 64.8971c-1.6861,-0.1326 -1.6861,-0.2654 -2.2153,-0.6612 -0.1653,-0.1327 -0.9261,0.2631 -0.3977,0.7265 0.1981,0.1653 0.5632,0.6614 0.431,1.2227 -0.1986,0.7613 -1.2902,2.2169 -0.2329,2.0842 1.1918,-0.198 1.4881,-1.9189 1.6209,-2.1821l0.6287 -0.3982c0.4961,-0.0326 1.0249,-0.7266 0.1654,-0.7918z"/>
   <path class="fil2" d="M123.8653 57.5545c-0.3307,0.7615 -0.5634,1.7862 -1.5555,1.2577 -1.2552,-0.6945 0.3307,-1.6866 1.2574,-2.7457 0.8595,-0.9594 0.5614,0.8942 0.2982,1.488z"/>
   <path class="fil1" d="M122.5427 59.8694c-0.5962,-0.496 -1.1905,-1.0572 -1.7862,-1.0572 -0.5963,0.0326 -0.8269,0.1325 -0.9595,0.6612 -0.0982,0.496 0.2655,0.3633 0.7614,0.396 0.594,0.1001 1.1575,0.496 1.488,0.7289l1.0575 0.198c0.1979,-0.2328 -0.0328,-0.4635 -0.5613,-0.9268z"/>
   <path class="fil1" d="M89.1761 59.2754c0,0 -0.8268,-2.1168 -1.6862,-2.0842 1.4882,0 3.505,0.2981 4.9931,0.198l0.9592 -0.2306c2.3475,-0.2327 5.0926,0.4634 7.242,-0.2327 -0.7283,0.7288 -1.2243,2.48 -2.2489,3.011 -1.1247,0.5939 -3.7702,0.7593 -5.3566,0.6614 -1.7531,-0.1001 -2.7452,-0.6963 -3.9026,-1.3228z"/>
   <polygon class="fil0" points="79.4862,47.832 79.9496,47.3708 80.5457,47.832 79.9496,48.3955 "/>
   <polygon class="fil0" points="81.8354,49.4201 82.3644,48.8916 82.9258,49.4201 82.3644,49.9162 "/>
   <path class="fil0" d="M83.7851 46.5093l0.6286 -0.4961 0.4961 0.4961c-0.0984,0.3981 -0.2982,0.5308 -0.4961,0.5308 -0.4289,0 -0.6612,-0.1657 -0.6286,-0.5308z"/>
   <polygon class="fil0" points="86.1342,48.5609 86.5959,47.9973 87.0592,48.5278 86.5959,49.0568 "/>
   <polygon class="fil0" points="88.449,45.9806 88.9451,45.5171 89.4411,45.9806 88.9107,46.5093 "/>
   <polygon class="fil0" points="99.3946,46.1459 99.8906,45.75 100.2865,46.3439 99.6923,46.6094 "/>
   <polygon class="fil0" points="102.5029,46.7421 102.9321,46.3439 103.3297,46.9074 102.7668,47.3033 "/>
   <path class="fil0" d="M106.6366 46.3439c0.0658,-0.2958 0.2638,-0.4285 0.6615,-0.3633l0.3637 0.563 -0.5634 0.4965c-0.3634,-0.1 -0.496,-0.398 -0.4617,-0.6962z"/>
   <polygon class="fil0" points="104.2221,48.6588 104.9161,48.2628 105.3139,48.8916 104.7183,49.2873 "/>
   <polygon class="fil0" points="107.4964,48.9241 108.1246,48.5278 108.5537,49.1221 107.9594,49.5198 "/>
   <path class="fil1" d="M84.6793 39.5648c-1.5213,0.4308 -2.6785,1.6535 -3.1416,2.8783l0.8919 0.8592c0.4309,0.1654 1.8514,-0.1 2.3474,-0.1 1.6879,0.0344 3.5724,-0.7593 3.0763,-1.784 -0.0326,-0.0347 -1.6209,-2.2822 -3.174,-1.8536z"/>
   <path class="fil1" d="M106.4369 42.5411c0.4307,-0.694 -1.4538,-3.3069 -2.6456,-3.1742 -1.1899,0.1001 -2.082,0.563 -3.0414,2.0842l-0.0658 0.5939c0.4292,0.7615 1.7519,1.3576 3.24,1.3229 0.496,0 0.992,-0.0328 1.3897,-0.1654 0.033,-0.4612 0.6944,0.0344 1.1231,-0.6614z"/>
   <path class="fil2" d="M94.1035 82.7867c1.3227,0.3634 2.4802,-0.3632 2.6783,-1.3553 0.1326,-0.6288 -0.0658,-1.2575 -0.2982,-1.6883 -0.198,-0.4286 -0.4288,-0.6266 -0.892,-0.9573 -0.4633,-0.3306 -1.1905,-0.2654 -1.4229,-0.2001l-0.1978 0.1001c-1.2575,0.5286 -2.0168,3.5718 0.1325,4.1009zm-11.1777 -18.0897l0 0c0,1.9189 -0.0327,3.8029 -0.0652,6.3831 0.1979,0.3307 0.463,0.7266 0.8267,1.2571 0.5939,0.8924 1.4881,-2.0837 2.5452,-1.455 1.125,0.6615 1.0923,2.7434 2.2822,3.7355 0.7267,0.596 2.0495,-2.7434 2.7784,-0.9246 0.7592,1.951 2.1163,2.38 3.6043,3.174 0.6614,-0.596 1.6189,-0.6939 2.4132,-1.686 0.7613,-0.9267 1.2243,-1.8517 1.786,-2.0167 0.8593,-0.2655 1.388,1.9166 2.315,1.586 1.5206,-0.594 1.2569,-3.4723 2.678,-3.8682 0.694,-0.1984 0.8267,1.0573 1.6859,1.2227 0.8269,0.1327 1.6211,-2.9435 2.0843,-4.1989 0.2307,-0.6288 0.5286,-0.7941 0.9921,-0.6288 0.6614,0.2655 0.6939,1.1901 0.794,2.8109 0.0652,2.249 1.0574,4.399 2.2819,5.9197 1.223,1.488 -1.8858,0.6614 -3.0759,-2.5803 -0.7272,-2.0494 -0.5618,-2.0494 -1.0922,-1.0246 0,0 -1.0248,1.8514 -1.6861,2.0494 -0.8593,0.2654 -1.6861,-1.0574 -1.6861,-1.0574 0,0 -0.9919,3.6049 -2.7111,3.6049 -1.5877,0 -2.1494,-1.7862 -2.5471,-1.0922 -0.2638,0.4961 -0.6288,1.2901 -2.1169,1.8188 0.7941,0.6614 1.4553,1.2575 1.7535,2.3823 0.5613,2.6454 -1.3227,4.2989 -3.5722,4.4969 -1.6191,0.0978 -3.57,-0.5962 -4.0659,-2.1495 -0.5635,-1.9842 0.5939,-3.8029 1.7855,-4.6623 -1.0915,-0.2981 -1.9183,-1.0268 -2.5797,-1.9841 0,0 -0.8924,1.3227 -2.215,1.0246 -0.8939,-0.1326 -2.0187,-1.8518 -2.4145,-3.3744 0,-0.0652 -0.9269,1.2902 -2.0167,1.1249 -1.4554,-0.2637 -1.4229,-1.3555 -2.1495,-2.4476 -0.1653,-0.2306 -0.6944,-1.0248 -0.7941,-0.3633 -0.0658,0.563 -0.2311,1.3227 -0.6288,2.1495 -0.7597,1.5555 -2.8761,3.2415 -3.8355,2.6129 0.8267,-0.3634 2.2146,-2.0842 2.6781,-3.6049 0.4308,-1.7188 0.563,-3.307 0.3977,-5.0256 -0.1653,-1.3227 1.123,-0.5961 1.9841,0.3307l0.0332 -0.8943c0.0652,-0.9576 0.0652,-2.0167 0.0652,-3.0739 0,-0.4308 -0.1654,-1.2902 -0.7267,-1.9189 -0.5289,-0.6614 -1.3558,-2.0167 -1.7862,-2.7108 0,0 -0.5618,-0.8941 -0.8923,-1.5555 -0.3307,-0.594 -0.6284,-1.2883 -1.0591,-2.5454 -0.3308,-1.0245 -0.694,-2.5453 -0.9251,-4.4968 -0.2324,-1.9515 -0.1996,-2.4149 -0.2324,-3.7049 0.2654,1.2248 0.6288,3.1758 0.7614,3.8028 0.594,2.8783 1.1574,4.1684 2.1165,5.9197 0.9577,1.7862 2.1825,3.209 3.3399,4.4968 0.6612,0.7289 2.082,1.9515 3.0087,2.6804 1.19,0.992 1.7187,1.4531 3.109,2.3148 1.19,0.8263 3.4047,2.3799 6.4483,2.3473 2.8107,0 4.3967,-1.1904 5.3235,-1.7207 1.9842,-1.2227 3.0088,-2.1495 4.3986,-3.505 1.5863,-1.5533 2.3804,-2.3148 3.3725,-3.4721 1.2226,-1.5207 2.38,-3.1416 3.4396,-6.9445 0.5611,-2.0824 0.9245,-4.5621 1.1574,-5.8849 0.0652,0.4612 0.0979,1.0248 -0.0676,2.9087 -0.131,1.3902 -0.2631,2.6128 -0.5612,3.8699 -0.3964,1.8193 -0.7941,3.0418 -1.4881,4.3646 -0.727,1.3879 -0.8923,1.4881 -2.1169,3.3721 -0.8266,1.2575 -0.8592,1.29 -0.9249,2.217 0,3.9682 -0.8611,9.3569 -1.5225,0.794 -4.1987,3.6703 -7.8037,5.9849 -11.209,6.0503 -3.3068,0.0327 -6.8459,-2.2822 -11.4754,-6.2504zm20.3045 -26.3221l0 0c-0.694,0.2654 -1.8187,1.29 -2.1821,1.8857 -0.4635,0.7598 -0.7941,2.0498 -1.3901,2.0825l-0.3634 -0.5613c-0.4635,0.0978 -0.7267,0.5286 -0.6288,0.9921l0.6288 0.463c1.0922,0.1657 1.29,-0.8938 1.686,-1.4877 0.3651,-0.4965 1.0596,-1.2575 1.488,-1.4885 0.3308,-0.2324 0.8611,-0.3651 1.3227,0l-0.198 0.8271c-0.4959,0 -0.9919,-0.1657 -1.2225,-0.1 -0.2328,0.0327 -0.5962,0.6939 -0.6615,1.5207 0.5286,0.2328 0.6615,-0.198 1.1902,-0.198 0.8266,0 1.6534,0.5613 2.0836,0.1327 0.3965,-0.4308 0.3965,-1.2248 0.3965,-1.5882 0.6939,0.0327 1.0245,1.0922 0.7265,1.5882 -0.2631,0.2981 -0.7922,0.2306 -0.7922,0.7593 2.4131,0.5309 2.6785,-0.5287 2.8439,-1.1226 0.1322,-0.4308 0.0652,-0.8272 -0.1326,-1.4554 -0.694,-1.8514 -2.8434,-2.911 -4.7949,-2.2495zm-22.454 4.7622l0 0c0.4635,0.2655 1.3553,0.7267 2.0843,0.4635l-0.3308 -0.4307c-0.4635,0 -0.7614,-0.4286 -0.7614,-0.6615 0.0671,-0.6288 0.694,-1.6534 1.4554,-2.0493 0.6939,-0.4961 1.2227,-0.2329 1.4224,0.1322l-0.365 0.627 -0.9921 -0.1307c-0.5287,0.594 -0.3632,1.3229 -0.131,1.586l0.5292 0.2324c0.3633,-0.463 1.2226,-0.463 2.1493,-0.3977 0.396,-0.2981 0.396,-0.9595 0.4962,-1.5207 0.6283,-0.7615 0.9589,0.7614 1.3878,1.3554 0.2981,0.3981 0.5962,0.8268 0.9595,0.8938 0.6614,0.0982 1.4881,-0.463 1.1901,-1.455l-0.9251 0.0978c-0.7936,-0.7593 -0.0671,-2.3148 -1.6534,-3.1741 -1.753,-0.892 -4.4311,-0.5613 -5.4907,0.8267 -0.4285,0.496 -0.8594,1.0923 -1.2226,2.0167 -0.1654,0.6288 -0.3308,1.2576 0.1979,1.5882zm16.4691 6.7791l0 0c-1.0923,-0.3307 -1.3228,0.8593 -2.3823,0.8593 -1.4881,0 -1.8188,-0.9595 -2.6112,-0.9251 -0.6611,0.0658 -0.9919,1.1231 -1.4549,1.1905 -0.3637,-0.0674 -0.2655,0.5286 0.1654,0.6614 0.8919,0.2632 0.7266,-0.529 1.2895,-0.2981 0.3639,0.1327 0.4292,0.761 1.4538,1.2227 0.9919,0.496 2.0184,-0.0979 2.9109,-0.9247 0.5613,-0.5634 1.6533,-0.5634 1.3553,-0.8941l-0.7265 -0.892zm2.2146 -14.2852l0 0c0.0671,0.3306 1.1247,0 1.5882,-0.1997 0.3305,-0.1309 0.6612,-0.2959 1.1574,-0.4285l1.1242 -0.1327c0.7271,0 1.1905,0 1.8188,0.1327 1.0251,0.1652 2.909,1.2226 3.0419,0.7265 0.1979,-0.8266 -0.5287,-1.488 -1.0922,-1.8187 -1.3229,-0.7266 -3.3722,-1.1247 -5.1909,-0.3633 -0.6288,0.2981 -0.7941,0.5613 -1.3886,0.9595 -0.3977,0.3307 -1.1243,0.7267 -1.059,1.1243zm-7.2424 21.991l0 0 1.39 -0.1327c2.315,-0.1979 4.4644,0.396 6.5806,-0.2327 -0.7282,0.7289 -1.357,1.8532 -2.4144,2.3822 -1.1247,0.5614 -3.1739,0.5614 -4.8272,0.463 -1.6534,-0.0996 -3.0092,-1.0917 -4.1337,-1.7204 -0.3306,0.9594 0.1654,1.3554 0.9247,2.0167 0.794,0.7614 2.0516,1.7862 3.9682,1.8188 2.778,0.1001 4.9602,-0.198 6.3503,-2.5781 0.4286,-0.7613 1.5533,-2.3474 2.7435,-2.9435 0.6957,-0.3307 2.2168,-1.0573 1.9514,-1.4881 -0.4289,-0.6287 -1.3553,-0.4959 -2.0166,-0.3306 -0.4962,0.1 -0.6288,1.0246 -1.4556,1.0922 -1.9171,0.2631 -3.8028,-0.4635 -6.216,-0.3657 -1.7204,0.0349 -3.0757,0.4635 -4.9601,0.6288 -1.7858,0.1327 -2.382,-0.8268 -4.068,-1.0573 -0.7613,-0.1 -0.8923,0.3633 -0.3306,1.09 0.5285,0.5962 1.4554,1.1247 2.2146,1.1247 1.5556,0 2.8109,0.3633 4.2989,0.2328zm-4.7948 -22.356l0 0c-0.4287,-0.098 -0.6941,-0.2632 -1.1903,-0.3307l-1.1247 -0.0326c-0.7265,0.0326 -1.123,0 -1.8512,0.2327 -0.9595,0.2632 -2.8109,1.388 -2.9762,0.9246 -0.1328,-0.5939 0.1326,-1.1247 0.5286,-1.488 1.2901,-0.4285 2.3824,-0.694 4.0357,-1.3555 0.5287,0.0328 1.0571,0.1327 1.5858,0.2982 0.5306,0.2631 0.927,0.5613 1.4556,0.892 0.3977,0.2654 1.2244,0.6614 1.1248,1.0595 -0.1001,0.1979 -1.0923,-0.0675 -1.5881,-0.2001z"/>
  </g>
 </g>
</svg>
