<?xml version="1.0" encoding="UTF-8"?> <svg xmlns="http://www.w3.org/2000/svg" width="683.834" height="526.54"><rect width="100%" height="100%" fill="#FFF"></rect><g fill="none"><path stroke="#707070" d="M319.92 262.601q0-286.595 131.967-183.954M319.92 262.601q0-225.277-131.967-151.962M319.92 262.601q0-146.63 131.967-83.979M319.92 262.601q0-121.303-131.967-75.981M411.897 262.601q0-7.998 39.99-7.998M227.943 262.601h-39.99M411.897 262.601q0 55.986 39.99 55.986M319.92 262.601q0 154.628-131.967 87.978M319.92 262.601q0 165.292 131.967 119.97M319.92 262.601q0 209.281-131.967 163.959M319.92 262.601q0 269.266 131.967 195.951" stroke-width="1.333"></path><g transform="translate(214.613 219.945) scale(1.333)"><rect width="158" height="64" rx="10" ry="10" fill="#22aae0" stroke="#707070"></rect><g fill="#000"><path d="M19.472 23l-3.094-10.081h-.08q.168 3.076.168 4.104V23H14.03V10.15h3.71l3.04 9.827h.053l3.226-9.827h3.709V23h-2.54v-6.082q0-.43.013-.993t.118-2.988h-.079L21.968 23zM30.678 10.634q0-1.31 1.459-1.31t1.459 1.31q0 .624-.365.971t-1.094.347q-1.46 0-1.46-1.318zM33.473 23h-2.681v-9.826h2.68zM40.354 21.075q1.082 0 1.547-.62.466-.62.466-2.008v-.325q0-1.573-.488-2.263-.487-.69-1.568-.69-1.89 0-1.89 2.97 0 1.477.47 2.207.47.73 1.463.73zm4.518 1.943q0 2.118-1.235 3.212-1.235 1.094-3.678 1.094-2.153 0-3.674-.58V24.6q1.784.755 3.832.755 2.066 0 2.066-2.232v-.193l.079-1.204h-.08q-.94 1.45-2.786 1.45-1.766 0-2.737-1.363-.971-1.362-.971-3.709 0-2.416 1.006-3.766 1.006-1.349 2.773-1.349 1.81 0 2.847 1.442h.07l.22-1.257h2.268zM53.16 12.99q.545 0 .905.078l-.202 2.514q-.325-.088-.79-.088-1.284 0-2 .66-.717.659-.717 1.845V23h-2.68v-9.826h2.03l.396 1.652h.131q.457-.826 1.235-1.331.778-.506 1.692-.506zM62.09 23l-.519-1.336h-.07q-.677.853-1.393 1.182-.716.33-1.868.33-1.415 0-2.228-.809-.813-.808-.813-2.303 0-1.564 1.094-2.307 1.095-.742 3.3-.821l1.706-.053v-.43q0-1.495-1.53-1.495-1.177 0-2.768.712l-.888-1.81q1.697-.888 3.762-.888 1.978 0 3.032.861 1.055.861 1.055 2.62V23zm-.791-4.553l-1.037.035q-1.17.036-1.74.422-.572.387-.572 1.178 0 1.134 1.301 1.134.932 0 1.49-.536.558-.536.558-1.424zM70.861 21.04q.703 0 1.688-.308v1.996q-1.002.448-2.461.448-1.609 0-2.342-.813-.734-.813-.734-2.44v-4.736h-1.283v-1.134l1.476-.897.774-2.074h1.713v2.092h2.751v2.013h-2.75v4.737q0 .571.32.844.321.272.848.272zM74.42 10.634q0-1.31 1.46-1.31 1.459 0 1.459 1.31 0 .624-.365.971t-1.094.347q-1.46 0-1.46-1.318zM77.217 23h-2.68v-9.826h2.68zM82.164 18.07q0 1.458.48 2.205.478.747 1.56.747 1.071 0 1.542-.742.47-.743.47-2.21 0-1.46-.475-2.19-.474-.729-1.555-.729-1.073 0-1.547.725-.475.726-.475 2.193zm6.794 0q0 2.399-1.266 3.752-1.265 1.354-3.524 1.354-1.415 0-2.496-.62t-1.661-1.78q-.58-1.16-.58-2.707 0-2.408 1.257-3.744 1.256-1.336 3.533-1.336 1.415 0 2.496.615 1.08.616 1.66 1.767.581 1.151.581 2.698zM100.243 23h-2.68v-5.74q0-1.063-.378-1.594-.378-.532-1.205-.532-1.125 0-1.626.751-.5.752-.5 2.492V23h-2.681v-9.826h2.048l.36 1.257h.15q.448-.712 1.234-1.077.787-.365 1.789-.365 1.714 0 2.601.928.888.927.888 2.676zM107.89 10.15h3.999q2.733 0 3.968.778 1.235.778 1.235 2.474 0 1.152-.54 1.89-.541.738-1.438.888v.088q1.222.272 1.762 1.02.541.746.541 1.985 0 1.758-1.27 2.743-1.27.984-3.45.984h-4.807zm2.724 5.09h1.582q1.108 0 1.604-.344.497-.342.497-1.133 0-.739-.54-1.06-.541-.32-1.71-.32h-1.433zm0 2.161v3.349h1.776q1.125 0 1.66-.43.537-.431.537-1.319 0-1.6-2.285-1.6zM123.842 14.896q-.853 0-1.336.541-.484.54-.554 1.534h3.762q-.018-.993-.519-1.534-.5-.54-1.353-.54zm.378 8.28q-2.373 0-3.71-1.31-1.335-1.31-1.335-3.709 0-2.47 1.235-3.819 1.235-1.349 3.414-1.349 2.083 0 3.243 1.187 1.16 1.186 1.16 3.278v1.3h-6.336q.044 1.143.676 1.785.633.642 1.776.642.887 0 1.678-.185.791-.184 1.653-.589v2.074q-.703.352-1.503.523-.8.172-1.951.172zM137.263 20.082q0 1.512-1.05 2.303-1.05.79-3.143.79-1.072 0-1.828-.144-.756-.145-1.415-.427V20.39q.747.351 1.683.589.936.237 1.648.237 1.46 0 1.46-.844 0-.316-.194-.514t-.668-.448q-.475-.25-1.266-.585-1.134-.474-1.665-.879-.532-.404-.774-.927-.241-.523-.241-1.288 0-1.31 1.015-2.025 1.015-.717 2.878-.717 1.776 0 3.454.774l-.808 1.933q-.739-.316-1.38-.518-.642-.202-1.31-.202-1.186 0-1.186.641 0 .36.382.624t1.674.782q1.152.466 1.688.87.536.405.79.932.256.528.256 1.257zM143.494 21.04q.703 0 1.688-.308v1.996q-1.002.448-2.461.448-1.609 0-2.343-.813-.733-.813-.733-2.44v-4.736h-1.284v-1.134l1.477-.897.773-2.074h1.714v2.092h2.751v2.013h-2.75v4.737q0 .571.32.844.32.272.848.272zM42.556 43.197h.897q1.256 0 1.88-.496.625-.497.625-1.446 0-.958-.523-1.415-.523-.457-1.64-.457h-1.239zm6.152-2.039q0 2.074-1.296 3.173-1.296 1.099-3.687 1.099h-1.169V50h-2.724V37.15h4.104q2.338 0 3.555 1.007 1.217 1.006 1.217 3.001zM56.408 39.99q.545 0 .905.078l-.202 2.514q-.325-.088-.791-.088-1.283 0-2 .66-.716.658-.716 1.845V50h-2.68v-9.826h2.03l.395 1.652h.132q.457-.826 1.235-1.331.778-.506 1.692-.506zM65.337 50l-.518-1.336h-.07q-.677.853-1.394 1.182-.716.33-1.867.33-1.415 0-2.228-.809-.813-.808-.813-2.303 0-1.564 1.094-2.307 1.094-.742 3.3-.821l1.705-.053v-.43q0-1.495-1.529-1.495-1.178 0-2.768.712l-.888-1.81q1.696-.888 3.762-.888 1.977 0 3.032.861 1.054.861 1.054 2.62V50zm-.79-4.553l-1.038.035q-1.169.036-1.74.422-.571.387-.571 1.178 0 1.134 1.3 1.134.932 0 1.49-.536.558-.536.558-1.424zM73.96 50.176q-4.588 0-4.588-5.036 0-2.505 1.248-3.828t3.577-1.323q1.705 0 3.058.668l-.79 2.074q-.633-.254-1.178-.417-.545-.163-1.09-.163-2.092 0-2.092 2.971 0 2.883 2.092 2.883.773 0 1.432-.207.66-.206 1.319-.646v2.294q-.65.413-1.314.572-.664.158-1.675.158zM83.364 48.04q.703 0 1.687-.308v1.996q-1.002.448-2.46.448-1.61 0-2.343-.813-.734-.813-.734-2.44v-4.736h-1.283v-1.134l1.477-.897.773-2.074h1.714v2.092h2.75v2.013h-2.75v4.737q0 .571.32.844.321.272.849.272zM86.923 37.634q0-1.31 1.46-1.31 1.458 0 1.458 1.31 0 .624-.364.971-.365.347-1.095.347-1.459 0-1.459-1.318zM89.718 50h-2.68v-9.826h2.68zM96.521 50.176q-4.588 0-4.588-5.036 0-2.505 1.248-3.828t3.577-1.323q1.705 0 3.059.668l-.791 2.074q-.633-.254-1.178-.417-.545-.163-1.09-.163-2.091 0-2.091 2.971 0 2.883 2.091 2.883.774 0 1.433-.207.66-.206 1.318-.646v2.294q-.65.413-1.314.572-.663.158-1.674.158zM105.855 41.896q-.853 0-1.336.541-.483.54-.554 1.534h3.762q-.018-.993-.519-1.534-.5-.54-1.353-.54zm.378 8.28q-2.373 0-3.71-1.31-1.335-1.31-1.335-3.709 0-2.47 1.235-3.819 1.235-1.349 3.414-1.349 2.083 0 3.244 1.187 1.16 1.186 1.16 3.278v1.3h-6.337q.044 1.143.677 1.785.632.642 1.775.642.888 0 1.679-.185.79-.184 1.652-.589v2.074q-.703.352-1.503.523-.8.172-1.951.172zM119.276 47.082q0 1.512-1.05 2.303-1.05.79-3.143.79-1.072 0-1.828-.144-.755-.145-1.415-.427V47.39q.747.351 1.683.589.936.237 1.648.237 1.46 0 1.46-.844 0-.316-.194-.514-.193-.198-.668-.448-.475-.25-1.266-.585-1.133-.474-1.665-.879-.532-.404-.774-.927-.241-.523-.241-1.288 0-1.31 1.015-2.025 1.015-.717 2.878-.717 1.776 0 3.454.774l-.808 1.933q-.738-.316-1.38-.518-.642-.202-1.31-.202-1.186 0-1.186.641 0 .36.382.624t1.674.782q1.152.466 1.688.87.536.405.791.932.255.528.255 1.257z"></path></g></g><g transform="translate(451.887 35.991) scale(1.333)"><rect width="94" height="64" rx="10" ry="10" fill="#e0e0e0" stroke="#707070"></rect><g fill="#4f4f4f"><path d="M9.82 9.822q-1.026 0-1.589.77-.562.771-.562 2.148 0 2.865 2.15 2.865.903 0 2.186-.45v1.523q-1.055.44-2.356.44-1.869 0-2.859-1.135-.99-1.133-.99-3.254 0-1.336.486-2.341.486-1.005 1.398-1.541.91-.536 2.135-.536 1.248 0 2.508.603l-.586 1.477q-.48-.229-.967-.399-.486-.17-.955-.17zM15.11 13.713q0 .973.32 1.47.319.499 1.04.499.715 0 1.028-.495.314-.496.314-1.474 0-.973-.317-1.46-.316-.485-1.037-.485-.715 0-1.031.483-.317.483-.317 1.462zm4.53 0q0 1.6-.844 2.502-.844.902-2.35.902-.943 0-1.664-.413-.72-.413-1.107-1.186-.387-.774-.387-1.805 0-1.606.838-2.496.838-.89 2.355-.89.944 0 1.665.41.72.41 1.107 1.177.387.768.387 1.799zM26.981 17h-1.787v-3.826q0-.71-.237-1.064-.237-.354-.747-.354-.686 0-.996.504-.31.504-.31 1.658V17h-1.788v-6.55h1.365l.24.837h.1q.264-.451.762-.706.498-.255 1.143-.255 1.47 0 1.992.961h.158q.264-.457.776-.709.513-.252 1.158-.252 1.113 0 1.684.571.571.572.571 1.832V17h-1.793v-3.826q0-.71-.237-1.064-.237-.354-.747-.354-.656 0-.981.469-.326.468-.326 1.488zM38.765 17h-1.787v-3.826q0-.71-.238-1.064-.237-.354-.747-.354-.685 0-.996.504-.31.504-.31 1.658V17h-1.788v-6.55h1.366l.24.837h.1q.263-.451.761-.706.498-.255 1.143-.255 1.47 0 1.992.961h.158q.264-.457.777-.709.512-.252 1.157-.252 1.113 0 1.684.571.572.572.572 1.832V17h-1.793v-3.826q0-.71-.238-1.064-.237-.354-.747-.354-.656 0-.981.469-.325.468-.325 1.488zM49.323 17l-.24-.838h-.094q-.287.457-.814.706-.528.25-1.201.25-1.155 0-1.74-.619-.587-.618-.587-1.778v-4.272h1.788v3.826q0 .71.252 1.064.251.354.802.354.75 0 1.084-.5.334-.502.334-1.662V10.45h1.787V17zM58.616 17H56.83v-3.826q0-.71-.252-1.064-.252-.354-.803-.354-.75 0-1.084.5-.334.502-.334 1.662V17H52.57v-6.55h1.366l.24.837h.1q.298-.475.823-.718.524-.243 1.192-.243 1.143 0 1.734.618.592.618.592 1.785zM60.38 8.756q0-.873.973-.873.972 0 .972.873 0 .416-.243.647-.243.232-.73.232-.972 0-.972-.88zM62.243 17h-1.787v-6.55h1.787zM66.778 17.117q-3.058 0-3.058-3.357 0-1.67.832-2.552.832-.882 2.385-.882 1.136 0 2.039.445l-.528 1.383q-.422-.17-.785-.278-.363-.108-.726-.108-1.395 0-1.395 1.98 0 1.922 1.395 1.922.515 0 .955-.138.44-.137.879-.43v1.529q-.434.275-.876.38-.443.106-1.117.106zM74.448 17l-.345-.89h-.047q-.452.568-.929.787-.478.22-1.245.22-.944 0-1.486-.539t-.542-1.535q0-1.043.73-1.538.73-.495 2.2-.548l1.137-.035v-.287q0-.996-1.02-.996-.785 0-1.845.474l-.592-1.207q1.13-.592 2.508-.592 1.318 0 2.021.575.703.574.703 1.746V17zm-.527-3.035l-.692.023q-.779.024-1.16.282-.38.257-.38.785 0 .756.867.756.62 0 .993-.358.372-.357.372-.95zM80.296 15.693q.469 0 1.125-.205v1.33q-.668.3-1.64.3-1.073 0-1.562-.543-.49-.542-.49-1.626v-3.158h-.855v-.756l.984-.598.516-1.382h1.143v1.394h1.834v1.342h-1.834v3.158q0 .381.213.563.214.181.566.181zM85.458 11.598q-.568 0-.89.36-.323.36-.37 1.022h2.508q-.012-.662-.346-1.022-.334-.36-.902-.36zm.252 5.52q-1.582 0-2.473-.874-.89-.873-.89-2.473 0-1.646.823-2.545.823-.9 2.276-.9 1.389 0 2.162.791.774.791.774 2.186v.867h-4.225q.03.762.451 1.19.422.427 1.184.427.592 0 1.12-.123.526-.123 1.1-.393v1.383q-.468.235-1.001.349-.533.114-1.301.114zM18.242 35l-.346-.89h-.046q-.452.568-.93.787-.477.22-1.244.22-.944 0-1.486-.539t-.542-1.535q0-1.043.73-1.538.73-.495 2.2-.548l1.137-.035v-.287q0-.996-1.02-.996-.785 0-1.845.474l-.592-1.207q1.13-.592 2.508-.592 1.318 0 2.021.575.703.574.703 1.746V35zm-.527-3.035l-.692.023q-.779.024-1.16.282-.38.257-.38.785 0 .756.867.756.62 0 .993-.358.372-.357.372-.95zM27.377 35H25.59v-3.826q0-.71-.252-1.064-.252-.354-.803-.354-.75 0-1.084.5-.334.502-.334 1.662V35H21.33v-6.55h1.365l.24.837h.1q.299-.474.823-.718.525-.243 1.193-.243 1.142 0 1.734.618.592.619.592 1.785zM31.291 35.117q-1.154 0-1.813-.896-.66-.897-.66-2.485 0-1.611.671-2.51.671-.9 1.849-.9 1.236 0 1.887.961h.058q-.135-.732-.135-1.307v-2.097h1.793V35h-1.37l-.346-.85h-.077q-.609.967-1.857.967zm.627-1.424q.686 0 1.005-.398.32-.399.348-1.354v-.193q0-1.055-.325-1.512-.325-.457-1.057-.457-.598 0-.929.507-.331.507-.331 1.474t.334 1.45q.334.483.955.483zM43.273 35h-3.896v-1.031l1.043-.48v-5.544l-1.043-.48v-1.031h3.896v1.03l-1.043.481v5.543l1.043.48zM50.645 35h-1.788v-3.826q0-.71-.252-1.064-.251-.354-.802-.354-.75 0-1.084.5-.334.502-.334 1.662V35h-1.787v-6.55h1.365l.24.837h.1q.299-.474.823-.718.524-.243 1.192-.243 1.143 0 1.735.618.592.619.592 1.785zM56.105 29.791H54.56V35H52.77v-5.209h-.984v-.861l.984-.48v-.481q0-1.12.551-1.635.551-.516 1.764-.516.926 0 1.646.276l-.457 1.312q-.539-.17-.996-.17-.38 0-.55.226-.17.226-.17.577v.41h1.546zM58.555 31.713q0 .973.319 1.47.32.499 1.04.499.715 0 1.028-.495.314-.496.314-1.474 0-.973-.317-1.46-.316-.485-1.037-.485-.715 0-1.03.483-.317.483-.317 1.462zm4.529 0q0 1.6-.844 2.502-.844.902-2.35.902-.943 0-1.663-.413-.721-.413-1.108-1.186-.387-.774-.387-1.805 0-1.606.838-2.496.838-.89 2.356-.89.943 0 1.664.41.72.41 1.107 1.177.387.768.387 1.799zM68.217 28.326q.363 0 .603.053l-.134 1.676q-.217-.059-.528-.059-.855 0-1.333.44-.477.439-.477 1.23V35H64.56v-6.55h1.353l.264 1.1h.088q.304-.55.823-.887.518-.337 1.128-.337zM75.875 35h-1.787v-3.826q0-.71-.237-1.064-.238-.354-.747-.354-.686 0-.997.504-.31.504-.31 1.658V35H70.01v-6.55h1.365l.24.837h.1q.264-.451.762-.706.498-.255 1.142-.255 1.47 0 1.992.961h.159q.263-.457.776-.709.513-.252 1.157-.252 1.113 0 1.685.571.571.572.571 1.832V35h-1.793v-3.826q0-.71-.237-1.064-.238-.354-.747-.354-.657 0-.982.469-.325.468-.325 1.488zM38.281 44.434v5.543q0 .949-.425 1.664-.424.714-1.227 1.095-.803.381-1.899.381-1.652 0-2.566-.846-.914-.847-.914-2.318v-5.52h1.81v5.245q0 .99.399 1.453.398.463 1.318.463.891 0 1.292-.466.402-.466.402-1.462v-5.232zM44.809 51.055q0 1.008-.7 1.535-.7.527-2.095.527-.715 0-1.22-.096-.503-.097-.942-.285V51.26q.498.234 1.122.392.624.159 1.098.159.973 0 .973-.563 0-.21-.129-.343-.129-.132-.445-.299-.317-.167-.844-.39-.756-.316-1.11-.585-.355-.27-.516-.618-.161-.349-.161-.859 0-.873.677-1.35.676-.478 1.919-.478 1.183 0 2.302.516L44.2 48.13q-.492-.211-.92-.346-.427-.135-.873-.135-.79 0-.79.428 0 .24.254.416.255.176 1.116.522.768.31 1.125.58.358.27.528.62.17.352.17.839zM48.916 47.598q-.568 0-.89.36-.323.36-.37 1.022h2.508q-.012-.662-.346-1.022-.334-.36-.902-.36zm.252 5.52q-1.582 0-2.473-.874-.89-.873-.89-2.473 0-1.646.823-2.545.823-.9 2.276-.9 1.389 0 2.162.791.774.791.774 2.186v.867h-4.225q.03.762.451 1.19.422.427 1.184.427.592 0 1.12-.123.526-.123 1.1-.393v1.383q-.468.235-1.001.349-.533.114-1.301.114zM56.95 46.326q.362 0 .603.053l-.135 1.676q-.217-.059-.527-.059-.856 0-1.333.44-.478.439-.478 1.23V53h-1.787v-6.55h1.353l.264 1.1h.088q.305-.55.823-.887.519-.337 1.128-.337zM63.313 51.055q0 1.008-.7 1.535-.7.527-2.095.527-.715 0-1.22-.096-.503-.097-.943-.285V51.26q.499.234 1.123.392.624.159 1.098.159.973 0 .973-.563 0-.21-.13-.343-.128-.132-.444-.299-.317-.167-.844-.39-.756-.316-1.11-.585-.355-.27-.516-.618-.161-.349-.161-.859 0-.873.677-1.35.676-.478 1.918-.478 1.184 0 2.303.516l-.539 1.289q-.492-.211-.92-.346-.428-.135-.873-.135-.79 0-.79.428 0 .24.254.416.255.176 1.116.522.768.31 1.125.58.358.27.528.62.17.352.17.839z"></path></g></g><g transform="translate(49.321 79.98) scale(1.333)"><rect width="104" height="46" rx="10" ry="10" fill="#e0e0e0" stroke="#707070"></rect><g fill="#4f4f4f"><path d="M13.457 12.635q0 2.115-1.204 3.24T8.775 17H6.35V8.434h2.69q2.097 0 3.257 1.107 1.16 1.107 1.16 3.094zm-1.887.047q0-2.76-2.437-2.76h-.967V15.5h.78q2.624 0 2.624-2.818zM16.516 13.713q0 .973.319 1.47.32.499 1.04.499.715 0 1.028-.495.314-.496.314-1.474 0-.973-.317-1.46-.316-.485-1.037-.485-.715 0-1.031.483-.316.483-.316 1.462zm4.529 0q0 1.6-.844 2.502-.844.902-2.35.902-.943 0-1.663-.413-.721-.413-1.108-1.186-.387-.774-.387-1.805 0-1.606.838-2.496.838-.89 2.356-.89.943 0 1.664.41.72.41 1.107 1.177.387.768.387 1.799zM28.984 17h-3.896v-1.031l1.043-.48V9.944l-1.043-.48V8.434h3.896v1.03l-1.043.481v5.543l1.043.48zM36.355 17h-1.787v-3.826q0-.71-.252-1.064-.252-.354-.802-.354-.75 0-1.084.5-.334.502-.334 1.662V17h-1.787v-6.55h1.365l.24.837h.1q.298-.475.823-.718.524-.243 1.192-.243 1.143 0 1.735.618.591.618.591 1.785zM40.855 17.117q-3.058 0-3.058-3.357 0-1.67.832-2.552.832-.882 2.385-.882 1.136 0 2.039.445l-.528 1.383q-.421-.17-.785-.278-.363-.108-.726-.108-1.395 0-1.395 1.98 0 1.922 1.395 1.922.515 0 .955-.138.44-.137.879-.43v1.529q-.434.275-.876.38-.443.106-1.117.106zM48.021 10.326q.364 0 .604.053l-.135 1.676q-.217-.059-.527-.059-.856 0-1.333.44-.478.439-.478 1.23V17h-1.787v-6.55h1.354l.263 1.1h.088q.305-.55.824-.887.518-.337 1.127-.337zM52.527 11.598q-.568 0-.89.36-.323.36-.37 1.022h2.508q-.011-.662-.345-1.022-.334-.36-.903-.36zm.252 5.52q-1.582 0-2.472-.874-.891-.873-.891-2.473 0-1.646.823-2.545.824-.9 2.277-.9 1.388 0 2.162.791.773.791.773 2.186v.867h-4.224q.029.762.45 1.19.423.427 1.184.427.592 0 1.12-.123.527-.123 1.101-.393v1.383q-.469.235-1.002.349-.533.114-1.3.114zM62.77 17h-1.788v-3.826q0-.71-.237-1.064-.237-.354-.747-.354-.686 0-.996.504-.31.504-.31 1.658V17h-1.788v-6.55h1.366l.24.837h.1q.263-.451.761-.706.498-.255 1.143-.255 1.47 0 1.992.961h.158q.264-.457.776-.709.513-.252 1.158-.252 1.113 0 1.684.571.572.572.572 1.832V17H65.06v-3.826q0-.71-.238-1.064-.237-.354-.747-.354-.656 0-.981.469-.325.468-.325 1.488zM71.4 11.598q-.568 0-.89.36-.323.36-.37 1.022h2.508q-.011-.662-.345-1.022-.334-.36-.903-.36zm.252 5.52q-1.582 0-2.472-.874-.89-.873-.89-2.473 0-1.646.822-2.545.824-.9 2.277-.9 1.388 0 2.162.791.773.791.773 2.186v.867H70.1q.029.762.45 1.19.423.427 1.184.427.592 0 1.12-.123.527-.123 1.101-.393v1.383q-.469.235-1.002.349-.533.114-1.3.114zM81.824 17h-1.787v-3.826q0-.71-.252-1.064-.252-.354-.803-.354-.75 0-1.084.5-.334.502-.334 1.662V17h-1.787v-6.55h1.366l.24.837h.1q.298-.475.823-.718.524-.243 1.192-.243 1.143 0 1.734.618.592.618.592 1.785zM86.424 15.693q.469 0 1.125-.205v1.33q-.668.3-1.64.3-1.073 0-1.562-.543-.49-.542-.49-1.626v-3.158h-.855v-.756l.984-.598.516-1.382h1.143v1.394h1.834v1.342h-1.834v3.158q0 .381.213.563.214.181.566.181zM93.033 17l-.346-.89h-.046q-.452.568-.93.787-.477.22-1.244.22-.944 0-1.486-.539t-.542-1.535q0-1.043.73-1.538.73-.495 2.2-.548l1.137-.035v-.287q0-.996-1.02-.996-.785 0-1.845.474l-.592-1.207q1.13-.592 2.508-.592 1.318 0 2.021.575.703.574.703 1.746V17zm-.527-3.035l-.692.023q-.779.024-1.16.282-.38.257-.38.785 0 .756.867.756.62 0 .993-.358.372-.357.372-.95zM97.908 17h-1.787V7.883h1.787zM24.054 35l-2.063-6.72h-.053q.112 2.05.112 2.736V35h-1.623v-8.566h2.472l2.028 6.55h.035l2.15-6.55h2.473V35h-1.693v-4.055q0-.287.008-.662.01-.375.08-1.992h-.053L25.717 35zM31.524 26.756q0-.873.973-.873t.973.873q0 .416-.243.647-.244.232-.73.232-.973 0-.973-.88zM33.388 35H31.6v-6.55h1.787zM37.976 33.717q.72 0 1.03-.413.311-.413.311-1.34v-.216q0-1.049-.325-1.509-.325-.46-1.046-.46-1.26 0-1.26 1.98 0 .985.314 1.471.313.487.976.487zm3.011 1.295q0 1.412-.823 2.141-.823.73-2.452.73-1.436 0-2.45-.387v-1.43q1.19.504 2.555.504 1.377 0 1.377-1.488v-.129l.053-.803h-.053q-.627.967-1.857.967-1.178 0-1.825-.908-.648-.908-.648-2.473 0-1.611.671-2.51.671-.9 1.849-.9 1.207 0 1.898.961h.047l.147-.838h1.511zM46.513 28.326q.363 0 .603.053l-.135 1.676q-.216-.059-.527-.059-.855 0-1.333.44-.477.439-.477 1.23V35h-1.788v-6.55h1.354l.264 1.1h.088q.304-.55.823-.887.518-.337 1.128-.337zM52.466 35l-.346-.89h-.047q-.45.568-.928.787-.478.22-1.246.22-.943 0-1.485-.539-.542-.539-.542-1.535 0-1.043.73-1.538.73-.495 2.2-.548l1.136-.035v-.287q0-.996-1.02-.996-.784 0-1.845.474l-.592-1.207q1.131-.592 2.508-.592 1.319 0 2.022.575.703.574.703 1.746V35zm-.528-3.035l-.69.023q-.78.024-1.161.282-.38.257-.38.785 0 .756.866.756.621 0 .993-.358.372-.357.372-.95zM58.313 33.693q.47 0 1.125-.205v1.33q-.667.3-1.64.3-1.072 0-1.562-.543-.489-.542-.489-1.626v-3.158h-.855v-.756l.984-.598.516-1.382h1.142v1.394h1.834v1.342h-1.834v3.158q0 .381.214.563.214.181.565.181zM60.687 26.756q0-.873.972-.873.973 0 .973.873 0 .416-.243.647-.243.232-.73.232-.972 0-.972-.88zM62.55 35h-1.787v-6.55h1.787zM65.849 31.713q0 .973.319 1.47.32.499 1.04.499.715 0 1.028-.495.314-.496.314-1.474 0-.973-.317-1.46-.316-.485-1.037-.485-.715 0-1.031.483-.316.483-.316 1.462zm4.529 0q0 1.6-.844 2.502-.844.902-2.35.902-.943 0-1.663-.413-.721-.413-1.108-1.186-.387-.774-.387-1.805 0-1.606.838-2.496.838-.89 2.356-.89.943 0 1.664.41.72.41 1.107 1.177.387.768.387 1.799zM77.901 35h-1.787v-3.826q0-.71-.252-1.064-.252-.354-.802-.354-.75 0-1.084.5-.334.502-.334 1.662V35h-1.788v-6.55h1.366l.24.837h.1q.298-.474.823-.718.524-.243 1.192-.243 1.143 0 1.735.618.591.619.591 1.785zM84.312 33.055q0 1.008-.7 1.535-.7.527-2.095.527-.715 0-1.22-.096-.503-.097-.943-.285V33.26q.499.234 1.123.392.624.159 1.098.159.973 0 .973-.563 0-.21-.13-.343-.128-.132-.444-.299-.317-.167-.844-.39-.756-.316-1.11-.585-.355-.27-.516-.618-.161-.349-.161-.859 0-.873.677-1.35.676-.478 1.918-.478 1.184 0 2.303.516l-.539 1.289q-.492-.211-.92-.346-.428-.135-.873-.135-.79 0-.79.428 0 .24.254.416.255.176 1.116.522.768.31 1.125.58.358.27.528.62.17.352.17.839z"></path></g></g><g transform="translate(451.887 147.963) scale(1.333)"><rect width="146" height="46" rx="10" ry="10" fill="#e0e0e0" stroke="#707070"></rect><g fill="#4f4f4f"><path d="M10.006 9.822q-1.026 0-1.588.77-.563.771-.563 2.148 0 2.865 2.15 2.865.903 0 2.186-.45v1.523q-1.054.44-2.355.44-1.87 0-2.86-1.135-.99-1.133-.99-3.254 0-1.336.487-2.341.486-1.005 1.397-1.541t2.136-.536q1.248 0 2.508.603l-.586 1.477q-.48-.229-.967-.399-.486-.17-.955-.17zM15.297 13.713q0 .973.32 1.47.319.499 1.04.499.714 0 1.028-.495.313-.496.313-1.474 0-.973-.316-1.46-.317-.485-1.037-.485-.715 0-1.032.483-.316.483-.316 1.462zm4.53 0q0 1.6-.845 2.502-.843.902-2.35.902-.943 0-1.663-.413-.721-.413-1.108-1.186-.386-.774-.386-1.805 0-1.606.838-2.496.837-.89 2.355-.89.943 0 1.664.41.72.41 1.107 1.177.387.768.387 1.799zM27.35 17h-1.787v-3.826q0-.71-.252-1.064-.252-.354-.803-.354-.75 0-1.084.5-.334.502-.334 1.662V17h-1.787v-6.55h1.365l.24.837h.1q.299-.475.823-.718t1.192-.243q1.143 0 1.735.618.592.618.592 1.785zM31.264 17.117q-1.155 0-1.814-.896-.659-.897-.659-2.485 0-1.611.67-2.51.672-.9 1.85-.9 1.236 0 1.886.961h.059q-.135-.732-.135-1.307V7.883h1.793V17h-1.371l-.346-.85h-.076q-.61.967-1.857.967zm.627-1.424q.685 0 1.005-.398.319-.399.348-1.354v-.193q0-1.055-.325-1.512-.325-.457-1.058-.457-.597 0-.928.507-.331.507-.331 1.474t.334 1.45q.334.483.955.483zM41.424 17l-.24-.838h-.094q-.287.457-.815.706-.527.25-1.2.25-1.155 0-1.741-.619-.586-.618-.586-1.778v-4.272h1.787v3.826q0 .71.252 1.064.252.354.803.354.75 0 1.084-.5.334-.502.334-1.662V10.45h1.787V17zM47.33 17.117q-3.059 0-3.059-3.357 0-1.67.833-2.552.832-.882 2.384-.882 1.137 0 2.04.445L49 12.154q-.422-.17-.785-.278-.363-.108-.727-.108-1.394 0-1.394 1.98 0 1.922 1.394 1.922.516 0 .955-.138.44-.137.88-.43v1.529q-.434.275-.877.38-.442.106-1.116.106zM53.6 15.693q.468 0 1.125-.205v1.33q-.668.3-1.641.3-1.072 0-1.562-.543-.489-.542-.489-1.626v-3.158h-.855v-.756l.984-.598.516-1.382h1.142v1.394h1.834v1.342H52.82v3.158q0 .381.214.563.214.181.566.181zM63.326 17l-.346-.89h-.046q-.452.568-.93.787-.477.22-1.244.22-.944 0-1.486-.539t-.542-1.535q0-1.043.73-1.538.73-.495 2.2-.548l1.137-.035v-.287q0-.996-1.02-.996-.785 0-1.845.474l-.592-1.207q1.13-.592 2.508-.592 1.318 0 2.021.575.703.574.703 1.746V17zm-.527-3.035l-.692.023q-.779.024-1.16.282-.38.257-.38.785 0 .756.867.756.62 0 .993-.358.372-.357.372-.95zM72.46 17h-1.786v-3.826q0-.71-.252-1.064-.252-.354-.803-.354-.75 0-1.084.5-.334.502-.334 1.662V17h-1.787v-6.55h1.365l.24.837h.1q.299-.475.823-.718.525-.243 1.193-.243 1.142 0 1.734.618.592.618.592 1.785zM80.764 17h-3.897v-1.031l1.043-.48V9.944l-1.043-.48V8.434h3.897v1.03l-1.043.481v5.543l1.043.48zM88.135 17h-1.787v-3.826q0-.71-.252-1.064-.252-.354-.803-.354-.75 0-1.084.5-.334.502-.334 1.662V17h-1.787v-6.55h1.365l.24.837h.1q.299-.475.823-.718.525-.243 1.193-.243 1.142 0 1.734.618.592.618.592 1.785zM91.533 17l-2.496-6.55h1.87l1.265 3.732q.193.609.252 1.341h.047q.035-.662.263-1.341l1.26-3.733h1.87L93.366 17zM99.514 11.598q-.569 0-.891.36-.322.36-.37 1.022h2.509q-.012-.662-.346-1.022-.334-.36-.902-.36zm.252 5.52q-1.582 0-2.473-.874-.89-.873-.89-2.473 0-1.646.823-2.545.823-.9 2.276-.9 1.389 0 2.162.791.773.791.773 2.186v.867h-4.224q.03.762.451 1.19.422.427 1.184.427.591 0 1.119-.123.527-.123 1.101-.393v1.383q-.468.235-1.002.349-.533.114-1.3.114zM109.938 17h-1.788v-3.826q0-.71-.252-1.064-.252-.354-.802-.354-.75 0-1.084.5-.334.502-.334 1.662V17h-1.787v-6.55h1.365l.24.837h.1q.299-.475.823-.718t1.192-.243q1.143 0 1.735.618.592.618.592 1.785zM114.537 15.693q.469 0 1.125-.205v1.33q-.668.3-1.64.3-1.073 0-1.562-.543-.49-.542-.49-1.626v-3.158h-.855v-.756l.985-.598.515-1.382h1.143v1.394h1.834v1.342h-1.834v3.158q0 .381.214.563.214.181.565.181zM118.41 13.713q0 .973.32 1.47.319.499 1.04.499.714 0 1.028-.495.313-.496.313-1.474 0-.973-.316-1.46-.316-.485-1.037-.485-.715 0-1.031.483-.317.483-.317 1.462zm4.53 0q0 1.6-.844 2.502-.844.902-2.35.902-.943 0-1.664-.413-.72-.413-1.107-1.186-.387-.774-.387-1.805 0-1.606.838-2.496.838-.89 2.355-.89.944 0 1.664.41.721.41 1.108 1.177.386.768.386 1.799zM128.072 10.326q.364 0 .604.053l-.135 1.676q-.217-.059-.527-.059-.856 0-1.333.44-.478.439-.478 1.23V17h-1.787v-6.55h1.354l.263 1.1h.088q.305-.55.823-.887.519-.337 1.128-.337zM128.928 10.45h1.957l1.236 3.685q.158.48.217 1.136h.035q.065-.603.252-1.136l1.213-3.686h1.916l-2.772 7.389q-.38 1.025-1.086 1.535-.707.51-1.65.51-.463 0-.908-.1v-1.418q.322.076.703.076.475 0 .83-.29.354-.29.553-.876l.105-.322zM140.652 8.434L137.46 17h-1.623l3.193-8.566zM63.007 35l-.621-2.04h-3.123L58.642 35h-1.957l3.023-8.602h2.22L64.965 35zm-1.055-3.563q-.861-2.771-.97-3.134-.108-.364-.155-.574-.193.75-1.107 3.709zM70.542 35l-.24-.838h-.094q-.287.457-.814.706-.528.25-1.202.25-1.154 0-1.74-.619-.586-.618-.586-1.778v-4.272h1.787v3.826q0 .71.252 1.064.252.354.803.354.75 0 1.084-.5.334-.502.334-1.662V28.45h1.787V35zM75.862 35.117q-1.154 0-1.813-.896-.66-.897-.66-2.485 0-1.611.672-2.51.67-.9 1.848-.9 1.237 0 1.887.961h.058q-.134-.732-.134-1.307v-2.097h1.793V35h-1.371l-.346-.85h-.076q-.61.967-1.858.967zm.627-1.424q.686 0 1.005-.398.32-.399.349-1.354v-.193q0-1.055-.325-1.512-.326-.457-1.058-.457-.598 0-.929.507-.33.507-.33 1.474t.333 1.45q.334.483.955.483zM81.306 26.756q0-.873.972-.873.973 0 .973.873 0 .416-.243.647-.243.232-.73.232-.972 0-.972-.88zM83.169 35h-1.787v-6.55h1.787zM87.804 33.693q.468 0 1.125-.205v1.33q-.668.3-1.64.3-1.073 0-1.562-.543-.49-.542-.49-1.626v-3.158h-.855v-.756l.984-.598.516-1.382h1.142v1.394h1.834v1.342h-1.834v3.158q0 .381.214.563.214.181.566.181z"></path></g></g><g transform="translate(55.986 167.958) scale(1.333)"><rect width="99" height="28" rx="10" ry="10" fill="#e0e0e0" stroke="#707070"></rect><g fill="#4f4f4f"><path d="M8.001 12.465h.598q.838 0 1.254-.331.416-.331.416-.964 0-.639-.35-.943-.348-.305-1.092-.305h-.826zm4.102-1.36q0 1.383-.865 2.116-.864.732-2.458.732h-.779V17H6.185V8.434H8.92q1.558 0 2.37.67.812.671.812 2.001zM15.366 17H13.58V7.883h1.787zM21.401 17l-.345-.89h-.047q-.451.568-.929.787-.477.22-1.245.22-.943 0-1.485-.539-.542-.539-.542-1.535 0-1.043.73-1.538.729-.495 2.2-.548l1.136-.035v-.287q0-.996-1.02-.996-.785 0-1.845.474l-.592-1.207q1.13-.592 2.508-.592 1.318 0 2.021.575.703.574.703 1.746V17zm-.527-3.035l-.691.023q-.78.024-1.16.282-.381.257-.381.785 0 .756.867.756.62 0 .993-.358.372-.357.372-.95zM30.536 17H28.75v-3.826q0-.71-.252-1.064-.252-.354-.803-.354-.75 0-1.084.5-.334.502-.334 1.662V17H24.49v-6.55h1.365l.24.837h.1q.3-.475.824-.718t1.192-.243q1.143 0 1.734.618.592.618.592 1.785zM39.26 17l-2.062-6.72h-.052q.11 2.05.11 2.736V17h-1.622V8.434h2.472l2.028 6.55h.035l2.15-6.55h2.473V17h-1.693v-4.055q0-.287.008-.662.01-.375.08-1.992h-.053L40.924 17zM46.731 8.756q0-.873.973-.873t.973.873q0 .416-.243.647-.244.232-.73.232-.973 0-.973-.88zM48.595 17h-1.787v-6.55h1.787zM53.183 15.717q.72 0 1.03-.413.311-.413.311-1.34v-.216q0-1.049-.325-1.509-.325-.46-1.046-.46-1.26 0-1.26 1.98 0 .985.314 1.471.314.487.976.487zm3.011 1.295q0 1.412-.823 2.141-.823.73-2.452.73-1.436 0-2.45-.387v-1.43q1.19.504 2.555.504 1.377 0 1.377-1.488v-.129l.053-.803h-.053q-.627.967-1.857.967-1.178 0-1.825-.908-.648-.908-.648-2.473 0-1.611.671-2.51.671-.9 1.849-.9 1.207 0 1.898.961h.047l.147-.838h1.511zM61.72 10.326q.363 0 .603.053l-.135 1.676q-.216-.059-.527-.059-.855 0-1.333.44-.477.439-.477 1.23V17h-1.788v-6.55h1.354l.264 1.1h.088q.304-.55.823-.887.518-.337 1.128-.337zM67.673 17l-.346-.89h-.047q-.45.568-.928.787-.478.22-1.246.22-.943 0-1.485-.539-.542-.539-.542-1.535 0-1.043.73-1.538.73-.495 2.2-.548l1.137-.035v-.287q0-.996-1.02-.996-.785 0-1.846.474l-.592-1.207q1.131-.592 2.508-.592 1.319 0 2.022.575.703.574.703 1.746V17zm-.527-3.035l-.692.023q-.78.024-1.16.282-.38.257-.38.785 0 .756.866.756.621 0 .993-.358.373-.357.373-.95zM73.52 15.693q.47 0 1.126-.205v1.33q-.668.3-1.641.3-1.072 0-1.562-.543-.489-.542-.489-1.626v-3.158H70.1v-.756l.984-.598.516-1.382h1.142v1.394h1.834v1.342h-1.834v3.158q0 .381.214.563.214.181.566.181zM75.894 8.756q0-.873.972-.873.973 0 .973.873 0 .416-.243.647-.243.232-.73.232-.972 0-.972-.88zM77.757 17H75.97v-6.55h1.787zM81.056 13.713q0 .973.319 1.47.32.499 1.04.499.715 0 1.028-.495.314-.496.314-1.474 0-.973-.317-1.46-.316-.485-1.037-.485-.715 0-1.03.483-.317.483-.317 1.462zm4.529 0q0 1.6-.844 2.502-.844.902-2.35.902-.943 0-1.663-.413-.721-.413-1.108-1.186-.387-.774-.387-1.805 0-1.606.838-2.496.838-.89 2.356-.89.943 0 1.664.41.72.41 1.107 1.177.387.768.387 1.799zM93.108 17h-1.787v-3.826q0-.71-.252-1.064-.252-.354-.802-.354-.75 0-1.084.5-.334.502-.334 1.662V17h-1.787v-6.55h1.365l.24.837h.1q.298-.475.823-.718.524-.243 1.192-.243 1.143 0 1.735.618.591.618.591 1.785z"></path></g></g><g transform="translate(451.887 235.941) scale(1.333)"><rect width="74" height="28" rx="10" ry="10" fill="#e0e0e0" stroke="#707070"></rect><g fill="#4f4f4f"><path d="M9.91 9.822q-1.026 0-1.589.77-.562.771-.562 2.148 0 2.865 2.15 2.865.903 0 2.186-.45v1.523q-1.055.44-2.356.44-1.869 0-2.86-1.135-.99-1.133-.99-3.254 0-1.336.487-2.341.486-1.005 1.397-1.541.912-.536 2.136-.536 1.248 0 2.508.603l-.586 1.477q-.48-.229-.967-.399-.486-.17-.955-.17zM15.563 17h-1.787V7.883h1.787zM20.151 11.598q-.568 0-.89.36-.323.36-.37 1.022H21.4q-.011-.662-.345-1.022-.334-.36-.903-.36zm.252 5.52q-1.582 0-2.472-.874-.891-.873-.891-2.473 0-1.646.823-2.545.824-.9 2.277-.9 1.388 0 2.162.791.773.791.773 2.186v.867h-4.224q.029.762.45 1.19.423.427 1.184.427.592 0 1.12-.123.527-.123 1.101-.393v1.383q-.469.235-1.002.349-.533.114-1.3.114zM28.688 17l-.345-.89h-.047q-.451.568-.929.787-.477.22-1.245.22-.943 0-1.485-.539-.542-.539-.542-1.535 0-1.043.73-1.538.729-.495 2.2-.548l1.136-.035v-.287q0-.996-1.02-.996-.785 0-1.845.474l-.592-1.207q1.131-.592 2.508-.592 1.318 0 2.021.575.704.574.704 1.746V17zm-.527-3.035l-.691.023q-.78.024-1.16.282-.381.257-.381.785 0 .756.867.756.621 0 .993-.358.372-.357.372-.95zM37.823 17h-1.787v-3.826q0-.71-.252-1.064-.252-.354-.803-.354-.75 0-1.084.5-.334.502-.334 1.662V17h-1.787v-6.55h1.366l.24.837h.1q.298-.475.823-.718.524-.243 1.192-.243 1.143 0 1.734.618.592.618.592 1.785zM44.708 17h-1.787V8.434h4.91v1.488h-3.123v2.209h2.906v1.482h-2.906zM49.29 8.756q0-.873.973-.873.972 0 .972.873 0 .416-.243.647-.243.232-.73.232-.972 0-.972-.88zM51.153 17h-1.787v-6.55h1.787zM54.815 17h-1.787V7.883h1.787zM59.403 11.598q-.568 0-.89.36-.323.36-.37 1.022h2.508q-.011-.662-.345-1.022-.334-.36-.903-.36zm.252 5.52q-1.582 0-2.472-.874-.891-.873-.891-2.473 0-1.646.823-2.545.823-.9 2.277-.9 1.388 0 2.162.791.773.791.773 2.186v.867h-4.224q.029.762.45 1.19.423.427 1.184.427.592 0 1.12-.123.527-.123 1.101-.393v1.383q-.469.235-1.002.349-.533.114-1.3.114zM68.35 15.055q0 1.008-.7 1.535-.7.527-2.094.527-.715 0-1.22-.096-.503-.097-.942-.285V15.26q.498.234 1.122.392.624.159 1.098.159.973 0 .973-.563 0-.21-.129-.343-.129-.132-.445-.299-.317-.167-.844-.39-.756-.316-1.11-.585-.355-.27-.516-.618-.161-.349-.161-.859 0-.873.677-1.35.676-.478 1.919-.478 1.183 0 2.302.516l-.539 1.289q-.492-.211-.92-.346-.427-.135-.873-.135-.79 0-.79.428 0 .24.254.416.255.176 1.116.522.768.31 1.125.58.358.27.528.62.17.352.17.839z"></path></g></g><g transform="translate(35.991 231.942) scale(1.333)"><rect width="114" height="46" rx="10" ry="10" fill="#e0e0e0" stroke="#707070"></rect><g fill="#4f4f4f"><path d="M8.247 12.465h.598q.838 0 1.254-.331.416-.331.416-.964 0-.639-.349-.943-.349-.305-1.093-.305h-.826zm4.102-1.36q0 1.383-.865 2.116-.864.732-2.458.732h-.779V17H6.431V8.434h2.736q1.559 0 2.37.67.812.671.812 2.001zM16.538 11.598q-.568 0-.89.36-.323.36-.37 1.022h2.508q-.012-.662-.346-1.022-.334-.36-.902-.36zm.252 5.52q-1.582 0-2.473-.874-.89-.873-.89-2.473 0-1.646.823-2.545.823-.9 2.276-.9 1.389 0 2.162.791.774.791.774 2.186v.867h-4.225q.03.762.451 1.19.422.427 1.184.427.592 0 1.12-.123.527-.123 1.1-.393v1.383q-.468.235-1.001.349-.533.114-1.301.114zM24.571 10.326q.364 0 .604.053l-.135 1.676q-.217-.059-.527-.059-.856 0-1.333.44-.478.439-.478 1.23V17h-1.787v-6.55h1.354l.263 1.1h.088q.305-.55.823-.887.519-.337 1.128-.337zM29.985 11.791h-1.547V17h-1.787v-5.209h-.984v-.861l.984-.48v-.481q0-1.12.551-1.635.55-.516 1.764-.516.926 0 1.646.276l-.457 1.312q-.539-.17-.996-.17-.38 0-.55.226-.17.226-.17.577v.41h1.546zM32.435 13.713q0 .973.319 1.47.32.499 1.04.499.715 0 1.028-.495.314-.496.314-1.474 0-.973-.317-1.46-.316-.485-1.037-.485-.715 0-1.031.483-.316.483-.316 1.462zm4.529 0q0 1.6-.844 2.502-.844.902-2.35.902-.943 0-1.664-.413-.72-.413-1.107-1.186-.387-.774-.387-1.805 0-1.606.838-2.496.838-.89 2.356-.89.943 0 1.664.41.72.41 1.107 1.177.387.768.387 1.799zM42.097 10.326q.363 0 .603.053l-.135 1.676q-.216-.059-.527-.059-.855 0-1.333.44-.477.439-.477 1.23V17H38.44v-6.55h1.354l.264 1.1h.088q.304-.55.823-.887.518-.337 1.128-.337zM49.755 17h-1.787v-3.826q0-.71-.238-1.064-.237-.354-.747-.354-.685 0-.996.504-.31.504-.31 1.658V17H43.89v-6.55h1.365l.24.837h.1q.263-.451.761-.706.498-.255 1.143-.255 1.47 0 1.992.961h.158q.264-.457.777-.709.512-.252 1.157-.252 1.113 0 1.685.571.57.572.57 1.832V17h-1.792v-3.826q0-.71-.237-1.064-.238-.354-.747-.354-.657 0-.982.469-.325.468-.325 1.488zM62.95 17l-.346-.89h-.046q-.452.568-.93.787-.477.22-1.244.22-.944 0-1.486-.539t-.542-1.535q0-1.043.73-1.538.73-.495 2.2-.548l1.137-.035v-.287q0-.996-1.02-.996-.785 0-1.845.474l-.592-1.207q1.13-.592 2.508-.592 1.318 0 2.021.575.703.574.703 1.746V17zm-.527-3.035l-.692.023q-.779.024-1.16.282-.38.257-.38.785 0 .756.867.756.62 0 .993-.358.372-.357.372-.95zM71.112 12.465h.598q.838 0 1.254-.331.416-.331.416-.964 0-.639-.349-.943-.348-.305-1.093-.305h-.826zm4.102-1.36q0 1.383-.864 2.116-.865.732-2.458.732h-.78V17h-1.816V8.434h2.736q1.559 0 2.37.67.812.671.812 2.001zM80.347 10.326q.363 0 .603.053l-.135 1.676q-.216-.059-.527-.059-.855 0-1.333.44-.477.439-.477 1.23V17H76.69v-6.55h1.354l.264 1.1h.088q.304-.55.823-.887.518-.337 1.128-.337zM83.563 13.713q0 .973.32 1.47.32.499 1.04.499.715 0 1.028-.495.314-.496.314-1.474 0-.973-.317-1.46-.316-.485-1.037-.485-.715 0-1.031.483-.317.483-.317 1.462zm4.53 0q0 1.6-.844 2.502-.844.902-2.35.902-.943 0-1.664-.413-.72-.413-1.107-1.186-.387-.774-.387-1.805 0-1.606.838-2.496.838-.89 2.356-.89.943 0 1.664.41.72.41 1.107 1.177.387.768.387 1.799zM93.167 17.117q-1.154 0-1.81-.838h-.094q.093.82.093.95v2.654H89.57v-9.434h1.453l.252.85h.082q.627-.973 1.858-.973 1.16 0 1.816.897.657.896.657 2.49 0 1.049-.308 1.822-.308.774-.876 1.178-.568.404-1.336.404zm-.527-5.361q-.662 0-.967.407-.305.407-.317 1.345v.193q0 1.055.314 1.512.313.457.993.457 1.201 0 1.201-1.98 0-.967-.296-1.45-.296-.484-.928-.484zM99.876 11.598q-.568 0-.89.36-.323.36-.37 1.022h2.508q-.012-.662-.346-1.022-.334-.36-.902-.36zm.252 5.52q-1.582 0-2.473-.874-.89-.873-.89-2.473 0-1.646.823-2.545.823-.9 2.276-.9 1.389 0 2.162.791.774.791.774 2.186v.867h-4.225q.03.762.451 1.19.422.427 1.184.427.592 0 1.12-.123.526-.123 1.1-.393v1.383q-.468.235-1.001.349-.533.114-1.301.114zM107.91 10.326q.362 0 .603.053l-.135 1.676q-.217-.059-.527-.059-.856 0-1.333.44-.478.439-.478 1.23V17h-1.787v-6.55h1.353l.264 1.1h.088q.305-.55.823-.887.519-.337 1.128-.337zM36.568 35h-4.933v-8.566h4.933v1.488h-3.117v1.88h2.9v1.489h-2.9V33.5h3.117zM42.785 33.055q0 1.008-.7 1.535-.7.527-2.095.527-.715 0-1.219-.096-.503-.097-.943-.285V33.26q.498.234 1.122.392.624.159 1.099.159.972 0 .972-.563 0-.21-.128-.343-.13-.132-.446-.299-.316-.167-.843-.39-.756-.316-1.11-.585-.355-.27-.516-.618-.162-.349-.162-.859 0-.873.677-1.35.677-.478 1.92-.478 1.183 0 2.302.516l-.54 1.289q-.491-.211-.92-.346-.427-.135-.872-.135-.791 0-.791.428 0 .24.255.416t1.116.522q.767.31 1.125.58.357.27.527.62.17.352.17.839zM46.94 33.693q.468 0 1.124-.205v1.33q-.668.3-1.64.3-1.072 0-1.562-.543-.489-.542-.489-1.626v-3.158h-.855v-.756l.984-.598.516-1.382h1.142v1.394h1.834v1.342H46.16v3.158q0 .381.214.563.214.181.565.181zM49.313 26.756q0-.873.972-.873.973 0 .973.873 0 .416-.243.647-.244.232-.73.232-.972 0-.972-.88zM51.175 35h-1.787v-6.55h1.787zM58.916 35h-1.787v-3.826q0-.71-.237-1.064-.238-.354-.747-.354-.686 0-.997.504-.31.504-.31 1.658V35H53.05v-6.55h1.365l.24.837h.1q.264-.451.762-.706.498-.255 1.142-.255 1.47 0 1.992.961h.159q.263-.457.776-.709.513-.252 1.157-.252 1.113 0 1.685.571.571.572.571 1.832V35h-1.793v-3.826q0-.71-.237-1.064-.238-.354-.747-.354-.657 0-.982.469-.325.468-.325 1.488zM68.994 35l-.346-.89h-.046q-.452.568-.93.787-.477.22-1.244.22-.944 0-1.486-.539t-.542-1.535q0-1.043.73-1.538.73-.495 2.2-.548l1.137-.035v-.287q0-.996-1.02-.996-.785 0-1.845.474l-.592-1.207q1.13-.592 2.508-.592 1.318 0 2.021.575.703.574.703 1.746V35zm-.527-3.035l-.692.023q-.779.024-1.16.282-.38.257-.38.785 0 .756.867.756.62 0 .993-.358.372-.357.372-.95zM74.842 33.693q.469 0 1.125-.205v1.33q-.668.3-1.64.3-1.073 0-1.562-.543-.49-.542-.49-1.626v-3.158h-.855v-.756l.984-.598.516-1.382h1.142v1.394h1.834v1.342h-1.834v3.158q0 .381.214.563.214.181.566.181zM80.004 29.598q-.568 0-.89.36-.323.36-.37 1.022h2.508q-.012-.662-.346-1.022-.334-.36-.902-.36zm.252 5.52q-1.582 0-2.473-.874-.89-.873-.89-2.473 0-1.646.823-2.545.823-.9 2.276-.9 1.389 0 2.162.791.774.791.774 2.186v.867h-4.225q.03.762.451 1.19.422.427 1.184.427.592 0 1.119-.123t1.102-.393v1.383q-.47.235-1.002.349-.534.114-1.301.114z"></path></g></g><g transform="translate(451.887 299.925) scale(1.333)"><rect width="78" height="28" rx="10" ry="10" fill="#e0e0e0" stroke="#707070"></rect><g fill="#4f4f4f"><path d="M9.662 17H7.846V9.945H5.52V8.434h6.468v1.511H9.662zM16.822 10.326q.364 0 .604.053l-.135 1.676q-.217-.059-.527-.059-.856 0-1.333.44-.478.439-.478 1.23V17h-1.787v-6.55h1.354l.263 1.1h.088q.305-.55.823-.887.519-.337 1.128-.337zM22.775 17l-.345-.89h-.047q-.451.568-.929.787-.477.22-1.245.22-.943 0-1.485-.539-.542-.539-.542-1.535 0-1.043.73-1.538.729-.495 2.2-.548l1.136-.035v-.287q0-.996-1.02-.996-.785 0-1.845.474l-.592-1.207q1.13-.592 2.508-.592 1.318 0 2.021.575.703.574.703 1.746V17zm-.527-3.035l-.691.023q-.78.024-1.16.282-.381.257-.381.785 0 .756.867.756.62 0 .993-.358.372-.357.372-.95zM25.787 8.756q0-.873.973-.873.972 0 .972.873 0 .416-.243.647-.243.232-.73.232-.972 0-.972-.88zM27.65 17h-1.787v-6.55h1.787zM35.572 17h-1.787v-3.826q0-.71-.252-1.064-.252-.354-.803-.354-.75 0-1.084.5-.334.502-.334 1.662V17h-1.787v-6.55h1.366l.24.837h.1q.298-.475.823-.718.524-.243 1.192-.243 1.143 0 1.734.618.592.618.592 1.785zM47.643 8.434v5.543q0 .949-.425 1.664-.425.714-1.228 1.095-.803.381-1.898.381-1.653 0-2.567-.846-.914-.847-.914-2.318v-5.52h1.81v5.245q0 .99.4 1.453.398.463 1.318.463.89 0 1.292-.466.401-.466.401-1.462V8.434zM54.17 15.055q0 1.008-.7 1.535-.7.527-2.095.527-.715 0-1.219-.096-.504-.097-.943-.285V15.26q.498.234 1.122.392.624.159 1.099.159.972 0 .972-.563 0-.21-.129-.343-.129-.132-.445-.299-.316-.167-.844-.39-.756-.316-1.11-.585-.355-.27-.516-.618-.16-.349-.16-.859 0-.873.676-1.35.677-.478 1.919-.478 1.183 0 2.303.516l-.54 1.289q-.492-.211-.92-.346-.427-.135-.872-.135-.791 0-.791.428 0 .24.254.416.255.176 1.117.522.767.31 1.125.58.357.27.527.62.17.352.17.839zM58.277 11.598q-.568 0-.89.36-.323.36-.37 1.022h2.508q-.011-.662-.345-1.022-.334-.36-.903-.36zm.252 5.52q-1.582 0-2.472-.874-.891-.873-.891-2.473 0-1.646.823-2.545.824-.9 2.277-.9 1.388 0 2.162.791.773.791.773 2.186v.867h-4.224q.029.762.45 1.19.423.427 1.184.427.592 0 1.12-.123.527-.123 1.101-.393v1.383q-.469.235-1.002.349-.533.114-1.3.114zM66.31 10.326q.364 0 .604.053l-.135 1.676q-.216-.059-.527-.059-.856 0-1.333.44-.478.439-.478 1.23V17h-1.787v-6.55h1.354l.263 1.1h.088q.305-.55.824-.887.518-.337 1.128-.337zM72.674 15.055q0 1.008-.7 1.535-.7.527-2.095.527-.715 0-1.219-.096-.504-.097-.943-.285V15.26q.498.234 1.122.392.624.159 1.099.159.972 0 .972-.563 0-.21-.129-.343-.129-.132-.445-.299-.316-.167-.844-.39-.756-.316-1.11-.585-.355-.27-.516-.618-.16-.349-.16-.859 0-.873.676-1.35.677-.478 1.919-.478 1.183 0 2.303.516l-.54 1.289q-.492-.211-.92-.346-.427-.135-.873-.135-.79 0-.79.428 0 .24.254.416.255.176 1.117.522.767.31 1.125.58.357.27.527.62.17.352.17.839z"></path></g></g><g transform="translate(73.315 319.92) scale(1.333)"><rect width="86" height="46" rx="10" ry="10" fill="#e0e0e0" stroke="#707070"></rect><g fill="#4f4f4f"><path d="M10.633 17H6.736v-1.031l1.043-.48V9.944l-1.043-.48V8.434h3.897v1.03l-1.043.481v5.543l1.043.48zM18.004 17h-1.787v-3.826q0-.71-.252-1.064-.252-.354-.803-.354-.75 0-1.084.5-.334.502-.334 1.662V17h-1.787v-6.55h1.365l.24.837h.1q.299-.475.823-.718.525-.243 1.193-.243 1.142 0 1.734.618.592.618.592 1.785zM23.465 11.791h-1.547V17h-1.787v-5.209h-.985v-.861l.985-.48v-.481q0-1.12.55-1.635.551-.516 1.764-.516.926 0 1.647.276l-.457 1.312q-.54-.17-.996-.17-.381 0-.551.226-.17.226-.17.577v.41h1.547zM25.914 13.713q0 .973.32 1.47.319.499 1.04.499.714 0 1.028-.495.313-.496.313-1.474 0-.973-.316-1.46-.317-.485-1.037-.485-.715 0-1.032.483-.316.483-.316 1.462zm4.53 0q0 1.6-.844 2.502-.844.902-2.35.902-.943 0-1.664-.413-.72-.413-1.107-1.186-.387-.774-.387-1.805 0-1.606.838-2.496.838-.89 2.355-.89.944 0 1.664.41t1.108 1.177q.386.768.386 1.799zM35.576 10.326q.363 0 .604.053l-.135 1.676q-.217-.059-.527-.059-.856 0-1.333.44-.478.439-.478 1.23V17H31.92v-6.55h1.353l.264 1.1h.088q.305-.55.823-.887.519-.337 1.128-.337zM43.234 17h-1.787v-3.826q0-.71-.237-1.064-.237-.354-.747-.354-.686 0-.996.504-.31.504-.31 1.658V17h-1.788v-6.55h1.365l.24.837h.1q.264-.451.762-.706.498-.255 1.143-.255 1.47 0 1.992.961h.158q.264-.457.776-.709.513-.252 1.157-.252 1.114 0 1.685.571.571.572.571 1.832V17h-1.793v-3.826q0-.71-.237-1.064-.237-.354-.747-.354-.656 0-.981.469-.326.468-.326 1.488zM53.313 17l-.346-.89h-.047q-.451.568-.929.787-.477.22-1.245.22-.943 0-1.485-.539-.542-.539-.542-1.535 0-1.043.73-1.538.729-.495 2.2-.548l1.136-.035v-.287q0-.996-1.02-.996-.785 0-1.845.474l-.592-1.207q1.131-.592 2.508-.592 1.318 0 2.021.575.704.574.704 1.746V17zm-.528-3.035l-.691.023q-.78.024-1.16.282-.381.257-.381.785 0 .756.867.756.621 0 .993-.358.372-.357.372-.95zM59.16 15.693q.469 0 1.125-.205v1.33q-.668.3-1.64.3-1.073 0-1.562-.543-.49-.542-.49-1.626v-3.158h-.855v-.756l.985-.598.515-1.382h1.143v1.394h1.834v1.342H58.38v3.158q0 .381.214.563.214.181.565.181zM61.533 8.756q0-.873.973-.873t.973.873q0 .416-.244.647-.243.232-.73.232-.972 0-.972-.88zM63.396 17H61.61v-6.55h1.787zM66.695 13.713q0 .973.32 1.47.319.499 1.04.499.715 0 1.028-.495.313-.496.313-1.474 0-.973-.316-1.46-.316-.485-1.037-.485-.715 0-1.031.483-.317.483-.317 1.462zm4.53 0q0 1.6-.844 2.502-.844.902-2.35.902-.943 0-1.664-.413-.72-.413-1.107-1.186-.387-.774-.387-1.805 0-1.606.838-2.496.838-.89 2.355-.89.944 0 1.664.41.721.41 1.108 1.177.387.768.387 1.799zM78.748 17h-1.787v-3.826q0-.71-.252-1.064-.252-.354-.803-.354-.75 0-1.084.5-.334.502-.334 1.662V17h-1.787v-6.55h1.365l.24.837h.1q.3-.475.823-.718.525-.243 1.193-.243 1.142 0 1.734.618.592.618.592 1.785zM11.664 35l-.621-2.04H7.92L7.299 35H5.342l3.023-8.602h2.22L13.622 35zm-1.055-3.563q-.861-2.771-.97-3.134-.108-.364-.155-.574-.193.75-1.107 3.709zM18.215 28.326q.363 0 .603.053l-.134 1.676q-.217-.059-.528-.059-.855 0-1.333.44-.477.439-.477 1.23V35h-1.787v-6.55h1.353l.264 1.1h.088q.304-.55.823-.887.518-.337 1.128-.337zM22.668 35.117q-3.059 0-3.059-3.357 0-1.67.832-2.552.832-.882 2.385-.882 1.137 0 2.04.445l-.528 1.383q-.422-.17-.785-.278-.364-.108-.727-.108-1.394 0-1.394 1.98 0 1.922 1.394 1.922.516 0 .955-.138.44-.137.88-.43v1.529q-.434.275-.877.38-.442.106-1.116.106zM32.225 35h-1.788v-3.826q0-1.418-1.054-1.418-.75 0-1.084.51-.334.51-.334 1.652V35h-1.787v-9.117h1.787v1.857q0 .217-.041 1.02l-.041.527h.094q.597-.96 1.898-.96 1.154 0 1.752.62.598.621.598 1.782zM33.988 26.756q0-.873.973-.873t.973.873q0 .416-.244.647-.243.232-.73.232-.972 0-.972-.88zM35.852 35h-1.788v-6.55h1.788zM40.486 33.693q.47 0 1.125-.205v1.33q-.668.3-1.64.3-1.073 0-1.562-.543-.49-.542-.49-1.626v-3.158h-.855v-.756l.985-.598.515-1.382h1.143v1.394h1.834v1.342h-1.834v3.158q0 .381.214.563.214.181.565.181zM45.648 29.598q-.568 0-.89.36-.322.36-.37 1.022h2.508q-.011-.662-.345-1.022-.334-.36-.903-.36zm.252 5.52q-1.582 0-2.472-.874-.89-.873-.89-2.473 0-1.646.822-2.545.824-.9 2.277-.9 1.388 0 2.162.791.773.791.773 2.186v.867h-4.224q.029.762.45 1.19.423.427 1.184.427.592 0 1.12-.123.527-.123 1.101-.393v1.383q-.469.235-1.002.349-.533.114-1.3.114zM52.686 35.117q-3.059 0-3.059-3.357 0-1.67.832-2.552.832-.882 2.385-.882 1.136 0 2.039.445l-.528 1.383q-.421-.17-.785-.278-.363-.108-.726-.108-1.395 0-1.395 1.98 0 1.922 1.395 1.922.515 0 .955-.138.44-.137.879-.43v1.529q-.434.275-.876.38-.443.106-1.116.106zM58.955 33.693q.469 0 1.125-.205v1.33q-.668.3-1.64.3-1.073 0-1.562-.543-.49-.542-.49-1.626v-3.158h-.855v-.756l.985-.598.515-1.382h1.143v1.394h1.834v1.342h-1.834v3.158q0 .381.214.563.214.181.565.181zM66.045 35l-.24-.838h-.094q-.287.457-.815.706-.527.25-1.2.25-1.155 0-1.74-.619-.587-.618-.587-1.778v-4.272h1.787v3.826q0 .71.252 1.064.252.354.803.354.75 0 1.084-.5.334-.502.334-1.662V28.45h1.787V35zM72.947 28.326q.364 0 .604.053l-.135 1.676q-.217-.059-.527-.059-.856 0-1.333.44-.478.439-.478 1.23V35h-1.787v-6.55h1.354l.263 1.1h.088q.305-.55.823-.887.519-.337 1.128-.337zM77.453 29.598q-.568 0-.89.36-.323.36-.37 1.022h2.508q-.012-.662-.346-1.022-.334-.36-.902-.36zm.252 5.52q-1.582 0-2.473-.874-.89-.873-.89-2.473 0-1.646.823-2.545.823-.9 2.276-.9 1.39 0 2.163.791.773.791.773 2.186v.867h-4.225q.03.762.452 1.19.421.427 1.183.427.592 0 1.12-.123.527-.123 1.1-.393v1.383q-.468.235-1.001.349-.533.114-1.3.114z"></path></g></g><g transform="translate(451.887 363.909) scale(1.333)"><rect width="124" height="28" rx="10" ry="10" fill="#e0e0e0" stroke="#707070"></rect><g fill="#4f4f4f"><path d="M13.865 17h-2.308L7.83 10.52h-.053q.112 1.716.112 2.449V17H6.266V8.434h2.29l3.721 6.416h.041q-.088-1.67-.088-2.362V8.434h1.635zM17.305 13.713q0 .973.319 1.47.32.499 1.04.499.715 0 1.028-.495.314-.496.314-1.474 0-.973-.317-1.46-.316-.485-1.037-.485-.715 0-1.03.483-.317.483-.317 1.462zm4.529 0q0 1.6-.844 2.502-.844.902-2.35.902-.943 0-1.663-.413-.721-.413-1.108-1.186-.387-.774-.387-1.805 0-1.606.838-2.496.838-.89 2.356-.89.943 0 1.664.41.72.41 1.107 1.177.387.768.387 1.799zM26.07 15.693q.47 0 1.125-.205v1.33q-.668.3-1.64.3-1.073 0-1.562-.543-.49-.542-.49-1.626v-3.158h-.855v-.756l.985-.598.515-1.382h1.143v1.394h1.834v1.342h-1.834v3.158q0 .381.214.563.214.181.565.181zM35.797 17l-.346-.89h-.047q-.45.568-.928.787-.478.22-1.246.22-.943 0-1.485-.539-.542-.539-.542-1.535 0-1.043.73-1.538.73-.495 2.2-.548l1.137-.035v-.287q0-.996-1.02-.996-.785 0-1.846.474l-.592-1.207q1.131-.592 2.508-.592 1.319 0 2.022.575.703.574.703 1.746V17zm-.527-3.035l-.692.023q-.78.024-1.16.282-.38.257-.38.785 0 .756.866.756.621 0 .993-.358.373-.357.373-.95zM44.932 17h-1.787v-3.826q0-.71-.252-1.064-.252-.354-.803-.354-.75 0-1.084.5-.334.502-.334 1.662V17h-1.787v-6.55h1.365l.24.837h.1q.299-.475.823-.718.525-.243 1.192-.243 1.143 0 1.735.618.592.618.592 1.785zM53.234 17h-3.896v-1.031l1.043-.48V9.944l-1.043-.48V8.434h3.896v1.03l-1.043.481v5.543l1.043.48zM58.004 17h-1.816V9.945H53.86V8.434h6.47v1.511h-2.327zM67.97 17h-3.896v-1.031l1.043-.48V9.944l-1.043-.48V8.434h3.897v1.03l-1.043.481v5.543l1.043.48zM75.342 17h-1.787v-3.826q0-.71-.252-1.064-.252-.354-.803-.354-.75 0-1.084.5-.334.502-.334 1.662V17h-1.787v-6.55h1.365l.24.837h.1q.299-.475.823-.718.525-.243 1.193-.243 1.142 0 1.734.618.592.618.592 1.785zM77.105 8.756q0-.873.973-.873t.973.873q0 .416-.243.647-.244.232-.73.232-.973 0-.973-.88zM78.97 17h-1.787v-6.55h1.787zM83.604 15.693q.468 0 1.125-.205v1.33q-.668.3-1.641.3-1.072 0-1.562-.543-.489-.542-.489-1.626v-3.158h-.855v-.756l.984-.598.516-1.382h1.142v1.394h1.834v1.342h-1.834v3.158q0 .381.214.563.214.181.566.181zM85.977 8.756q0-.873.972-.873.973 0 .973.873 0 .416-.243.647-.243.232-.73.232-.972 0-.972-.88zM87.84 17h-1.787v-6.55h1.787zM93.875 17l-.346-.89h-.047q-.45.568-.928.787-.478.22-1.245.22-.944 0-1.486-.539t-.542-1.535q0-1.043.73-1.538.73-.495 2.2-.548l1.137-.035v-.287q0-.996-1.02-.996-.785 0-1.846.474l-.591-1.207q1.13-.592 2.507-.592 1.319 0 2.022.575.703.574.703 1.746V17zm-.527-3.035l-.692.023q-.779.024-1.16.282-.38.257-.38.785 0 .756.866.756.622 0 .994-.358.372-.357.372-.95zM99.723 15.693q.468 0 1.125-.205v1.33q-.668.3-1.641.3-1.072 0-1.561-.543-.49-.542-.49-1.626v-3.158h-.855v-.756l.984-.598.516-1.382h1.142v1.394h1.834v1.342h-1.834v3.158q0 .381.214.563.214.181.566.181zM102.096 8.756q0-.873.972-.873.973 0 .973.873 0 .416-.243.647-.243.232-.73.232-.972 0-.972-.88zM103.959 17h-1.787v-6.55h1.787zM107.393 17l-2.497-6.55h1.87l1.265 3.732q.194.609.252 1.341h.047q.035-.662.264-1.341l1.26-3.733h1.869L109.227 17zM115.373 11.598q-.568 0-.89.36-.323.36-.37 1.022h2.508q-.012-.662-.346-1.022-.334-.36-.902-.36zm.252 5.52q-1.582 0-2.473-.874-.89-.873-.89-2.473 0-1.646.823-2.545.823-.9 2.276-.9 1.389 0 2.162.791.774.791.774 2.186v.867h-4.225q.03.762.451 1.19.422.427 1.184.427.592 0 1.12-.123.527-.123 1.1-.393v1.383q-.468.235-1.001.349-.533.114-1.301.114z"></path></g></g><g transform="translate(57.319 407.898) scale(1.333)"><rect width="98" height="28" rx="10" ry="10" fill="#e0e0e0" stroke="#707070"></rect><g fill="#4f4f4f"><path d="M9.437 17H7.621V9.945H5.295V8.434h6.469v1.511H9.437zM15.654 11.598q-.568 0-.89.36-.323.36-.37 1.022h2.508q-.011-.662-.345-1.022-.334-.36-.903-.36zm.252 5.52q-1.582 0-2.472-.874-.891-.873-.891-2.473 0-1.646.823-2.545.823-.9 2.277-.9 1.388 0 2.162.791.773.791.773 2.186v.867h-4.224q.029.762.45 1.19.423.427 1.184.427.592 0 1.12-.123.527-.123 1.101-.393v1.383q-.469.235-1.002.349-.533.114-1.3.114zM24.602 15.055q0 1.008-.7 1.535-.7.527-2.095.527-.715 0-1.22-.096-.503-.097-.942-.285V15.26q.498.234 1.122.392.624.159 1.098.159.973 0 .973-.563 0-.21-.129-.343-.129-.132-.445-.299-.317-.167-.844-.39-.756-.316-1.11-.585-.355-.27-.516-.618-.161-.349-.161-.859 0-.873.677-1.35.676-.478 1.919-.478 1.183 0 2.302.516l-.539 1.289q-.492-.211-.92-.346-.427-.135-.873-.135-.79 0-.79.428 0 .24.254.416.255.176 1.116.522.768.31 1.125.58.358.27.528.62.17.352.17.839zM28.756 15.693q.469 0 1.125-.205v1.33q-.668.3-1.64.3-1.073 0-1.562-.543-.49-.542-.49-1.626v-3.158h-.855v-.756l.984-.598.516-1.382h1.143v1.394h1.834v1.342h-1.834v3.158q0 .381.213.563.214.181.566.181zM38.09 17l-2.063-6.72h-.052q.11 2.05.11 2.736V17h-1.622V8.434h2.473l2.027 6.55h.035l2.15-6.55h2.473V17h-1.693v-4.055q0-.287.009-.662.008-.375.079-1.992h-.053L39.753 17zM45.56 8.756q0-.873.973-.873t.973.873q0 .416-.243.647-.243.232-.73.232-.972 0-.972-.88zM47.425 17h-1.787v-6.55h1.787zM52.012 15.717q.72 0 1.031-.413.31-.413.31-1.34v-.216q0-1.049-.325-1.509-.325-.46-1.046-.46-1.26 0-1.26 1.98 0 .985.314 1.471.314.487.976.487zm3.011 1.295q0 1.412-.823 2.141-.823.73-2.452.73-1.435 0-2.45-.387v-1.43q1.19.504 2.556.504 1.376 0 1.376-1.488v-.129l.053-.803h-.053q-.626.967-1.857.967-1.178 0-1.825-.908-.648-.908-.648-2.473 0-1.611.671-2.51.671-.9 1.849-.9 1.207 0 1.898.961h.047l.147-.838h1.511zM61.053 17l-.346-.89h-.047q-.451.568-.929.787-.477.22-1.245.22-.943 0-1.485-.539-.542-.539-.542-1.535 0-1.043.73-1.538.729-.495 2.2-.548l1.136-.035v-.287q0-.996-1.02-.996-.784 0-1.845.474l-.592-1.207q1.131-.592 2.508-.592 1.319 0 2.022.575.703.574.703 1.746V17zm-.528-3.035l-.691.023q-.78.024-1.16.282-.381.257-.381.785 0 .756.867.756.621 0 .993-.358.372-.357.372-.95zM66.9 15.693q.47 0 1.125-.205v1.33q-.668.3-1.64.3-1.073 0-1.562-.543-.489-.542-.489-1.626v-3.158h-.855v-.756l.984-.598.516-1.382h1.142v1.394h1.834v1.342h-1.834v3.158q0 .381.214.563.214.181.565.181zM69.273 8.756q0-.873.973-.873t.973.873q0 .416-.243.647-.244.232-.73.232-.973 0-.973-.88zM71.137 17H69.35v-6.55h1.787zM74.436 13.713q0 .973.319 1.47.32.499 1.04.499.715 0 1.028-.495.314-.496.314-1.474 0-.973-.317-1.46-.316-.485-1.037-.485-.715 0-1.031.483-.316.483-.316 1.462zm4.529 0q0 1.6-.844 2.502-.844.902-2.35.902-.943 0-1.664-.413-.72-.413-1.107-1.186-.387-.774-.387-1.805 0-1.606.838-2.496.838-.89 2.356-.89.943 0 1.664.41.72.41 1.107 1.177.387.768.387 1.799zM86.488 17h-1.787v-3.826q0-.71-.252-1.064-.252-.354-.803-.354-.75 0-1.084.5-.333.502-.333 1.662V17H80.44v-6.55h1.366l.24.837h.1q.298-.475.823-.718.524-.243 1.192-.243 1.143 0 1.734.618.592.618.592 1.785zM92.898 15.055q0 1.008-.7 1.535-.7.527-2.094.527-.715 0-1.22-.096-.503-.097-.943-.285V15.26q.498.234 1.122.392.624.159 1.1.159.972 0 .972-.563 0-.21-.13-.343-.128-.132-.444-.299-.317-.167-.844-.39-.756-.316-1.11-.585-.355-.27-.516-.618-.161-.349-.161-.859 0-.873.676-1.35.677-.478 1.92-.478 1.183 0 2.302.516l-.539 1.289q-.492-.211-.92-.346-.428-.135-.873-.135-.79 0-.79.428 0 .24.254.416.255.176 1.116.522.768.31 1.125.58.358.27.528.62.17.352.17.839z"></path></g></g><g transform="translate(451.887 427.893) scale(1.333)"><rect width="128" height="46" rx="10" ry="10" fill="#e0e0e0" stroke="#707070"></rect><g fill="#4f4f4f"><path d="M10.173 9.822q-1.026 0-1.588.77-.563.771-.563 2.148 0 2.865 2.15 2.865.903 0 2.186-.45v1.523q-1.054.44-2.355.44-1.87 0-2.86-1.135-.99-1.133-.99-3.254 0-1.336.487-2.341.486-1.005 1.397-1.541t2.136-.536q1.248 0 2.508.603l-.586 1.477q-.48-.229-.967-.399-.486-.17-.955-.17zM15.464 13.713q0 .973.32 1.47.319.499 1.04.499.714 0 1.028-.495.313-.496.313-1.474 0-.973-.316-1.46-.317-.485-1.037-.485-.715 0-1.032.483-.316.483-.316 1.462zm4.53 0q0 1.6-.845 2.502-.843.902-2.35.902-.943 0-1.663-.413-.721-.413-1.108-1.186-.386-.774-.386-1.805 0-1.606.837-2.496.838-.89 2.356-.89.943 0 1.664.41.72.41 1.107 1.177.387.768.387 1.799zM27.517 17h-1.788v-3.826q0-.71-.251-1.064-.252-.354-.803-.354-.75 0-1.084.5-.334.502-.334 1.662V17H21.47v-6.55h1.365l.24.837h.1q.299-.475.823-.718t1.192-.243q1.143 0 1.735.618.592.618.592 1.785zM31.43 17.117q-1.154 0-1.813-.896-.659-.897-.659-2.485 0-1.611.67-2.51.672-.9 1.85-.9 1.236 0 1.886.961h.059q-.135-.732-.135-1.307V7.883h1.793V17H33.71l-.346-.85h-.076q-.61.967-1.857.967zm.628-1.424q.685 0 1.005-.398.319-.399.348-1.354v-.193q0-1.055-.325-1.512-.325-.457-1.058-.457-.597 0-.928.507-.331.507-.331 1.474t.334 1.45q.334.483.955.483zM41.59 17l-.24-.838h-.093q-.287.457-.815.706-.527.25-1.2.25-1.155 0-1.741-.619-.586-.618-.586-1.778v-4.272h1.787v3.826q0 .71.252 1.064.252.354.803.354.75 0 1.084-.5.334-.502.334-1.662V10.45h1.787V17zM47.497 17.117q-3.059 0-3.059-3.357 0-1.67.833-2.552.832-.882 2.384-.882 1.137 0 2.04.445l-.528 1.383q-.422-.17-.785-.278-.363-.108-.727-.108-1.394 0-1.394 1.98 0 1.922 1.394 1.922.516 0 .955-.138.44-.137.88-.43v1.529q-.434.275-.877.38-.442.106-1.116.106zM53.767 15.693q.468 0 1.125-.205v1.33q-.668.3-1.641.3-1.072 0-1.562-.543-.489-.542-.489-1.626v-3.158h-.855v-.756l.984-.598.516-1.382h1.142v1.394h1.834v1.342h-1.834v3.158q0 .381.214.563.214.181.566.181zM61.29 12.465h.598q.838 0 1.254-.331.416-.331.416-.964 0-.639-.349-.943-.349-.305-1.093-.305h-.826zm4.102-1.36q0 1.383-.865 2.116-.864.732-2.458.732h-.779V17h-1.816V8.434h2.736q1.559 0 2.37.67.812.671.812 2.001zM66.792 8.756q0-.873.973-.873.972 0 .972.873 0 .416-.243.647-.243.232-.73.232-.972 0-.972-.88zM68.655 17h-1.787v-6.55h1.787zM72.317 17H70.53V7.883h1.787zM75.616 13.713q0 .973.32 1.47.319.499 1.04.499.714 0 1.028-.495.313-.496.313-1.474 0-.973-.316-1.46-.316-.485-1.037-.485-.715 0-1.031.483-.317.483-.317 1.462zm4.53 0q0 1.6-.844 2.502-.844.902-2.35.902-.943 0-1.664-.413-.72-.413-1.107-1.186-.387-.774-.387-1.805 0-1.606.838-2.496.838-.89 2.355-.89.944 0 1.664.41.721.41 1.108 1.177.387.768.387 1.799zM84.382 15.693q.469 0 1.125-.205v1.33q-.668.3-1.64.3-1.073 0-1.562-.543-.49-.542-.49-1.626v-3.158h-.855v-.756l.984-.598.516-1.382h1.143v1.394h1.834v1.342h-1.834v3.158q0 .381.213.563.214.181.566.181zM91.401 15.055q0 1.008-.7 1.535-.7.527-2.095.527-.714 0-1.218-.096-.504-.097-.944-.285V15.26q.498.234 1.122.392.624.159 1.099.159.973 0 .973-.563 0-.21-.13-.343-.128-.132-.445-.299-.316-.167-.843-.39-.756-.316-1.11-.585-.355-.27-.516-.618-.161-.349-.161-.859 0-.873.676-1.35.677-.478 1.92-.478 1.183 0 2.302.516l-.539 1.289q-.492-.211-.92-.346-.428-.135-.873-.135-.791 0-.791.428 0 .24.255.416t1.116.522q.768.31 1.125.58.358.27.527.62.17.352.17.839zM96.757 8.434L93.563 17H91.94l3.194-8.566zM99.68 17h-1.786V8.434h4.91v1.488H99.68v2.209h2.906v1.482H99.68zM104.263 8.756q0-.873.972-.873.973 0 .973.873 0 .416-.243.647-.243.232-.73.232-.972 0-.972-.88zM106.126 17h-1.787v-6.55h1.787zM114.048 17h-1.787v-3.826q0-.71-.252-1.064-.252-.354-.803-.354-.75 0-1.084.5-.334.502-.334 1.662V17h-1.787v-6.55h1.365l.24.837h.1q.299-.475.823-.718.525-.243 1.193-.243 1.142 0 1.734.618.592.618.592 1.785zM117.962 17.117q-1.154 0-1.814-.896-.659-.897-.659-2.485 0-1.611.671-2.51.671-.9 1.849-.9 1.236 0 1.887.961h.058q-.135-.732-.135-1.307V7.883h1.793V17h-1.37l-.346-.85h-.077q-.609.967-1.857.967zm.627-1.424q.685 0 1.005-.398.32-.399.348-1.354v-.193q0-1.055-.325-1.512-.325-.457-1.057-.457-.598 0-.93.507-.33.507-.33 1.474t.334 1.45q.334.483.955.483zM35.166 27.822q-1.025 0-1.588.77-.562.771-.562 2.148 0 2.865 2.15 2.865.902 0 2.186-.45v1.523q-1.055.44-2.356.44-1.869 0-2.86-1.135-.99-1.133-.99-3.254 0-1.336.487-2.341.486-1.005 1.397-1.541t2.136-.536q1.248 0 2.508.603l-.586 1.477q-.48-.229-.967-.399-.486-.17-.955-.17zM45.08 35h-1.787v-3.826q0-1.418-1.055-1.418-.75 0-1.084.51-.334.51-.334 1.652V35h-1.787v-9.117h1.787v1.857q0 .217-.04 1.02l-.042.527h.094q.598-.96 1.898-.96 1.155 0 1.752.62.598.621.598 1.782zM51.08 35l-.346-.89h-.047q-.45.568-.928.787-.478.22-1.245.22-.944 0-1.486-.539t-.542-1.535q0-1.043.73-1.538.73-.495 2.2-.548l1.137-.035v-.287q0-.996-1.02-.996-.785 0-1.846.474l-.591-1.207q1.13-.592 2.508-.592 1.318 0 2.021.575.703.574.703 1.746V35zm-.527-3.035l-.692.023q-.779.024-1.16.282-.38.257-.38.785 0 .756.867.756.62 0 .993-.358.372-.357.372-.95zM60.033 35h-1.787v-3.826q0-.71-.237-1.064-.238-.354-.747-.354-.686 0-.996.504-.31.504-.31 1.658V35h-1.788v-6.55h1.365l.24.837h.1q.264-.451.762-.706.498-.255 1.142-.255 1.471 0 1.993.961h.158q.263-.457.776-.709.513-.252 1.157-.252 1.114 0 1.685.571.571.572.571 1.832V35h-1.793v-3.826q0-.71-.237-1.064-.237-.354-.747-.354-.656 0-.982.469-.325.468-.325 1.488zM69.549 35.117q-1.154 0-1.81-.838h-.094q.093.82.093.95v2.654h-1.787v-9.434h1.453l.252.85h.082q.627-.973 1.858-.973 1.16 0 1.816.897.656.896.656 2.49 0 1.049-.307 1.822-.308.774-.876 1.178-.569.404-1.336.404zm-.528-5.361q-.662 0-.966.407-.305.407-.317 1.345v.193q0 1.055.314 1.512.313.457.993.457 1.201 0 1.201-1.98 0-.967-.296-1.45-.296-.484-.929-.484zM73.469 26.756q0-.873.972-.873.973 0 .973.873 0 .416-.243.647-.243.232-.73.232-.972 0-.972-.88zM75.332 35h-1.787v-6.55h1.787zM78.63 31.713q0 .973.32 1.47.32.499 1.04.499.715 0 1.029-.495.313-.496.313-1.474 0-.973-.316-1.46-.317-.485-1.037-.485-.715 0-1.032.483-.316.483-.316 1.462zm4.53 0q0 1.6-.844 2.502-.843.902-2.35.902-.943 0-1.663-.413-.721-.413-1.108-1.186-.386-.774-.386-1.805 0-1.606.837-2.496.838-.89 2.356-.89.943 0 1.664.41.72.41 1.107 1.177.387.768.387 1.799zM90.684 35h-1.788v-3.826q0-.71-.251-1.064-.252-.354-.803-.354-.75 0-1.084.5-.334.502-.334 1.662V35h-1.787v-6.55h1.365l.24.837h.1q.299-.474.823-.718.524-.243 1.192-.243 1.143 0 1.735.618.592.619.592 1.785zM97.094 33.055q0 1.008-.7 1.535-.7.527-2.095.527-.715 0-1.219-.096-.504-.097-.943-.285V33.26q.498.234 1.122.392.624.159 1.098.159.973 0 .973-.563 0-.21-.129-.343-.129-.132-.445-.299-.317-.167-.844-.39-.756-.316-1.11-.585-.355-.27-.516-.618-.161-.349-.161-.859 0-.873.677-1.35.677-.478 1.919-.478 1.183 0 2.302.516l-.539 1.289q-.492-.211-.92-.346-.427-.135-.873-.135-.79 0-.79.428 0 .24.254.416.255.176 1.116.522.768.31 1.125.58.358.27.528.62.17.352.17.839z"></path></g></g></g></svg> 