<?xml version="1.0" standalone="no"?>
<!DOCTYPE svg PUBLIC "-//W3C//DTD SVG 20010904//EN"
 "http://www.w3.org/TR/2001/REC-SVG-20010904/DTD/svg10.dtd">
<svg version="1.0" xmlns="http://www.w3.org/2000/svg"
 viewBox="0 0 1280.000000 1122.000000"
 preserveAspectRatio="xMidYMid meet" height="16px" width="16px">
<g transform="translate(0.000000,1122.000000) scale(0.100000,-0.100000)"
fill="#21488a" stroke="none">
<path d="M9565 10944 c-76 -57 -96 -69 -90 -51 10 24 -33 57 -74 57 -54 0
-128 -41 -295 -164 -78 -57 -534 -390 -1014 -740 -480 -350 -899 -656 -930
-679 -161 -118 -196 -162 -196 -243 -1 -38 4 -58 19 -75 11 -12 14 -19 8 -15
-19 10 -17 5 27 -92 62 -137 75 -198 75 -342 0 -152 -18 -227 -83 -355 -37
-72 -64 -108 -137 -180 -51 -51 -118 -107 -155 -128 -221 -128 -511 -133 -738
-12 -36 19 -69 32 -73 29 -4 -2 -27 18 -51 46 -170 197 -228 484 -147 731 29
87 50 128 125 236 35 51 64 95 64 98 0 2 -63 52 -140 110 -125 95 -165 130
-127 109 6 -3 -1 5 -18 20 -16 14 -35 23 -42 21 -7 -2 -15 1 -19 7 -5 7 -2 8
7 3 12 -8 12 -6 0 8 -7 10 -21 16 -30 15 -8 -2 -16 4 -16 12 0 8 -8 15 -17 15
-9 0 -20 4 -25 9 -5 5 -2 6 7 1 13 -8 13 -7 1 8 -14 18 -36 24 -26 7 10 -16
-1 -11 -16 7 -12 15 -12 16 1 8 13 -8 13 -7 1 8 -15 19 -36 23 -25 5 5 -7 3
-8 -5 -4 -7 5 -10 11 -7 14 7 7 -13 32 -26 32 -5 0 -6 -6 -2 -12 4 -8 3 -10
-2 -5 -5 5 -9 14 -9 20 0 7 -8 12 -17 12 -9 0 -20 4 -25 9 -5 5 -2 6 7 1 13
-8 13 -7 1 8 -14 18 -36 24 -26 7 10 -16 -1 -11 -16 7 -12 15 -12 16 1 8 13
-8 13 -7 1 8 -15 19 -36 23 -25 5 5 -7 3 -8 -5 -4 -7 5 -10 11 -7 14 7 7 -13
32 -26 32 -5 0 -6 -5 -2 -12 5 -7 3 -8 -5 -4 -7 5 -10 11 -7 14 7 7 -13 32
-26 32 -5 0 -6 -6 -2 -12 4 -8 3 -10 -2 -5 -5 5 -9 14 -9 20 0 5 -6 12 -14 15
-8 3 -11 0 -7 -7 11 -17 0 -13 -15 6 -12 15 -12 16 1 8 13 -8 13 -7 1 8 -15
19 -36 23 -25 5 5 -7 3 -8 -5 -4 -7 5 -10 11 -7 14 7 7 -13 32 -26 32 -5 0 -6
-6 -2 -12 4 -8 3 -10 -2 -5 -5 5 -9 14 -9 20 0 7 -8 12 -17 12 -9 0 -20 4 -25
9 -5 5 -2 6 7 1 13 -8 13 -7 1 8 -14 18 -36 24 -26 7 10 -16 -1 -11 -16 7 -12
15 -12 16 1 8 13 -8 13 -7 1 8 -14 18 -36 24 -26 7 10 -16 -1 -11 -16 7 -12
15 -12 16 1 8 13 -8 13 -7 1 8 -15 19 -36 23 -25 5 5 -7 3 -8 -5 -4 -7 5 -10
11 -7 14 7 7 -13 32 -26 32 -5 0 -6 -6 -2 -12 4 -8 3 -10 -2 -5 -5 5 -9 14 -9
20 0 7 -8 12 -17 12 -9 0 -20 4 -25 9 -5 5 -2 6 7 1 13 -8 13 -7 1 8 -14 18
-36 24 -26 7 10 -16 -1 -11 -16 7 -12 15 -12 16 1 8 13 -8 13 -7 1 8 -16 20
-36 23 -25 5 4 -8 3 -10 -2 -5 -5 5 -9 14 -9 20 0 7 -8 12 -17 12 -10 0 -18 5
-19 10 -1 14 -20 35 -31 35 -5 0 -6 -6 -2 -12 4 -8 3 -10 -2 -5 -5 5 -9 14 -9
20 0 5 -6 12 -14 15 -8 3 -11 0 -7 -7 11 -17 0 -13 -15 6 -12 15 -12 16 1 8
13 -8 13 -7 1 8 -14 18 -36 24 -26 7 10 -16 -1 -11 -16 7 -12 15 -12 16 1 8
13 -8 13 -7 1 8 -16 20 -36 23 -25 5 4 -8 3 -10 -2 -5 -5 5 -9 14 -9 20 0 7
-9 12 -20 12 -11 0 -20 7 -20 15 0 8 -8 15 -17 15 -9 0 -20 4 -25 9 -5 5 -2 6
7 1 13 -8 13 -7 1 8 -16 20 -36 23 -25 5 5 -9 2 -9 -9 1 -20 16 -23 26 -4 15
8 -5 8 -2 -2 9 -16 20 -36 23 -25 5 4 -8 3 -10 -2 -5 -5 5 -9 12 -9 15 0 13
-16 32 -26 32 -6 0 -7 -6 -3 -12 4 -8 3 -10 -2 -5 -5 5 -9 14 -9 20 0 7 -8 12
-17 12 -9 0 -20 4 -25 9 -5 5 -2 6 7 1 13 -8 13 -7 1 8 -16 20 -36 23 -25 5 5
-9 2 -9 -9 1 -20 16 -23 26 -4 15 8 -5 8 -2 -2 9 -16 20 -36 23 -25 5 4 -8 3
-10 -2 -5 -5 5 -9 12 -9 15 0 13 -16 32 -26 32 -6 0 -7 -6 -3 -12 4 -8 3 -10
-2 -5 -5 5 -9 12 -9 15 0 13 -16 32 -26 32 -6 0 -7 -6 -3 -12 4 -8 3 -10 -2
-5 -5 5 -9 14 -9 20 0 5 -6 12 -14 15 -9 3 -11 0 -5 -9 7 -12 5 -12 -9 0 -20
16 -23 26 -4 15 8 -5 8 -2 -2 9 -16 20 -36 23 -25 5 4 -8 3 -10 -2 -5 -5 5 -9
12 -9 15 0 13 -16 32 -26 32 -6 0 -7 -6 -3 -12 4 -8 3 -10 -2 -5 -5 5 -9 14
-9 20 0 7 -9 12 -20 12 -11 0 -20 7 -20 15 0 8 -8 15 -17 15 -9 0 -20 4 -25 9
-5 5 -2 6 7 1 13 -8 13 -7 1 8 -16 20 -36 23 -25 5 4 -8 3 -10 -2 -5 -5 5 -9
12 -9 15 0 13 -16 32 -26 32 -6 0 -7 -6 -3 -12 4 -8 3 -10 -2 -5 -5 5 -9 12
-9 15 0 13 -16 32 -26 32 -6 0 -7 -6 -3 -12 4 -8 3 -10 -2 -5 -5 5 -9 14 -9
20 0 7 -8 12 -17 12 -9 0 -20 4 -25 9 -5 5 -2 6 7 1 13 -8 13 -7 1 8 -16 20
-36 23 -25 5 5 -9 2 -9 -9 1 -20 16 -23 26 -4 15 8 -5 8 -2 -2 9 -16 20 -36
23 -25 5 4 -8 3 -10 -2 -5 -5 5 -9 14 -9 20 0 7 -9 12 -20 12 -11 0 -20 7 -20
15 0 8 -8 15 -17 15 -9 0 -20 4 -25 9 -5 5 -2 6 7 1 13 -8 13 -7 1 8 -16 20
-36 23 -25 5 5 -9 2 -9 -9 1 -20 16 -23 26 -4 15 8 -5 8 -2 -2 9 -16 20 -36
23 -25 5 4 -8 3 -10 -2 -5 -5 5 -9 12 -9 15 0 13 -16 32 -26 32 -6 0 -7 -6 -3
-12 4 -8 3 -10 -2 -5 -5 5 -9 12 -9 15 0 13 -16 32 -26 32 -6 0 -7 -6 -3 -12
4 -8 3 -10 -2 -5 -5 5 -9 14 -9 20 0 7 -8 12 -17 12 -9 0 -20 4 -25 9 -4 5 -3
6 5 2 25 -15 11 4 -21 25 l-32 23 20 -24 20 -23 -27 18 c-15 9 -25 22 -21 28
3 5 1 7 -4 4 -6 -4 -38 13 -72 38 l-61 45 -1 -48 c-1 -26 -3 -39 -6 -29 -12
47 -52 -17 -60 -97 -3 -28 9 -179 26 -336 17 -157 44 -412 61 -567 69 -644 91
-857 120 -1120 90 -848 86 -817 116 -877 23 -44 56 -79 64 -66 4 6 12 -26 18
-71 7 -45 14 -84 17 -87 2 -2 57 1 121 8 64 7 146 10 183 6 157 -14 327 -87
428 -183 32 -30 50 -49 40 -42 -10 7 -3 -10 17 -41 48 -73 91 -197 106 -306
15 -112 2 -228 -39 -344 -41 -116 -86 -184 -186 -285 -102 -103 -194 -158
-331 -197 -102 -29 -285 -32 -384 -5 -70 19 -192 73 -243 109 l-32 22 25 -30
25 -29 -28 25 c-16 14 -49 52 -74 85 -42 55 -62 93 -136 257 l-26 58 -35 -15
c-41 -17 -49 -18 -42 -6 4 5 -15 19 -40 31 -37 18 -57 22 -104 17 -61 -5 -86
-16 -1205 -507 -253 -111 -620 -272 -815 -357 -479 -209 -570 -253 -608 -298
-39 -43 -44 -91 -11 -103 18 -7 12 -12 -41 -36 -34 -15 -60 -29 -58 -31 3 -2
2706 -1200 2901 -1285 54 -23 99 -41 101 -39 2 2 32 60 67 129 57 113 72 134
158 221 82 82 109 102 191 141 109 53 196 77 313 85 174 11 397 -65 517 -177
30 -28 48 -48 40 -44 -12 6 -12 4 1 -12 31 -36 90 -166 110 -243 27 -102 29
-260 4 -361 -54 -221 -201 -407 -398 -504 -109 -54 -174 -72 -310 -86 -55 -5
-117 -15 -138 -20 -73 -20 -124 -84 -143 -180 -7 -38 -229 -2025 -281 -2528
-19 -174 -13 -233 26 -276 24 -26 30 -29 40 -16 11 15 7 -98 -8 -214 -5 -40
-4 -48 8 -40 12 7 2431 1771 2586 1886 l52 38 -69 107 c-119 182 -157 312
-147 507 3 79 12 133 30 188 138 428 611 648 1024 477 80 -34 192 -109 238
-160 23 -25 24 -29 6 -14 l-25 20 22 -32 c76 -109 122 -269 122 -422 -1 -139
-18 -212 -90 -371 -24 -52 -45 -115 -48 -140 -5 -50 20 -126 38 -115 14 9 12
-2 -5 -28 -14 -22 -13 -25 28 -53 23 -17 528 -388 1122 -825 1017 -748 1382
-1015 1413 -1033 11 -7 13 2 8 45 -4 30 -81 749 -171 1599 -91 850 -167 1560
-170 1578 l-6 34 -65 -4 c-45 -2 -64 1 -64 9 0 13 -54 56 -85 67 -11 4 -74 14
-140 22 -167 21 -267 53 -373 120 -37 24 -52 30 -42 17 8 -11 -4 1 -28 26
-125 133 -206 370 -188 549 29 284 183 515 421 633 127 62 223 82 374 77 146
-6 243 -32 350 -95 69 -41 154 -111 147 -121 -6 -11 109 -157 124 -157 10 0
95 -150 113 -199 4 -13 -8 -18 652 272 314 138 939 412 1390 610 968 425 875
382 875 397 0 7 -33 27 -72 45 -161 74 -232 110 -219 110 25 0 -26 46 -87 78
-32 17 -174 82 -317 145 -143 63 -480 213 -750 332 -1450 643 -1427 633 -1480
646 -65 16 -128 7 -171 -26 -19 -15 -66 -68 -103 -119 -138 -185 -272 -279
-471 -331 -91 -24 -263 -22 -361 4 -76 20 -207 78 -243 110 -16 13 -18 13 -12
1 4 -8 -15 9 -43 39 -28 30 -68 88 -90 130 -236 454 24 1000 529 1107 60 13
106 15 228 9 83 -3 152 -3 152 1 0 4 22 208 50 453 80 718 300 2710 300 2716
0 11 -18 2 -75 -41z m-3964 -1641 c13 -16 12 -17 -3 -4 -10 7 -18 15 -18 17 0
8 8 3 21 -13z m1104 -2938 c156 -41 288 -112 390 -210 28 -26 41 -41 30 -34
-18 13 -17 11 3 -21 37 -57 88 -161 106 -215 23 -70 46 -209 46 -275 0 -66
-23 -205 -46 -275 -91 -278 -328 -498 -619 -576 -113 -30 -317 -30 -430 0 -79
21 -207 78 -275 122 -31 21 -34 21 -21 4 7 -11 -8 3 -34 30 -388 405 -274
1095 226 1364 92 50 140 67 249 92 101 23 278 20 375 -6z"/>
<path d="M5880 7986 c0 -2 8 -10 18 -17 15 -13 16 -12 3 4 -13 16 -21 21 -21
13z"/>
</g>
</svg>
